<svg width="57" height="57" viewBox="0 0 57 57" fill="none" xmlns="http://www.w3.org/2000/svg">
<g filter="url(#filter0_d)">
<path d="M28.9917 37C36.1714 37 41.9917 31.1797 41.9917 24C41.9917 16.8203 36.1714 11 28.9917 11C21.812 11 15.9917 16.8203 15.9917 24C15.9917 27.2497 17.1841 30.2209 19.1553 32.5C19.1553 32.5 18.9917 34.5 15.9917 37C19.9917 37.5 22.3396 35.1715 22.3396 35.1715C24.2857 36.3328 26.5608 37 28.9917 37Z" fill="white"/>
</g>
<path fill-rule="evenodd" clip-rule="evenodd" d="M28.9916 12C22.3641 12 16.9916 17.3726 16.9916 24C16.9916 27.0005 18.0915 29.7416 19.9115 31.8458C20.1216 32.0887 20.194 32.4039 20.1357 32.6963C20.057 34.0233 19.196 35.1472 18.4788 35.9016C18.4377 35.9447 18.3966 35.9872 18.3555 36.0291C18.4226 36.0206 18.4905 36.0109 18.559 36C19.5881 35.8358 20.6726 35.4047 21.4845 34.5929C21.5247 34.5526 21.5676 34.5165 21.6126 34.4845C21.9272 34.1509 22.4418 34.068 22.8519 34.3128C24.6474 35.3842 26.746 36 28.9916 36C35.619 36 40.9916 30.6274 40.9916 24C40.9916 17.3726 35.619 12 28.9916 12ZM22.4752 36.394C24.4223 37.4197 26.6404 38 28.9916 38C36.7235 38 42.9916 31.732 42.9916 24C42.9916 16.268 36.7235 10 28.9916 10C21.2596 10 14.9916 16.268 14.9916 24C14.9916 27.3356 16.1593 30.4007 18.107 32.8056C17.9942 33.3245 17.6097 33.9131 17.0294 34.5234C16.7027 34.867 16.3556 35.1749 16.0479 35.4358C15.9749 35.4977 15.8969 35.5627 15.8186 35.6279C15.6115 35.8006 15.4031 35.9743 15.2845 36.0929C15.0572 36.3202 14.953 36.6429 15.0045 36.9602C15.056 37.2775 15.2568 37.5507 15.5443 37.6944C15.9542 37.8993 16.4833 38.0101 17.0184 38.0544C17.5727 38.1003 18.2096 38.0811 18.8741 37.975C20.0427 37.7885 21.3634 37.3218 22.4752 36.394ZM21.9916 20C21.9916 19.4477 22.4393 19 22.9916 19H34.9916C35.5438 19 35.9916 19.4477 35.9916 20C35.9916 20.5523 35.5438 21 34.9916 21H22.9916C22.4393 21 21.9916 20.5523 21.9916 20ZM21.9916 24C21.9916 23.4477 22.4393 23 22.9916 23H32.4916C33.0438 23 33.4916 23.4477 33.4916 24C33.4916 24.5523 33.0438 25 32.4916 25H22.9916C22.4393 25 21.9916 24.5523 21.9916 24ZM22.9916 27C22.4393 27 21.9916 27.4477 21.9916 28C21.9916 28.5523 22.4393 29 22.9916 29H30.4916C31.0438 29 31.4916 28.5523 31.4916 28C31.4916 27.4477 31.0438 27 30.4916 27H22.9916Z" fill="#3E4958"/>
<defs>
<filter id="filter0_d" x="0.991699" y="0" width="56" height="56.0704" filterUnits="userSpaceOnUse" color-interpolation-filters="sRGB">
<feFlood flood-opacity="0" result="BackgroundImageFix"/>
<feColorMatrix in="SourceAlpha" type="matrix" values="0 0 0 0 0 0 0 0 0 0 0 0 0 0 0 0 0 0 127 0"/>
<feOffset dy="4"/>
<feGaussianBlur stdDeviation="7.5"/>
<feColorMatrix type="matrix" values="0 0 0 0 0 0 0 0 0 0 0 0 0 0 0 0 0 0 0.15 0"/>
<feBlend mode="normal" in2="BackgroundImageFix" result="effect1_dropShadow"/>
<feBlend mode="normal" in="SourceGraphic" in2="effect1_dropShadow" result="shape"/>
</filter>
</defs>
</svg>
