<svg width="12" height="17" viewBox="0 0 12 17" fill="none" xmlns="http://www.w3.org/2000/svg">
<path d="M11 7.36667H10.25V4.95833C10.25 2.22445 8.28725 0 5.875 0C3.46275 0 1.5 2.22445 1.5 4.95833V7.36667H1C0.44775 7.36667 0 7.87412 0 8.5V15.8667C0 16.4925 0.44775 17 1 17H11C11.5522 17 12 16.4925 12 15.8667V8.5C12 7.87412 11.5522 7.36667 11 7.36667ZM6.75 13.3167C6.75 13.7861 6.41425 14.1667 6 14.1667C5.58575 14.1667 5.25 13.7861 5.25 13.3167V11.05C5.25 10.5805 5.58575 10.2 6 10.2C6.41425 10.2 6.75 10.5805 6.75 11.05V13.3167ZM3 7.36667V4.95833C3 3.16172 4.28975 1.7 5.875 1.7C7.46025 1.7 8.75 3.16172 8.75 4.95833V7.36667H3Z" fill="white"/>
</svg>
