<svg width="35" height="36" viewBox="0 0 35 36" fill="none" xmlns="http://www.w3.org/2000/svg">
<path d="M20.8496 18C20.8496 19.9028 19.35 21.4453 17.5 21.4453C15.65 21.4453 14.1504 19.9028 14.1504 18C14.1504 16.0972 15.65 14.5547 17.5 14.5547C19.35 14.5547 20.8496 16.0972 20.8496 18Z" fill="#339999"/>
<path d="M25.3336 11.9043C25.1726 11.4555 24.9157 11.0493 24.582 10.7159C24.2578 10.3726 23.8631 10.1083 23.4265 9.94272C23.0724 9.80127 22.5405 9.6329 21.5608 9.58704C20.501 9.53732 20.1832 9.52661 17.5001 9.52661C14.8167 9.52661 14.499 9.53705 13.4394 9.58676C12.4597 9.6329 11.9275 9.80127 11.5737 9.94272C11.1371 10.1083 10.7421 10.3726 10.4182 10.7159C10.0844 11.0493 9.82755 11.4553 9.66627 11.9043C9.52875 12.2685 9.36506 12.8159 9.32047 13.8236C9.27213 14.9135 9.26172 15.2403 9.26172 18.0004C9.26172 20.7601 9.27213 21.087 9.32047 22.1771C9.36506 23.1848 9.52875 23.7319 9.66627 24.0961C9.82755 24.5452 10.0842 24.9511 10.418 25.2846C10.7421 25.6279 11.1368 25.8921 11.5734 26.0577C11.9275 26.1995 12.4597 26.3678 13.4394 26.4137C14.499 26.4634 14.8165 26.4738 17.4998 26.4738C20.1835 26.4738 20.5012 26.4634 21.5605 26.4137C22.5403 26.3678 23.0724 26.1995 23.4265 26.0577C24.3029 25.71 24.9956 24.9976 25.3336 24.0961C25.4712 23.7319 25.6349 23.1848 25.6797 22.1771C25.7281 21.087 25.7382 20.7601 25.7382 18.0004C25.7382 15.2403 25.7281 14.9135 25.6797 13.8236C25.6351 12.8159 25.4714 12.2685 25.3336 11.9043ZM17.5001 23.3076C14.6501 23.3076 12.3398 20.9315 12.3398 18.0001C12.3398 15.0687 14.6501 12.6926 17.5001 12.6926C20.3498 12.6926 22.6602 15.0687 22.6602 18.0001C22.6602 20.9315 20.3498 23.3076 17.5001 23.3076ZM22.8642 13.7231C22.1982 13.7231 21.6583 13.1678 21.6583 12.4828C21.6583 11.7978 22.1982 11.2424 22.8642 11.2424C23.5301 11.2424 24.0701 11.7978 24.0701 12.4828C24.0698 13.1678 23.5301 13.7231 22.8642 13.7231Z" fill="#339999"/>
<path d="M17.5 0C7.83649 0 0 8.06039 0 18C0 27.9396 7.83649 36 17.5 36C27.1635 36 35 27.9396 35 18C35 8.06039 27.1635 0 17.5 0ZM27.4882 22.2613C27.4396 23.3616 27.2695 24.1128 27.0212 24.7703C26.4991 26.1587 25.4321 27.2563 24.0823 27.7932C23.4433 28.0486 22.7127 28.2233 21.6432 28.2736C20.5716 28.3239 20.2293 28.3359 17.5003 28.3359C14.771 28.3359 14.4289 28.3239 13.357 28.2736C12.2876 28.2233 11.557 28.0486 10.918 27.7932C10.2472 27.5337 9.64001 27.1269 9.13799 26.6009C8.6269 26.0848 8.23143 25.46 7.97909 24.7703C7.73075 24.1131 7.56065 23.3616 7.51205 22.2616C7.46265 21.1591 7.45117 20.807 7.45117 18C7.45117 15.193 7.46265 14.8409 7.51179 13.7387C7.56039 12.6384 7.73022 11.8872 7.97855 11.2297C8.2309 10.54 8.62663 9.91516 9.13799 9.39908C9.63974 8.87311 10.2472 8.46634 10.9177 8.20679C11.557 7.95135 12.2873 7.77667 13.357 7.72641C14.4286 7.67615 14.771 7.66406 17.5 7.66406C20.229 7.66406 20.5714 7.67615 21.643 7.72668C22.7127 7.77667 23.443 7.95135 24.0823 8.20651C24.7528 8.46606 25.3603 8.87311 25.8623 9.39908C26.3734 9.91544 26.7691 10.54 27.0212 11.2297C27.2698 11.8872 27.4396 12.6384 27.4885 13.7387C27.5373 14.8409 27.5488 15.193 27.5488 18C27.5488 20.807 27.5373 21.1591 27.4882 22.2613Z" fill="#339999"/>
</svg>
