<svg width="30" height="30" viewBox="0 0 30 30" fill="none" xmlns="http://www.w3.org/2000/svg">
<path fill-rule="evenodd" clip-rule="evenodd" d="M15 30C23.2843 30 30 23.2843 30 15C30 6.71573 23.2843 0 15 0C6.71573 0 0 6.71573 0 15C0 23.2843 6.71573 30 15 30ZM17.1778 10.7025L16.2364 7.80517C15.8472 6.60746 14.1528 6.60746 13.7636 7.80516L12.8222 10.7025C12.6482 11.2382 12.149 11.6008 11.5858 11.6008H8.53937C7.28003 11.6008 6.75642 13.2123 7.77524 13.9525L10.2399 15.7432C10.6955 16.0742 10.8862 16.661 10.7121 17.1967L9.77074 20.094C9.38158 21.2917 10.7524 22.2877 11.7712 21.5475L14.2359 19.7568C14.6915 19.4258 15.3085 19.4258 15.7641 19.7568L18.2288 21.5475C19.2476 22.2877 20.6184 21.2917 20.2293 20.094L19.2879 17.1967C19.1138 16.661 19.3045 16.0742 19.7601 15.7432L22.2248 13.9525C23.2436 13.2123 22.72 11.6008 21.4606 11.6008H18.4142C17.851 11.6008 17.3518 11.2382 17.1778 10.7025Z" fill="#D5DDE0"/>
</svg>
