<svg width="30" height="30" viewBox="0 0 30 30" fill="none" xmlns="http://www.w3.org/2000/svg">
<rect x="2.50034" y="7" width="24.9993" height="16.67" rx="2" fill="url(#paint0_radial)"/>
<path d="M4.75382 12.9156L4.27289 11.6972L3.7947 12.9156H4.75382ZM15.3487 12.4304C15.2521 12.4914 15.1379 12.4934 15.0011 12.4934H14.1475V11.8146H15.0127C15.1352 11.8146 15.263 11.8203 15.346 11.8697C15.4371 11.9142 15.4935 12.009 15.4935 12.1399C15.4935 12.2734 15.4399 12.3809 15.3487 12.4304ZM21.4382 12.9156L20.952 11.6972L20.4684 12.9156H21.4382ZM10.087 14.2343H9.36666L9.364 11.8407L8.34512 14.2343H7.72817L6.70663 11.8386V14.2343H5.27749L5.0075 13.5527H3.54448L3.27174 14.2343H2.50858L3.76686 11.1781H4.81083L6.0059 14.0717V11.1781H7.15272L8.07229 13.2514L8.91703 11.1781H10.0869V14.2343H10.087ZM12.958 14.2343H10.6107V11.1781H12.958V11.8146H11.3134V12.3654H12.9185V12.9919H11.3134V13.6023H12.958V14.2343ZM16.2676 12.0012C16.2676 12.4885 15.9547 12.7403 15.7724 12.8158C15.9262 12.8767 16.0575 12.9842 16.12 13.0732C16.2192 13.2252 16.2364 13.361 16.2364 13.634V14.2343H15.5276L15.525 13.8489C15.525 13.665 15.5419 13.4006 15.4141 13.2535C15.3114 13.146 15.1549 13.1227 14.9019 13.1227H14.1476V14.2343H13.445V11.1781H15.0612C15.4203 11.1781 15.6848 11.188 15.912 11.3245C16.1343 11.461 16.2676 11.6603 16.2676 12.0012ZM17.392 14.2343H16.6751V11.1781H17.392V14.2343ZM25.7098 14.2343H24.714L23.3822 11.9405V14.2343H21.9512L21.6777 13.5527H20.2181L19.9528 14.2343H19.1306C18.789 14.2343 18.3566 14.1558 18.1117 13.8963C17.8647 13.6368 17.7363 13.2853 17.7363 12.7296C17.7363 12.2763 17.813 11.8619 18.115 11.5345C18.3422 11.2906 18.6979 11.1781 19.1822 11.1781H19.8624V11.833H19.1964C18.94 11.833 18.7952 11.8726 18.6557 12.014C18.5359 12.1427 18.4538 12.386 18.4538 12.7063C18.4538 13.0338 18.5164 13.2698 18.647 13.4241C18.7551 13.545 18.9517 13.5817 19.1367 13.5817H19.4522L20.4426 11.1782H21.4954L22.6851 14.069V11.1782H23.7549L24.9901 13.3067V11.1782H25.7098V14.2343ZM2.50042 14.8346H3.70098L3.97168 14.1558H4.57773L4.84772 14.8346H7.20991V14.3156L7.42076 14.8368H8.64704L8.85789 14.3079V14.8346H14.7284L14.7256 13.7203H14.8392C14.9188 13.7232 14.942 13.7308 14.942 13.8674V14.8346H17.9782V14.5752C18.2231 14.7117 18.604 14.8346 19.1053 14.8346H20.3826L20.656 14.1558H21.262L21.5294 14.8346H23.9909V14.1898L24.3636 14.8346H26.3361V10.5721H24.384V11.0755L24.1107 10.5721H22.1076V11.0755L21.8565 10.5721H19.1509C18.6979 10.5721 18.2998 10.6379 17.9782 10.821V10.5721H16.1111V10.821C15.9064 10.6322 15.6276 10.5721 15.3175 10.5721H8.49603L8.03833 11.6731L7.56831 10.5721H5.41971V11.0755L5.18368 10.5721H3.35128L2.50034 12.5988V14.8346H2.50042Z" fill="white"/>
<path d="M27.4993 17.0889H26.2186C26.0908 17.0889 26.0058 17.0938 25.9343 17.1441C25.8602 17.1936 25.8316 17.2671 25.8316 17.364C25.8316 17.4793 25.8942 17.5578 25.9853 17.5917C26.0594 17.6185 26.139 17.6264 26.2561 17.6264L26.6369 17.637C27.0212 17.6468 27.2777 17.7155 27.4341 17.883C27.4626 17.9063 27.4797 17.9325 27.4993 17.9587V17.0889ZM27.4993 19.1042C27.3286 19.3637 26.996 19.4953 26.5457 19.4953H25.1888V18.8398H26.5402C26.6743 18.8398 26.7681 18.8214 26.8246 18.7641C26.8735 18.7168 26.9077 18.6481 26.9077 18.5647C26.9077 18.4756 26.8735 18.4049 26.8218 18.3625C26.7709 18.3159 26.6966 18.2947 26.5743 18.2947C25.9145 18.2714 25.0914 18.3159 25.0914 17.3485C25.0914 16.9051 25.3622 16.4384 26.0996 16.4384H27.4992V15.8302H26.1988C25.8063 15.8302 25.5213 15.9279 25.3194 16.0798V15.8302H23.3959C23.0883 15.8302 22.7273 15.9095 22.5565 16.0798V15.8302H19.1217V16.0798C18.8483 15.8748 18.3871 15.8302 18.1742 15.8302H15.9086V16.0798C15.6923 15.8621 15.2114 15.8302 14.9182 15.8302H12.3826L11.8024 16.483L11.2589 15.8302H7.47122V20.0957H11.1876L11.7855 19.4325L12.3487 20.0957L14.6395 20.0978V19.0944H14.8648C15.1687 19.0993 15.5272 19.0865 15.8435 18.9444V20.0956H17.733V18.9838H17.8241C17.9405 18.9838 17.9519 18.9888 17.9519 19.1097V20.0955H23.6919C24.0563 20.0955 24.4372 19.9985 24.6482 19.8225V20.0955H26.4689C26.8477 20.0955 27.2178 20.0403 27.4993 19.8988V19.1042ZM24.6964 17.883C24.8332 18.0302 24.9065 18.2161 24.9065 18.5307C24.9065 19.1883 24.5113 19.4953 23.8027 19.4953H22.4341V18.8398H23.7972C23.9305 18.8398 24.025 18.8214 24.0842 18.7641C24.1326 18.7168 24.1672 18.6481 24.1672 18.5647C24.1672 18.4756 24.1297 18.4049 24.0815 18.3625C24.0278 18.3159 23.9536 18.2947 23.8313 18.2947C23.1742 18.2714 22.3512 18.3159 22.3512 17.3485C22.3512 16.9051 22.6192 16.4384 23.3558 16.4384H24.7645V17.089H23.4755C23.3478 17.089 23.2647 17.094 23.194 17.1443C23.1171 17.1938 23.0885 17.2672 23.0885 17.3642C23.0885 17.4795 23.1538 17.558 23.2423 17.5919C23.3164 17.6187 23.396 17.6266 23.5157 17.6266L23.894 17.6372C24.2754 17.6468 24.5372 17.7154 24.6964 17.883ZM18.356 17.6942C18.262 17.7522 18.1457 17.7572 18.009 17.7572H17.1554V17.0706H18.0206C18.1457 17.0706 18.2709 17.0734 18.356 17.1258C18.447 17.1753 18.5015 17.27 18.5015 17.4008C18.5015 17.5316 18.447 17.637 18.356 17.6942ZM18.7803 18.0747C18.9367 18.1347 19.0646 18.2422 19.1245 18.3313C19.2237 18.4805 19.2381 18.6198 19.2409 18.8893V19.4953H18.5355V19.1128C18.5355 18.9289 18.5525 18.6566 18.4219 18.5145C18.3193 18.4049 18.1628 18.3788 17.9064 18.3788H17.1555V19.4953H16.4494V16.4383H18.0717C18.4274 16.4383 18.6865 16.4547 18.9171 16.5826C19.1389 16.7219 19.2784 16.9127 19.2784 17.2614C19.2783 17.7493 18.9653 17.9983 18.7803 18.0747ZM19.668 16.4383H22.0131V17.0705H20.3677V17.6263H21.973V18.25H20.3677V18.8582L22.0131 18.861V19.4953H19.668V16.4383ZM14.9272 17.8491H14.0191V17.0706H14.9353C15.189 17.0706 15.3651 17.1781 15.3651 17.4454C15.3651 17.7098 15.1972 17.8491 14.9272 17.8491ZM13.3193 19.2173L12.2405 17.9721L13.3193 16.7664V19.2173ZM10.5333 18.8582H8.80567V18.25H10.3483V17.6263H8.80567V17.0705H10.5673L11.3359 17.9614L10.5333 18.8582ZM16.1195 17.4454C16.1195 18.2946 15.5101 18.4699 14.8959 18.4699H14.0191V19.4953H12.6534L11.7882 18.4833L10.889 19.4953H8.10573V16.4383H10.9318L11.7963 17.4404L12.6901 16.4383H14.9353C15.493 16.4383 16.1195 16.5988 16.1195 17.4454Z" fill="white"/>
<defs>
<radialGradient id="paint0_radial" cx="0" cy="0" r="1" gradientUnits="userSpaceOnUse" gradientTransform="translate(6.88545 9.91159) scale(23.3212 15.5868)">
<stop stop-color="#9DD5F6"/>
<stop offset="0.0711" stop-color="#98D3F5"/>
<stop offset="0.1575" stop-color="#89CEF3"/>
<stop offset="0.2516" stop-color="#70C6EF"/>
<stop offset="0.3514" stop-color="#4EBBEA"/>
<stop offset="0.4546" stop-color="#23ADE3"/>
<stop offset="0.5" stop-color="#0DA6E0"/>
<stop offset="1" stop-color="#2E77BC"/>
</radialGradient>
</defs>
</svg>
