<svg width="40" height="40" viewBox="0 0 40 40" fill="none" xmlns="http://www.w3.org/2000/svg">
<path d="M18.0979 5.8541C18.6966 4.01148 21.3034 4.01148 21.9021 5.8541L24.0413 12.4377C24.309 13.2617 25.0769 13.8197 25.9434 13.8197H32.8658C34.8032 13.8197 35.6088 16.2989 34.0413 17.4377L28.441 21.5066C27.74 22.0159 27.4467 22.9186 27.7145 23.7426L29.8536 30.3262C30.4523 32.1689 28.3433 33.7011 26.7759 32.5623L21.1756 28.4934C20.4746 27.9841 19.5254 27.9841 18.8244 28.4934L13.2241 32.5623C11.6567 33.7011 9.5477 32.1689 10.1464 30.3262L12.2855 23.7426C12.5533 22.9186 12.26 22.0159 11.559 21.5066L5.95867 17.4377C4.39124 16.2989 5.19679 13.8197 7.13424 13.8197H14.0566C14.9231 13.8197 15.691 13.2617 15.9587 12.4377L18.0979 5.8541Z" fill="#D5DDE0"/>
<path d="M18.0979 5.8541C18.6966 4.01148 21.3034 4.01148 21.9021 5.8541L24.0413 12.4377C24.309 13.2617 25.0769 13.8197 25.9434 13.8197H32.8658C34.8032 13.8197 35.6088 16.2989 34.0413 17.4377L28.441 21.5066C27.74 22.0159 27.4467 22.9186 27.7145 23.7426L29.8536 30.3262C30.4523 32.1689 28.3433 33.7011 26.7759 32.5623L21.1756 28.4934C20.4746 27.9841 19.5254 27.9841 18.8244 28.4934L13.2241 32.5623C11.6567 33.7011 9.5477 32.1689 10.1464 30.3262L12.2855 23.7426C12.5533 22.9186 12.26 22.0159 11.559 21.5066L5.95867 17.4377C4.39124 16.2989 5.19679 13.8197 7.13424 13.8197H14.0566C14.9231 13.8197 15.691 13.2617 15.9587 12.4377L18.0979 5.8541Z" fill="#E4CE00"/>
</svg>
