<svg width="50" height="50" viewBox="0 0 50 50" fill="none" xmlns="http://www.w3.org/2000/svg">
<g filter="url(#filter0_d)">
<circle cx="25" cy="21" r="9.75" fill="white"/>
</g>
<path fill-rule="evenodd" clip-rule="evenodd" d="M24.8 15C24.2477 15 23.8 14.5523 23.8 14V13.3423C20.3484 13.8789 17.6503 16.6931 17.2908 20.2002H18C18.5523 20.2002 19 20.6479 19 21.2002C19 21.7525 18.5523 22.2002 18 22.2002H17.3424C17.8584 25.5193 20.4807 28.1416 23.7998 28.6576V28C23.7998 27.4477 24.2475 27 24.7998 27C25.3521 27 25.7998 27.4477 25.7998 28V28.7092C29.3069 28.3497 32.1211 25.6516 32.6577 22.2H32C31.4477 22.2 31 21.7523 31 21.2C31 20.6477 31.4477 20.2 32 20.2H32.7092C32.3358 16.5587 29.4413 13.6642 25.8 13.2908V14C25.8 14.5523 25.3523 15 24.8 15ZM25.7998 30.7177C30.4125 30.3432 34.1175 26.758 34.6769 22.2H36C36.5523 22.2 37 21.7523 37 21.2C37 20.6477 36.5523 20.2 36 20.2H34.7177C34.3322 15.4533 30.5467 11.6678 25.8 11.2823V10C25.8 9.44772 25.3523 9 24.8 9C24.2477 9 23.8 9.44772 23.8 10V11.3231C19.242 11.8825 15.6568 15.5875 15.2823 20.2002H14C13.4477 20.2002 13 20.6479 13 21.2002C13 21.7525 13.4477 22.2002 14 22.2002H15.3231C15.8664 26.6254 19.3746 30.1336 23.7998 30.6769V32C23.7998 32.5523 24.2475 33 24.7998 33C25.3521 33 25.7998 32.5523 25.7998 32V30.7177ZM25 23.5C26.3807 23.5 27.5 22.3807 27.5 21C27.5 19.6193 26.3807 18.5 25 18.5C23.6193 18.5 22.5 19.6193 22.5 21C22.5 22.3807 23.6193 23.5 25 23.5Z" fill="#3E4958"/>
<defs>
<filter id="filter0_d" x="0.25" y="0.25" width="49.5" height="49.5" filterUnits="userSpaceOnUse" color-interpolation-filters="sRGB">
<feFlood flood-opacity="0" result="BackgroundImageFix"/>
<feColorMatrix in="SourceAlpha" type="matrix" values="0 0 0 0 0 0 0 0 0 0 0 0 0 0 0 0 0 0 127 0"/>
<feOffset dy="4"/>
<feGaussianBlur stdDeviation="7.5"/>
<feColorMatrix type="matrix" values="0 0 0 0 0 0 0 0 0 0 0 0 0 0 0 0 0 0 0.15 0"/>
<feBlend mode="normal" in2="BackgroundImageFix" result="effect1_dropShadow"/>
<feBlend mode="normal" in="SourceGraphic" in2="effect1_dropShadow" result="shape"/>
</filter>
</defs>
</svg>
