<svg width="130" height="93" viewBox="0 0 130 93" fill="none" xmlns="http://www.w3.org/2000/svg">
<g filter="url(#filter0_d)">
<path fill-rule="evenodd" clip-rule="evenodd" d="M44.5 30C36.4919 30 30 36.4919 30 44.5C30 52.5081 36.4919 59 44.5 59H58.7871L65.6667 63L71.3497 59H85.5C93.5081 59 100 52.5081 100 44.5C100 36.4919 93.5081 30 85.5 30H44.5Z" fill="#339999"/>
</g>
<path d="M49.6871 49.1491C52.1373 49.1491 53.8898 47.8015 53.8845 45.9371C53.8898 44.5788 53.0269 43.6094 51.4236 43.407V43.3217C52.6434 43.1033 53.485 42.2404 53.4797 41.0153C53.485 39.2947 51.9775 37.9418 49.719 37.9418C47.4818 37.9418 45.7986 39.2521 45.7666 41.1378H47.9772C48.0038 40.3068 48.7655 39.7688 49.7084 39.7688C50.6405 39.7688 51.2638 40.3335 51.2584 41.1538C51.2638 42.0114 50.534 42.592 49.4846 42.592H48.4672V44.2859H49.4846C50.7204 44.2859 51.4928 44.9038 51.4875 45.7827C51.4928 46.6509 50.7471 47.2475 49.6924 47.2475C48.675 47.2475 47.9133 46.7148 47.8706 45.9158H45.5482C45.5855 47.8228 47.29 49.1491 49.6871 49.1491ZM59.0354 49H61.3046V44.0888C61.3046 43.1832 61.8799 42.5813 62.6363 42.5813C63.382 42.5813 63.8827 43.0927 63.8827 43.897V49H66.0827V44.0036C66.0827 43.1566 66.5674 42.5813 67.393 42.5813C68.1175 42.5813 68.6608 43.0341 68.6608 43.945V49H70.9246V43.4975C70.9246 41.7237 69.8699 40.7116 68.3465 40.7116C67.148 40.7116 66.2158 41.3242 65.8802 42.2617H65.795C65.534 41.3136 64.6977 40.7116 63.5738 40.7116C62.4711 40.7116 61.6349 41.2976 61.2939 42.2617H61.1981V40.8182H59.0354V49ZM72.7171 49H74.9862V40.8182H72.7171V49ZM73.857 39.8487C74.5175 39.8487 75.0874 39.348 75.0874 38.6982C75.0874 38.0536 74.5175 37.5529 73.857 37.5529C73.2018 37.5529 72.6318 38.0536 72.6318 38.6982C72.6318 39.348 73.2018 39.8487 73.857 39.8487ZM79.0732 44.2699C79.0785 43.2152 79.707 42.5973 80.6232 42.5973C81.5341 42.5973 82.0827 43.1939 82.0774 44.1953V49H84.3466V43.7905C84.3466 41.8835 83.228 40.7116 81.5234 40.7116C80.3089 40.7116 79.43 41.3082 79.0625 42.2617H78.9666V40.8182H76.804V49H79.0732V44.2699Z" fill="white"/>
<defs>
<filter id="filter0_d" x="0" y="0" width="130" height="93" filterUnits="userSpaceOnUse" color-interpolation-filters="sRGB">
<feFlood flood-opacity="0" result="BackgroundImageFix"/>
<feColorMatrix in="SourceAlpha" type="matrix" values="0 0 0 0 0 0 0 0 0 0 0 0 0 0 0 0 0 0 127 0"/>
<feOffset/>
<feGaussianBlur stdDeviation="15"/>
<feColorMatrix type="matrix" values="0 0 0 0 0 0 0 0 0 0 0 0 0 0 0 0 0 0 0.1 0"/>
<feBlend mode="normal" in2="BackgroundImageFix" result="effect1_dropShadow"/>
<feBlend mode="normal" in="SourceGraphic" in2="effect1_dropShadow" result="shape"/>
</filter>
</defs>
</svg>
