<svg width="30" height="30" viewBox="0 0 30 30" fill="none" xmlns="http://www.w3.org/2000/svg">
<rect x="2" y="6.33329" width="26" height="17.3333" rx="2" fill="#117ACA"/>
<path d="M14.0332 8.80942C13.9003 8.80942 13.7927 8.91704 13.7927 9.04975V10.7353H18.2465L16.2182 8.80958L14.0332 8.80942Z" fill="white"/>
<path d="M18.4054 11.245C18.4054 11.112 18.2985 11.0048 18.1648 11.0048H16.4792V15.4574L18.4046 13.4289L18.4054 11.245Z" fill="white"/>
<path d="M15.9663 15.6189C16.0989 15.6189 16.2066 15.5112 16.2066 15.3781V13.6932H11.7526L13.7812 15.6186L15.9663 15.6189Z" fill="white"/>
<path d="M11.5952 13.1834C11.5952 13.3163 11.7028 13.4245 11.836 13.4245H13.5213V8.97158L11.5955 10.9995L11.5952 13.1834Z" fill="white"/>
<path d="M12.1941 17.7882V19.0968H10.3551V17.7882L9.6853 17.7876V21.0871H10.3551V19.6696H12.1941V21.0871H12.865V17.7882H12.1941Z" fill="white"/>
<path d="M21.1063 17.788V21.0861H24.0448L23.6727 20.5055H21.778V19.6695H23.6126V19.1102H21.778V18.3551H23.6695L24.0341 17.788H21.1063Z" fill="white"/>
<path d="M7.19623 17.7876C6.49949 17.7876 6.14758 18.2075 6.14758 18.8185V20.0501C6.14758 20.7572 6.60108 21.0873 7.19275 21.0873L9.29423 21.0871L8.90464 20.484H7.32258C6.98648 20.484 6.84006 20.3636 6.84006 19.9907V18.8733C6.84006 18.5128 6.96332 18.3722 7.33152 18.3722H8.92115L9.29522 17.7876H7.19623Z" fill="white"/>
<path d="M18.1655 17.7864C17.7631 17.7864 17.3507 18.0262 17.3507 18.6429V18.8013C17.3507 19.4442 17.7475 19.6895 18.1446 19.6912H19.5382C19.6829 19.6912 19.8005 19.715 19.8005 19.9576L19.8003 20.2377C19.7966 20.4556 19.687 20.5055 19.5332 20.5055H17.6998L17.3242 21.0861H19.5763C20.1194 21.0861 20.4881 20.8183 20.4881 20.1996V19.9722C20.4881 19.3741 20.1455 19.0914 19.6144 19.0914H18.2837C18.1362 19.0914 18.0334 19.0515 18.0334 18.8349V18.6068C18.0334 18.4223 18.1039 18.355 18.2758 18.355L20.0218 18.3543L20.3867 17.7856L18.1655 17.7864Z" fill="white"/>
<path d="M14.8108 17.788L13.2327 21.0867H13.9786L14.2859 20.4055H16.0008L16.3072 21.0867H17.0563L15.4746 17.788H14.8108ZM15.1417 18.4729L15.7481 19.844H14.5392L15.1417 18.4729Z" fill="white"/>
</svg>
