<svg width="30" height="30" viewBox="0 0 30 30" fill="none" xmlns="http://www.w3.org/2000/svg">
<path fill-rule="evenodd" clip-rule="evenodd" d="M11.4704 11.1585L7.5702 20.0691H5.03435L3.11868 12.967C3.00842 12.5314 2.89817 12.373 2.55362 12.1882C1.96101 11.8845 1.01006 11.5941 0.169373 11.4225L0.2245 11.1585H4.31769C4.8414 11.1585 5.30998 11.4885 5.42024 12.0693L6.44009 17.2177L8.94838 11.1585H11.4704ZM21.4357 17.1648C21.4439 15.7556 20.2229 15.144 19.247 14.6553C18.5957 14.3291 18.0536 14.0576 18.0591 13.6402C18.0729 13.3234 18.3899 12.9801 19.079 12.8877C19.4235 12.8481 20.3745 12.8085 21.4495 13.2837L21.8767 11.396C21.2979 11.198 20.5536 11 19.6303 11C17.2598 11 15.5784 12.2145 15.5646 13.9438C15.5508 15.2243 16.7636 15.9371 17.6732 16.3728C18.6104 16.8084 18.9274 17.0856 18.9274 17.4816C18.9136 18.0757 18.1832 18.3397 17.4941 18.3529C16.3024 18.3659 15.603 18.0474 15.056 17.7984L15.0271 17.7852L14.5861 19.739C15.1512 19.9898 16.1848 20.201 17.2598 20.2142C19.7819 20.2142 21.4219 19.0129 21.4357 17.1648ZM27.7186 20.0691H29.9374L27.9942 11.1585H25.9407C25.4721 11.1585 25.0863 11.4093 24.9209 11.8053L21.31 20.0559H23.8321L24.3283 18.7226H27.4154L27.7186 20.0691ZM25.0311 16.9139L26.299 13.5741L27.0294 16.9139H25.0311ZM12.9167 20.0691L14.9013 11.1585H12.5033L10.5187 20.0691H12.9167Z" fill="#1A1F71"/>
</svg>
