<svg width="30" height="30" viewBox="0 0 30 30" fill="none" xmlns="http://www.w3.org/2000/svg">
<rect width="30" height="30" fill="white" fill-opacity="0.01"/>
<path fill-rule="evenodd" clip-rule="evenodd" d="M14.25 7C10.7982 7 8 9.79822 8 13.25C8 16.7018 10.7982 19.5 14.25 19.5C15.615 19.5 16.8777 19.0624 17.9057 18.3199L21.8554 22.2696C22.2459 22.6601 22.8791 22.6601 23.2696 22.2696C23.6601 21.8791 23.6601 21.2459 23.2696 20.8554L19.3199 16.9057C20.0624 15.8777 20.5 14.615 20.5 13.25C20.5 9.79822 17.7018 7 14.25 7ZM10 13.25C10 10.9028 11.9028 9 14.25 9C16.5972 9 18.5 10.9028 18.5 13.25C18.5 15.5972 16.5972 17.5 14.25 17.5C11.9028 17.5 10 15.5972 10 13.25Z" fill="#339999"/>
</svg>
