<svg width="58" height="58" viewBox="0 0 58 58" fill="none" xmlns="http://www.w3.org/2000/svg">
<rect x="9" y="5" width="40" height="40" fill="white" fill-opacity="0.01"/>
<g filter="url(#filter0_d)">
<path d="M20.1593 12.9816C19.0154 14.0285 17.4817 15.5362 16.9999 16.4998C15.9999 18.4998 17.4999 23.9998 22.9999 29.9998C27.3999 34.7998 32.8333 36.8667 36 37.2C38.134 37.4246 40.1167 35.2119 41.1828 33.7449C41.703 33.029 41.578 32.0638 40.9625 31.4279L37.5982 27.9516C36.7537 27.0789 35.3331 27.155 34.5326 28.0683C33.8042 28.8993 32.9796 29.7602 32.5 30C30.8747 30.8127 23.5 23 23.9999 21.4998C24.4288 20.8565 25.2255 20.1212 25.9957 19.4911C26.9876 18.6798 27.1187 17.1593 26.1915 16.2748L22.794 13.0341C22.0572 12.3313 20.9105 12.294 20.1593 12.9816Z" fill="white"/>
<path d="M20.1593 12.9816C19.0154 14.0285 17.4817 15.5362 16.9999 16.4998C15.9999 18.4998 17.4999 23.9998 22.9999 29.9998C27.3999 34.7998 32.8333 36.8667 36 37.2C38.134 37.4246 40.1167 35.2119 41.1828 33.7449C41.703 33.029 41.578 32.0638 40.9625 31.4279L37.5982 27.9516C36.7537 27.0789 35.3331 27.155 34.5326 28.0683C33.8042 28.8993 32.9796 29.7602 32.5 30C30.8747 30.8127 23.5 23 23.9999 21.4998C24.4288 20.8565 25.2255 20.1212 25.9957 19.4911C26.9876 18.6798 27.1187 17.1593 26.1915 16.2748L22.794 13.0341C22.0572 12.3313 20.9105 12.294 20.1593 12.9816Z" stroke="#3E4958" stroke-width="2"/>
</g>
<defs>
<filter id="filter0_d" x="0.710938" y="0.48584" width="56.7981" height="56.7302" filterUnits="userSpaceOnUse" color-interpolation-filters="sRGB">
<feFlood flood-opacity="0" result="BackgroundImageFix"/>
<feColorMatrix in="SourceAlpha" type="matrix" values="0 0 0 0 0 0 0 0 0 0 0 0 0 0 0 0 0 0 127 0"/>
<feOffset dy="4"/>
<feGaussianBlur stdDeviation="7.5"/>
<feColorMatrix type="matrix" values="0 0 0 0 0 0 0 0 0 0 0 0 0 0 0 0 0 0 0.15 0"/>
<feBlend mode="normal" in2="BackgroundImageFix" result="effect1_dropShadow"/>
<feBlend mode="normal" in="SourceGraphic" in2="effect1_dropShadow" result="shape"/>
</filter>
</defs>
</svg>
