<svg width="18" height="15" viewBox="0 0 18 15" fill="none" xmlns="http://www.w3.org/2000/svg">
<path d="M9.74276 7.41629C9.22699 6.93331 8.4328 6.79854 7.79094 7.09726C7.36338 7.29613 7.03864 7.65027 6.87659 8.09454C6.71454 8.53881 6.73485 9.01862 6.93371 9.44597C7.2227 10.0671 7.85293 10.4682 8.53943 10.4682C8.79732 10.4682 9.04738 10.4128 9.28242 10.3034C9.93317 10.0005 10.3343 9.32369 10.2956 8.60503L13.7499 6.39066L13.6614 6.20068L9.74276 7.41629ZM10.0745 8.49544L10.0802 8.55933C10.139 9.21347 9.78275 9.83714 9.19314 10.1117C8.98603 10.208 8.76622 10.2569 8.53943 10.2569C7.93501 10.2569 7.3801 9.90357 7.12538 9.3569C6.95042 8.98097 6.93244 8.55849 7.07524 8.16732C7.21804 7.77615 7.50386 7.46453 7.88022 7.28936C8.08521 7.19394 8.30312 7.1455 8.52758 7.1455C8.94075 7.1455 9.34588 7.31517 9.63868 7.6105L9.68395 7.6562L12.9781 6.63416L10.0745 8.49544Z" fill="white"/>
<path d="M15.0415 2.58417C13.3753 0.917735 11.163 0 8.81283 0C3.95337 0 0 3.95358 0 8.81283C0 10.5908 0.530162 12.3063 1.53358 13.7736L1.5651 13.8198H2.3523L2.22812 13.6511C2.14688 13.5409 2.07326 13.4364 2.00493 13.3347C2.04195 13.3234 2.07749 13.3082 2.1107 13.289C2.23172 13.2191 2.31824 13.106 2.35463 12.9701C2.39102 12.8343 2.37219 12.6928 2.30216 12.572C2.16296 12.331 1.8251 12.2411 1.58456 12.3803C1.55071 12.4 1.51919 12.4231 1.49105 12.4495C1.32308 12.1129 1.17901 11.7679 1.06117 11.4198C1.10179 11.4188 1.14177 11.4129 1.18007 11.4023C1.45953 11.3274 1.62624 11.039 1.55135 10.7592C1.48957 10.5298 1.28098 10.3697 1.04425 10.3697C0.997068 10.3697 0.950949 10.3758 0.908214 10.3877C0.8695 10.3978 0.832689 10.4124 0.797782 10.4308C0.723948 10.0657 0.67529 9.69481 0.652019 9.32417C0.690522 9.33305 0.730083 9.33749 0.770068 9.33749C1.05948 9.33749 1.29494 9.10224 1.29494 8.81304C1.29473 8.52384 1.05905 8.28859 0.769856 8.28859C0.730083 8.28859 0.690734 8.29304 0.652654 8.30192C0.675713 7.93064 0.724583 7.55978 0.797993 7.19527C0.8329 7.21367 0.869711 7.22827 0.908426 7.23864C1.17816 7.31183 1.47921 7.13624 1.55177 6.86714C1.62603 6.58768 1.45911 6.29953 1.17964 6.22443C1.14029 6.21407 1.10052 6.20814 1.06096 6.20687C1.17858 5.85907 1.32265 5.51424 1.49063 5.17744C1.51919 5.20388 1.55071 5.22715 1.58499 5.24704C1.66093 5.29062 1.74894 5.31368 1.83949 5.31368C2.03243 5.31368 2.20971 5.21425 2.30174 5.05452C2.37219 4.9333 2.39081 4.79177 2.35442 4.65595C2.31824 4.52055 2.23129 4.40737 2.10986 4.33734C2.07643 4.31809 2.04089 4.30244 2.00429 4.29101C2.21162 3.9796 2.43883 3.68342 2.68233 3.40755C2.70285 3.43992 2.72676 3.47017 2.75426 3.49767C2.94445 3.68786 3.30643 3.68807 3.49704 3.49767C3.70119 3.29267 3.70119 2.95947 3.49704 2.7549C3.46954 2.72739 3.43949 2.70328 3.40691 2.68275C3.68342 2.43904 3.9796 2.21183 4.29059 2.00493C4.30201 2.04153 4.31724 2.07707 4.33671 2.1107C4.42874 2.27043 4.60581 2.36986 4.79896 2.36986C4.88972 2.36986 4.97773 2.3468 5.05431 2.30301C5.30479 2.15767 5.39069 1.83589 5.24598 1.58562C5.22631 1.55177 5.20261 1.52025 5.17553 1.49169C5.51212 1.32371 5.85759 1.17943 6.20645 1.06138C6.20772 1.10115 6.21364 1.14114 6.22401 1.18049C6.29551 1.44832 6.59466 1.6237 6.86693 1.55198C7.00212 1.51581 7.1153 1.42886 7.18553 1.30763C7.25577 1.18684 7.27439 1.0453 7.23821 0.90906C7.22785 0.870769 7.21283 0.833958 7.19357 0.798628C7.55957 0.724794 7.93085 0.675925 8.3015 0.652653C8.29261 0.691157 8.28817 0.730718 8.28817 0.770914C8.28817 1.06032 8.52342 1.29579 8.81283 1.29579C9.10245 1.29579 9.33792 1.06032 9.33792 0.770914C9.33792 0.730929 9.33347 0.691368 9.32459 0.652653C9.69524 0.675925 10.0665 0.724794 10.4321 0.798628C10.4126 0.833746 10.3974 0.870769 10.3868 0.909272C10.3123 1.18832 10.4791 1.47688 10.7577 1.55219C11.0283 1.62666 11.3301 1.4498 11.4006 1.18197C11.4114 1.1422 11.4175 1.10179 11.4188 1.06159C11.7685 1.17985 12.1142 1.32414 12.4506 1.49211C12.4233 1.52067 12.3998 1.55219 12.3801 1.58604C12.235 1.83674 12.3213 2.15873 12.572 2.30386C12.6475 2.34765 12.7355 2.37071 12.8263 2.37071C13.0167 2.37071 13.198 2.26916 13.2883 2.11197C13.308 2.07791 13.3237 2.04216 13.3353 2.00535C13.6459 2.21225 13.942 2.43946 14.2192 2.6836C14.1868 2.70412 14.1568 2.72824 14.1295 2.75574C13.9247 2.96053 13.9243 3.29352 14.1288 3.49831C14.3201 3.68892 14.6821 3.68786 14.8703 3.49852C14.8985 3.4708 14.9228 3.44055 14.9438 3.40776C15.1877 3.68448 15.4151 3.98066 15.6218 4.29143C15.5852 4.30307 15.5497 4.31851 15.5164 4.33798C15.3952 4.40779 15.3083 4.52097 15.2719 4.65658C15.2355 4.79219 15.2541 4.93372 15.3239 5.05494C15.4159 5.2153 15.5928 5.31495 15.7853 5.31495C15.8767 5.31495 15.9652 5.29147 16.0413 5.24725C16.0756 5.22736 16.1073 5.20409 16.1357 5.17786C16.3041 5.51529 16.4481 5.86034 16.5653 6.20751C16.5254 6.20878 16.4852 6.2147 16.4458 6.22528C16.1663 6.30017 15.9998 6.58873 16.0747 6.86841C16.1458 7.13624 16.4471 7.31205 16.7174 7.23927C16.7566 7.22891 16.7936 7.21431 16.8287 7.19569C16.9026 7.56232 16.9512 7.93339 16.9743 8.30256C16.9356 8.29367 16.8958 8.28902 16.8554 8.28881C16.5664 8.28923 16.3311 8.52469 16.3311 8.81326C16.3305 8.95352 16.3849 9.08532 16.4841 9.18454C16.6117 9.31232 16.8 9.36521 16.9736 9.32522C16.9508 9.69524 16.9017 10.0659 16.8281 10.4315C16.793 10.4126 16.7557 10.398 16.717 10.3877C16.6743 10.3762 16.629 10.3707 16.5827 10.3707C16.344 10.3707 16.1355 10.5311 16.0754 10.7594C16.0381 10.8946 16.0563 11.0363 16.1264 11.1586C16.196 11.28 16.3094 11.3665 16.445 11.4025C16.4839 11.4131 16.5239 11.419 16.5641 11.4203C16.4462 11.7685 16.3024 12.114 16.1342 12.4508C16.1056 12.4243 16.0741 12.4008 16.04 12.381C15.7955 12.2407 15.4625 12.3327 15.3237 12.5726C15.2535 12.6941 15.2349 12.8356 15.2708 12.9712C15.307 13.1072 15.3939 13.2206 15.516 13.2911C15.549 13.3099 15.5841 13.3247 15.6207 13.3357C15.5509 13.4396 15.4771 13.5441 15.3973 13.6518L15.2721 13.8206H16.0601L16.0917 13.7745C17.0947 12.3073 17.625 10.592 17.625 8.81368C17.6255 6.46286 16.7079 4.2506 15.0415 2.58417ZM15.9484 13.6088H15.6893C15.761 13.5075 15.8281 13.4074 15.8924 13.3065L16.0066 13.1273L15.769 13.1453C15.7159 13.1453 15.6647 13.132 15.6212 13.1072C15.5486 13.0653 15.4968 12.9974 15.4754 12.9166C15.4536 12.8354 15.465 12.7508 15.5067 12.6782C15.5896 12.5356 15.7881 12.4798 15.9341 12.564C15.9869 12.5946 16.0295 12.6401 16.0572 12.6955L16.1496 12.8809L16.2455 12.6977C16.4792 12.2515 16.6722 11.7888 16.8186 11.3225L16.8818 11.1211L16.6825 11.1912C16.6244 11.2117 16.5611 11.2144 16.5 11.1979C16.4187 11.1763 16.3515 11.1249 16.3102 11.0528C16.2685 10.9798 16.2575 10.8956 16.2799 10.814C16.3159 10.6773 16.4405 10.5819 16.5831 10.5819C16.611 10.5819 16.639 10.5855 16.6633 10.5918C16.7223 10.6075 16.7754 10.6409 16.8171 10.6885L16.9546 10.8457L17.0001 10.6417C17.1084 10.156 17.1736 9.65948 17.1943 9.16592L17.2028 8.95881L17.0301 9.07368C16.9064 9.15513 16.7371 9.13757 16.6341 9.03433C16.5753 8.97552 16.5429 8.89703 16.5431 8.81304C16.5431 8.64062 16.6836 8.49994 16.8556 8.49973C16.9178 8.49994 16.9781 8.51856 17.0299 8.55325L17.203 8.6694L17.1945 8.46123C17.1742 7.96936 17.109 7.47283 17.0007 6.98583L16.9557 6.78337L16.8184 6.93844C16.7771 6.98498 16.7234 7.01798 16.6631 7.03427C16.5012 7.0768 16.3216 6.9725 16.2795 6.81341C16.2347 6.64628 16.3341 6.47386 16.5008 6.42922C16.5628 6.41272 16.6261 6.41547 16.6842 6.43557L16.8827 6.50411L16.8198 6.30398C16.6743 5.83982 16.4816 5.37799 16.2476 4.93097L16.1513 4.74755L16.0591 4.93288C16.0318 4.98746 15.9893 5.03273 15.9355 5.06362C15.7968 5.14422 15.5863 5.08625 15.5078 4.94917C15.4661 4.8766 15.4549 4.79198 15.4767 4.71095C15.4987 4.62993 15.5503 4.56244 15.6226 4.52076C15.67 4.49326 15.7238 4.47887 15.7724 4.47866L16.0028 4.49178L15.8932 4.31957C15.6254 3.899 15.3212 3.50233 14.9888 3.14078L14.849 2.98888L14.8075 3.19113C14.795 3.25057 14.7656 3.30473 14.7216 3.34853C14.6108 3.46002 14.391 3.45959 14.2788 3.34831C14.1572 3.22625 14.1574 3.02717 14.2801 2.90468C14.3224 2.86194 14.3766 2.83275 14.4364 2.82048L14.6389 2.7788L14.4866 2.63896C14.1255 2.30724 13.7296 2.00345 13.3103 1.73625L13.1375 1.62603L13.1481 1.83081C13.1512 1.89238 13.1364 1.95309 13.1057 2.00641C13.0281 2.14201 12.8168 2.2004 12.6784 2.12086C12.5286 2.03412 12.4772 1.84203 12.5637 1.69224C12.5934 1.64105 12.6395 1.59916 12.6974 1.5706L12.8842 1.47878L12.7 1.38189C12.2549 1.14812 11.7916 0.954757 11.323 0.807725L11.1224 0.744681L11.1914 0.943333C11.2119 1.00193 11.2136 1.0654 11.1969 1.1276C11.155 1.28648 10.9777 1.3931 10.8139 1.34825C10.647 1.30319 10.5472 1.13077 10.5916 0.9647C10.607 0.90758 10.6417 0.854479 10.6919 0.810686L10.8489 0.673386L10.6453 0.627901C10.159 0.51895 9.6616 0.453367 9.16634 0.432846L8.95817 0.424172L9.07432 0.597437C9.1088 0.649057 9.12699 0.708928 9.12699 0.771126C9.12699 0.943756 8.98631 1.08444 8.81347 1.08444C8.64084 1.08444 8.50036 0.943756 8.50036 0.771126C8.50036 0.709139 8.51856 0.649057 8.55325 0.597437L8.66897 0.424384L8.4608 0.433057C7.96597 0.453578 7.46839 0.519161 6.98159 0.628113L6.77786 0.673598L6.93505 0.810898C6.98498 0.854479 7.01946 0.90758 7.03469 0.964065C7.05649 1.04551 7.04527 1.12993 7.0036 1.20186C6.9615 1.27442 6.89401 1.32625 6.81341 1.34783C6.6503 1.39056 6.47174 1.28521 6.42943 1.12654C6.41314 1.0654 6.41547 1.00215 6.43578 0.943121L6.50453 0.744681L6.30419 0.807725C5.83665 0.954757 5.37355 1.14791 4.92759 1.38189L4.74311 1.47878L4.93013 1.5706C4.98809 1.59916 5.03442 1.64105 5.06383 1.69203C5.15036 1.84139 5.09895 2.0337 4.94959 2.12022C4.81038 2.19977 4.59925 2.14201 4.52097 2.00577C4.49072 1.95331 4.47676 1.89301 4.48014 1.83124L4.49178 1.62518L4.31767 1.73604C3.89752 2.00387 3.50148 2.30766 3.14099 2.63917L2.9893 2.77859L3.19091 2.82048C3.251 2.83317 3.30537 2.86237 3.3481 2.9051C3.47017 3.02717 3.47017 3.22646 3.3481 3.34874C3.23661 3.46044 3.01596 3.46002 2.90489 3.34895C2.86173 3.30558 2.83254 3.25121 2.82048 3.19155L2.77901 2.98888L2.63896 3.14099C2.30745 3.50127 2.00302 3.89794 1.73434 4.31978L1.62116 4.49749L1.83124 4.48205C1.83885 4.48162 1.84647 4.48036 1.8488 4.47887C1.90317 4.47887 1.95711 4.49347 2.00493 4.52097C2.07749 4.56286 2.12932 4.63035 2.1509 4.71116C2.17269 4.79219 2.16169 4.8766 2.11959 4.94895C2.04068 5.08541 1.82891 5.14295 1.69161 5.06404C1.6383 5.03315 1.59556 4.98788 1.56827 4.93309L1.47582 4.74797L1.37978 4.93118C1.14622 5.37672 0.953699 5.83855 0.807513 6.30355L0.744892 6.50305L0.94291 6.43535C1.00193 6.41504 1.06413 6.41293 1.12591 6.42901C1.29283 6.47365 1.39247 6.64585 1.34804 6.81256C1.30488 6.9725 1.12548 7.07806 0.964489 7.0347C0.90356 7.01819 0.850036 6.9854 0.80984 6.93907L0.67254 6.78231L0.627267 6.98583C0.519373 7.46944 0.454213 7.96555 0.43348 8.4608L0.424807 8.66918L0.598072 8.55283C0.64948 8.51834 0.709351 8.50015 0.770914 8.50015C0.943544 8.50015 1.08423 8.64062 1.08444 8.81304C1.08444 8.98546 0.943756 9.12594 0.771126 9.12594C0.709139 9.12594 0.649057 9.10774 0.597437 9.07347L0.424595 8.95838L0.433269 9.16571C0.45379 9.66012 0.519161 10.1564 0.627478 10.6411L0.672751 10.844L0.810052 10.6879C0.851306 10.6409 0.904406 10.6079 0.964489 10.592C1.11914 10.5484 1.30383 10.65 1.34825 10.814C1.39289 10.9811 1.29346 11.1533 1.1257 11.1981C1.06752 11.214 1.00405 11.2117 0.944179 11.1903L0.744469 11.1194L0.807936 11.3217C0.954122 11.788 1.14706 12.2504 1.38083 12.696L1.47688 12.8787L1.56933 12.6941C1.59683 12.6391 1.63936 12.5938 1.69224 12.5633C1.83547 12.4802 2.03751 12.5341 2.12044 12.678C2.16211 12.7501 2.17333 12.8343 2.15154 12.9156C2.12974 12.9966 2.07812 13.0641 2.00598 13.1057C1.96219 13.1311 1.91036 13.1449 1.85599 13.1449L1.6218 13.1288L1.73498 13.3063C1.7976 13.4047 1.86466 13.5045 1.93765 13.6082H1.6768C0.718025 12.1863 0.211557 10.5294 0.211557 8.81283C0.211557 4.07015 4.07015 0.211557 8.81283 0.211557C11.1067 0.211557 13.2657 1.10729 14.8919 2.73374C16.5184 4.36019 17.4139 6.51934 17.4137 8.81347C17.4137 10.5305 16.9074 12.1872 15.9484 13.6088Z" fill="white"/>
<path d="M6.06284 14.1884H11.5635V12.3267H6.06284V14.1884ZM6.27439 12.5382H11.352V13.9768H6.27439V12.5382Z" fill="white"/>
<path d="M7.02518 13.6796H7.75441V12.8345H7.02518V13.6796ZM7.23673 13.046H7.54286V13.4681H7.23673V13.046Z" fill="white"/>
<path d="M7.97403 13.6796H8.70327V12.8345H7.97403V13.6796ZM8.18559 13.046H8.49171V13.4681H8.18559V13.046Z" fill="white"/>
<path d="M8.92252 13.6796H9.65175V12.8345H8.92252V13.6796ZM9.13407 13.046H9.4402V13.4681H9.13407V13.046Z" fill="white"/>
<path d="M9.871 13.6796H10.6007V12.8345H9.871V13.6796ZM10.0826 13.046H10.3891V13.4681H10.0826V13.046Z" fill="white"/>
</svg>
