<svg width="30" height="30" viewBox="0 0 30 30" fill="none" xmlns="http://www.w3.org/2000/svg">
<path fill-rule="evenodd" clip-rule="evenodd" d="M15 0C6.71573 0 0 6.71573 0 15C0 23.2843 6.71573 30 15 30C23.2843 30 30 23.2843 30 15C30 6.71573 23.2843 0 15 0ZM15 8.25C15.5523 8.25 16 8.69771 16 9.25V14H20.75C21.3023 14 21.75 14.4477 21.75 15C21.75 15.5523 21.3023 16 20.75 16H16V20.75C16 21.3023 15.5523 21.75 15 21.75C14.4477 21.75 14 21.3023 14 20.75V16H9.25C8.69771 16 8.25 15.5523 8.25 15C8.25 14.4477 8.69771 14 9.25 14H14V9.25C14 8.69771 14.4477 8.25 15 8.25Z" fill="#339999"/>
</svg>
