<svg width="40" height="40" viewBox="0 0 40 40" fill="none" xmlns="http://www.w3.org/2000/svg">
<path d="M20 15.5C16.686 15.5 14 18.1872 14 21.5C14 24.814 16.686 27.5 20 27.5C23.3132 27.5 26 24.814 26 21.5C26 18.1872 23.3132 15.5 20 15.5ZM36 9.5H31.2C30.54 9.5 29.8288 8.988 29.6204 8.3616L28.3796 4.638C28.1704 4.012 27.46 3.5 26.8 3.5H13.2C12.54 3.5 11.8288 4.012 11.6204 4.6384L10.3796 8.362C10.1704 8.988 9.46 9.5 8.8 9.5H4C1.8 9.5 0 11.3 0 13.5V31.5C0 33.7 1.8 35.5 4 35.5H36C38.2 35.5 40 33.7 40 31.5V13.5C40 11.3 38.2 9.5 36 9.5ZM20 31.5C14.4772 31.5 10 27.0228 10 21.5C10 15.9776 14.4772 11.5 20 11.5C25.522 11.5 30 15.9776 30 21.5C30 27.0228 25.522 31.5 20 31.5ZM34.6 16.2972C33.8272 16.2972 33.2 15.6708 33.2 14.8972C33.2 14.1244 33.8272 13.4972 34.6 13.4972C35.3736 13.4972 36 14.1244 36 14.8972C36 15.6708 35.3732 16.2972 34.6 16.2972Z" fill="#D5DDE0"/>
</svg>
