<svg width="30" height="30" viewBox="0 0 30 30" fill="none" xmlns="http://www.w3.org/2000/svg">
<path fill-rule="evenodd" clip-rule="evenodd" d="M15 30C23.2843 30 30 23.2843 30 15C30 6.71573 23.2843 0 15 0C6.71573 0 0 6.71573 0 15C0 23.2843 6.71573 30 15 30ZM19.8472 17.0423L22.1637 19.3643C22.6238 19.8269 22.6101 20.5928 22.1329 21.0722L21.4715 21.7213L21.4572 21.7086C21.178 21.9275 20.8561 22.1106 20.5117 22.2455C20.1911 22.3702 19.8757 22.4491 19.5465 22.4885C19.3954 22.5046 15.8922 22.8337 11.5451 18.477C8.40025 15.325 7.24145 13.0022 7.54733 10.4607C7.58306 10.1437 7.66119 9.82744 7.78668 9.49599C7.92281 9.14778 8.10574 8.82488 8.32466 8.54491L8.30682 8.52716L8.95969 7.86905C9.43791 7.38962 10.2024 7.37563 10.6627 7.83691L12.9792 10.1592C13.4395 10.6211 13.4263 11.3867 12.9481 11.8662L12.563 12.2526L11.7798 13.0365C11.8148 13.098 11.8503 13.1623 11.887 13.2288C11.893 13.2398 11.8991 13.2509 11.9053 13.262L11.9076 13.2662C12.317 14.005 12.8771 15.0157 13.9397 16.0805C15.0012 17.1452 16.0099 17.7062 16.7469 18.1154C16.8271 18.1606 16.9034 18.2031 16.9772 18.2438L18.1442 17.0744C18.6217 16.5957 19.3858 16.5817 19.8472 17.0423Z" fill="#D5DDE0"/>
</svg>
