<svg width="30" height="30" viewBox="0 0 30 30" fill="none" xmlns="http://www.w3.org/2000/svg">
<path fill-rule="evenodd" clip-rule="evenodd" d="M15 30C23.2843 30 30 23.2843 30 15C30 6.71573 23.2843 0 15 0C6.71573 0 0 6.71573 0 15C0 23.2843 6.71573 30 15 30ZM21.0282 10.9847V9.17019C21.7449 9.19179 22.3338 9.78481 22.3338 10.5137V21.1475C22.3338 21.8889 21.7308 22.5 20.9893 22.5H9.01083C8.26822 22.5 7.66632 21.8901 7.66632 21.1475V10.5137C7.66632 9.78481 8.25523 9.19179 8.9719 9.17019V10.9847C8.9719 11.8048 9.63719 12.4657 10.4572 12.4657H11.3944C12.2143 12.4657 12.8884 11.8048 12.8884 10.9847V9.16367H17.1117V10.9847C17.1117 11.8048 17.7858 12.4657 18.6059 12.4657H19.5429C20.3629 12.4657 21.0282 11.8048 21.0282 10.9847ZM10.4538 11.493H11.3807C11.662 11.493 11.8901 11.2652 11.8901 10.9839V8.00926C11.8901 7.72791 11.662 7.5 11.3807 7.5H10.4538C10.1725 7.5 9.94444 7.72791 9.94444 8.00926V10.9839C9.94444 11.2652 10.1725 11.493 10.4538 11.493ZM19.5209 11.493H18.5941C18.3128 11.493 18.0847 11.2652 18.0847 10.9839V8.00926C18.0847 7.72791 18.3128 7.5 18.5941 7.5H19.5209C19.8021 7.5 20.0302 7.72791 20.0301 8.00926V10.9839C20.0301 11.2652 19.802 11.493 19.5209 11.493Z" fill="#D5DDE0"/>
</svg>
