<svg width="30" height="30" viewBox="0 0 30 30" fill="none" xmlns="http://www.w3.org/2000/svg">
<path fill-rule="evenodd" clip-rule="evenodd" d="M14.9999 30.0001C23.2841 30.0001 29.9999 23.2844 29.9999 15.0001C29.9999 6.71582 23.2841 9.13668e-05 14.9999 9.1433e-05C6.71561 9.14991e-05 -0.000122017 6.71582 -0.000121951 15.0001C-0.000121884 23.2844 6.71561 30.0001 14.9999 30.0001ZM9.29296 10.7897L13.5858 15.0825L9.29277 19.3755C8.90225 19.766 8.90225 20.3992 9.29277 20.7897C9.6833 21.1802 10.3165 21.1802 10.707 20.7897L15.0825 16.4142L19.2928 20.6245C19.6833 21.015 20.3165 21.015 20.707 20.6245C21.0975 20.234 21.0975 19.6008 20.707 19.2103L16.4142 14.9174L20.7072 10.6244C21.0977 10.2339 21.0977 9.60075 20.7072 9.21022C20.3166 8.8197 19.6835 8.8197 19.293 9.21022L14.9175 13.5857L10.7072 9.37545C10.3166 8.98492 9.68348 8.98492 9.29296 9.37545C8.90243 9.76597 8.90243 10.3991 9.29296 10.7897Z" fill="#339999"/>
</svg>
