<svg width="30" height="30" viewBox="0 0 30 30" fill="none" xmlns="http://www.w3.org/2000/svg">
<path fill-rule="evenodd" clip-rule="evenodd" d="M15 30C23.2843 30 30 23.2843 30 15C30 6.71573 23.2843 0 15 0C6.71573 0 0 6.71573 0 15C0 23.2843 6.71573 30 15 30ZM19.8093 16.7H15V13.3H23.5V15C23.5 19.6869 19.6869 23.5 15 23.5C10.3131 23.5 6.5 19.6869 6.5 15C6.5 10.3131 10.3131 6.5 15 6.5C17.0417 6.5 19.0069 7.2344 20.5369 8.5672L18.3031 11.1308C17.3919 10.3369 16.2189 9.9 15 9.9C12.1882 9.9 9.9 12.1882 9.9 15C9.9 17.8118 12.1882 20.1 15 20.1C17.2168 20.1 19.1072 18.6788 19.8093 16.7Z" fill="#D5DDE0"/>
</svg>
