<svg width="42" height="40" viewBox="0 0 42 40" fill="none" xmlns="http://www.w3.org/2000/svg">
<rect x="2" width="40" height="40" fill="white" fill-opacity="0.01"/>
<g filter="url(#filter0_d)">
<circle cx="18.5" cy="15.5" r="3.5" fill="white"/>
</g>
<path fill-rule="evenodd" clip-rule="evenodd" d="M11 19.8682V10C11 9.44772 11.4477 9 12 9H32C32.5523 9 33 9.44772 33 10V30C33 30.5523 32.5523 31 32 31H12C11.5642 31 11.1936 30.7213 11.0566 30.3324L16.9781 23.9664L19.6798 26.5146C20.0912 26.9026 20.7423 26.8726 21.1162 26.4483L26.3804 20.4745L30.0123 24.2371C30.3959 24.6345 31.0289 24.6456 31.4263 24.2621C31.8237 23.8785 31.8349 23.2454 31.4513 22.8481L27.0665 18.3055C26.6608 17.8853 25.9829 17.9006 25.5967 18.3389L20.2995 24.3499L17.6178 21.8206C17.2141 21.4398 16.5775 21.4606 16.1995 21.867L9.2678 29.3189C9.08858 29.5116 8.99994 29.7561 9 30C9 31.6569 10.3431 33 12 33H32C33.6569 33 35 31.6569 35 30V10C35 8.34315 33.6569 7 32 7H12C10.3431 7 9 8.34315 9 10V19.8682H11ZM18.5 19C20.433 19 22 17.433 22 15.5C22 13.567 20.433 12 18.5 12C16.567 12 15 13.567 15 15.5C15 17.433 16.567 19 18.5 19ZM18.5 17C17.6716 17 17 16.3284 17 15.5C17 14.6716 17.6716 14 18.5 14C19.3284 14 20 14.6716 20 15.5C20 16.3284 19.3284 17 18.5 17Z" fill="#3E4958"/>
<defs>
<filter id="filter0_d" x="0" y="1" width="37" height="37" filterUnits="userSpaceOnUse" color-interpolation-filters="sRGB">
<feFlood flood-opacity="0" result="BackgroundImageFix"/>
<feColorMatrix in="SourceAlpha" type="matrix" values="0 0 0 0 0 0 0 0 0 0 0 0 0 0 0 0 0 0 127 0"/>
<feOffset dy="4"/>
<feGaussianBlur stdDeviation="7.5"/>
<feColorMatrix type="matrix" values="0 0 0 0 0 0 0 0 0 0 0 0 0 0 0 0 0 0 0.15 0"/>
<feBlend mode="normal" in2="BackgroundImageFix" result="effect1_dropShadow"/>
<feBlend mode="normal" in="SourceGraphic" in2="effect1_dropShadow" result="shape"/>
</filter>
</defs>
</svg>
