<svg width="40" height="40" viewBox="0 0 40 40" fill="none" xmlns="http://www.w3.org/2000/svg">
<path d="M0 0H40V40H0V0Z" fill="white" fill-opacity="0.01"/>
<path fill-rule="evenodd" clip-rule="evenodd" d="M11.7246 6C7.45844 6 4 9.45844 4 13.7246V15C4 15.5523 4.44772 16 5 16C5.55228 16 6 15.5523 6 15V13.7246C6 10.563 8.56301 8 11.7246 8H12.375H14C14.5523 8 15 7.55228 15 7C15 6.44772 14.5523 6 14 6H12.375H11.7246ZM28.2754 6C32.5416 6 36 9.45844 36 13.7246V15C36 15.5523 35.5523 16 35 16C34.4477 16 34 15.5523 34 15V13.7246C34 10.563 31.437 8 28.2754 8H27.625H26C25.4477 8 25 7.55228 25 7C25 6.44772 25.4477 6 26 6H27.625H28.2754ZM36 26.2754C36 30.5416 32.5416 34 28.2754 34H27.625H26C25.4477 34 25 33.5523 25 33C25 32.4477 25.4477 32 26 32H27.625H28.2754C31.437 32 34 29.437 34 26.2754V25C34 24.4477 34.4477 24 35 24C35.5523 24 36 24.4477 36 25V26.2754ZM11.7246 34C7.45844 34 4 30.5416 4 26.2754V25C4 24.4477 4.44772 24 5 24C5.55228 24 6 24.4477 6 25V26.2754C6 29.437 8.56301 32 11.7246 32H12.375H14C14.5523 32 15 32.4477 15 33C15 33.5523 14.5523 34 14 34H12.375H11.7246Z" fill="#3E4958"/>
<path fill-rule="evenodd" clip-rule="evenodd" d="M16 15C16 14.4477 15.5523 14 15 14C14.4477 14 14 14.4477 14 15V17.9951C14 18.5474 14.4477 18.9951 15 18.9951C15.5523 18.9951 16 18.5474 16 17.9951V15ZM26.9631 15C26.9631 14.4477 26.5154 14 25.9631 14C25.4108 14 24.9631 14.4477 24.9631 15V17.9951C24.9631 18.5474 25.4108 18.9951 25.9631 18.9951C26.5154 18.9951 26.9631 18.5474 26.9631 17.9951V15ZM20.8771 14C21.4294 14 21.8771 14.4477 21.8771 15V19.5774C21.8771 21.1908 20.5692 22.4987 18.9558 22.4987V20.4987C19.4646 20.4987 19.8771 20.0862 19.8771 19.5774V15C19.8771 14.4477 20.3248 14 20.8771 14ZM25.6399 24.9147C25.966 24.469 25.8691 23.8433 25.4234 23.5172C24.9777 23.1911 24.352 23.288 24.0258 23.7337C23.4105 24.5746 22.1613 25.1675 20.6923 25.2107C19.246 25.2532 17.7666 24.7528 16.7543 23.6485C16.3811 23.2414 15.7486 23.2139 15.3415 23.5871C14.9343 23.9603 14.9068 24.5928 15.28 24.9999C16.7542 26.6082 18.835 27.2662 20.7511 27.2098C22.6445 27.1541 24.5598 26.3908 25.6399 24.9147Z" fill="#3E4958"/>
</svg>
