<svg width="22" height="24" viewBox="0 0 22 24" fill="none" xmlns="http://www.w3.org/2000/svg">
<path d="M19 13.9943C18.7348 13.9943 18.4804 13.8889 18.2929 13.7014C18.1054 13.5138 18 13.2595 18 12.9943V8.49426C18.0248 6.93631 17.5442 5.41225 16.6302 4.15033C15.7162 2.88841 14.418 1.95653 12.93 1.49426C12.8181 1.06626 12.5675 0.687426 12.2174 0.417047C11.8673 0.146667 11.4374 0 10.995 0C10.5526 0 10.1227 0.146667 9.7726 0.417047C9.42247 0.687426 9.17186 1.06626 9.06 1.49426C8.06914 1.78857 7.1568 2.30112 6.39 2.99426C5.63839 3.66398 5.0369 4.48508 4.625 5.40367C4.2131 6.32225 4.00011 7.31755 4 8.32426V12.9943C4 13.2595 3.89464 13.5138 3.70711 13.7014C3.51957 13.8889 3.26522 13.9943 3 13.9943C2.20435 13.9943 1.44129 14.3103 0.87868 14.8729C0.316071 15.4355 0 16.1986 0 16.9943C0 17.7899 0.316071 18.553 0.87868 19.1156C1.44129 19.6782 2.20435 19.9943 3 19.9943H6.1C6.32952 21.1245 6.94273 22.1407 7.83574 22.8706C8.72875 23.6005 9.84664 23.9993 11 23.9993C12.1534 23.9993 13.2712 23.6005 14.1643 22.8706C15.0573 22.1407 15.6705 21.1245 15.9 19.9943H19C19.7956 19.9943 20.5587 19.6782 21.1213 19.1156C21.6839 18.553 22 17.7899 22 16.9943C22 16.1986 21.6839 15.4355 21.1213 14.8729C20.5587 14.3103 19.7956 13.9943 19 13.9943ZM11 21.9943C10.3811 21.9925 9.7778 21.7994 9.27293 21.4413C8.76807 21.0833 8.38631 20.5778 8.18 19.9943H13.81C13.6043 20.5762 13.224 21.0805 12.7212 21.4384C12.2183 21.7964 11.6172 21.9905 11 21.9943ZM19 17.9943H3C2.73478 17.9943 2.48043 17.8889 2.29289 17.7014C2.10536 17.5138 2 17.2595 2 16.9943C2 16.729 2.10536 16.4747 2.29289 16.2872C2.48043 16.0996 2.73478 15.9943 3 15.9943C3.79565 15.9943 4.55871 15.6782 5.12132 15.1156C5.68393 14.553 6 13.7899 6 12.9943V8.32426C5.99959 7.59908 6.15263 6.88202 6.44907 6.2202C6.74551 5.55837 7.17864 4.96677 7.72 4.48426C8.365 3.90615 9.15172 3.50934 10 3.33426C10.0698 3.34163 10.1402 3.34163 10.21 3.33426C10.4416 3.29787 10.6755 3.27782 10.91 3.27426C11.1132 3.26225 11.3168 3.26225 11.52 3.27426C12.7735 3.45155 13.9195 4.07915 14.7439 5.0398C15.5684 6.00044 16.0149 7.22841 16 8.49426V12.9943C16 13.7899 16.3161 14.553 16.8787 15.1156C17.4413 15.6782 18.2044 15.9943 19 15.9943C19.2652 15.9943 19.5196 16.0996 19.7071 16.2872C19.8946 16.4747 20 16.729 20 16.9943C20 17.2595 19.8946 17.5138 19.7071 17.7014C19.5196 17.8889 19.2652 17.9943 19 17.9943Z" fill="#3E4958"/>
<path d="M11 4.99414C10.7348 4.99414 10.4804 5.0995 10.2929 5.28703C10.1054 5.47457 10 5.72892 10 5.99414C10 6.25936 10.1054 6.51371 10.2929 6.70125C10.4804 6.88878 10.7348 6.99414 11 6.99414C12.08 6.99414 13 8.36414 13 9.99414C13 10.2594 13.1054 10.5137 13.2929 10.7012C13.4804 10.8888 13.7348 10.9941 14 10.9941C14.2652 10.9941 14.5196 10.8888 14.7071 10.7012C14.8946 10.5137 15 10.2594 15 9.99414C15 7.23414 13.21 4.99414 11 4.99414Z" fill="#3E4958"/>
</svg>
