<svg width="30" height="30" viewBox="0 0 30 30" fill="none" xmlns="http://www.w3.org/2000/svg">
<path fill-rule="evenodd" clip-rule="evenodd" d="M15 30C23.2843 30 30 23.2843 30 15C30 6.71573 23.2843 0 15 0C6.71573 0 0 6.71573 0 15C0 23.2843 6.71573 30 15 30ZM21.897 10H8.46309C7.40497 10 6.5 10.851 6.5 11.9074V18H23.7892V11.9074C23.7892 10.851 22.9551 10 21.897 10ZM11.1948 15.2529C10.8197 15.2529 10.4801 15.1039 10.2297 14.8635C9.97923 15.1039 9.63921 15.2529 9.26499 15.2529C8.49536 15.2529 7.87069 14.6303 7.87069 13.8605C7.87069 13.0917 8.49487 12.4685 9.26499 12.4685C9.63969 12.4685 9.97971 12.6171 10.2297 12.8575C10.4801 12.6171 10.8197 12.4685 11.1948 12.4685C11.965 12.4685 12.5891 13.0917 12.5891 13.8605C12.5891 14.6303 11.965 15.2529 11.1948 15.2529ZM6.5 19.6125C6.5 20.6689 7.40448 21.531 8.46309 21.531H21.8969C22.9551 21.531 23.7897 20.6689 23.7897 19.6125V19.5H6.5V19.6125Z" fill="#339999"/>
</svg>
