<svg width="30" height="30" viewBox="0 0 30 30" fill="none" xmlns="http://www.w3.org/2000/svg">
<path fill-rule="evenodd" clip-rule="evenodd" d="M30 15C30 23.2843 23.2843 30 15 30C6.71573 30 0 23.2843 0 15C0 6.71573 6.71573 0 15 0C23.2843 0 30 6.71573 30 15ZM8.8297 12.6989C9.0229 12.8352 9.60527 13.2401 10.5769 13.9134C11.5485 14.5867 12.2928 15.1051 12.8098 15.4686C12.8666 15.5085 12.9873 15.5951 13.172 15.7286C13.3566 15.8622 13.5101 15.9702 13.6322 16.0526C13.7543 16.1349 13.902 16.2273 14.0754 16.3295C14.2487 16.4317 14.4121 16.5085 14.5655 16.5594C14.719 16.6106 14.861 16.6361 14.9917 16.6361H15.0002H15.0088C15.1395 16.6361 15.2816 16.6106 15.435 16.5594C15.5884 16.5085 15.7519 16.4316 15.9251 16.3295C16.0983 16.2271 16.246 16.1349 16.3682 16.0526C16.4904 15.9702 16.6437 15.8622 16.8284 15.7286C17.013 15.595 17.1339 15.5085 17.1907 15.4686C17.7133 15.1051 19.043 14.1817 21.1793 12.6987C21.594 12.409 21.9406 12.0595 22.2189 11.6504C22.4975 11.2415 22.6366 10.8125 22.6366 10.3637C22.6366 9.98862 22.5016 9.66757 22.2317 9.40055C21.9618 9.13347 21.6422 9 21.273 9H8.7274C8.28992 9 7.95326 9.14771 7.71746 9.44312C7.48169 9.73859 7.36381 10.1079 7.36381 10.5511C7.36381 10.909 7.52011 11.2969 7.83257 11.7145C8.145 12.1321 8.47748 12.4603 8.8297 12.6989ZM17.54 16.9819C18.5058 16.2829 19.9208 15.3027 21.7842 14.0415C22.1083 13.8199 22.3923 13.5726 22.6367 13.3V20.0669C22.6367 20.4422 22.5033 20.7629 22.2361 21.0301C21.9691 21.2972 21.648 21.4307 21.2731 21.4307H8.72749C8.35246 21.4307 8.03138 21.2972 7.76436 21.0301C7.49728 20.763 7.36381 20.4421 7.36381 20.0669V13.3C7.61382 13.5784 7.90075 13.8257 8.2247 14.0415C10.2815 15.4391 11.6934 16.4194 12.4605 16.9819C12.7843 17.2204 13.0472 17.4066 13.2488 17.5401C13.4505 17.6736 13.719 17.8099 14.0542 17.9491C14.3894 18.0884 14.7019 18.1579 14.9917 18.1579H15.0002H15.0089C15.2988 18.1579 15.6111 18.0884 15.9463 17.9491C16.2816 17.8099 16.5499 17.6736 16.7517 17.5401C16.9535 17.4066 17.2162 17.2204 17.54 16.9819Z" fill="#D5DDE0"/>
</svg>
