<svg width="14" height="18" viewBox="0 0 14 18" fill="none" xmlns="http://www.w3.org/2000/svg">
<path d="M13.8808 3.01473L11.3049 0.510831C11.2148 0.438711 11.0888 0.384766 10.9627 0.384766H1.07377C0.803654 0.384766 0.605469 0.58295 0.605469 0.83508V17.0249C0.605469 17.0971 0.62345 17.169 0.659414 17.2231C0.731534 17.3672 0.87558 17.4573 1.03761 17.4753L2.12482 16.3088L3.68536 17.7073C3.77546 17.7794 3.91951 17.7794 3.99163 17.7073L5.45065 16.3088L7.16181 17.7253C7.25191 17.7974 7.37798 17.7974 7.46808 17.7253L9.10731 16.3088L10.6564 17.7253C10.7465 17.8154 10.8906 17.7974 10.9807 17.7253L12.4757 16.3088L13.5925 17.4573C13.7545 17.4393 13.8987 17.3312 13.9527 17.1872C13.9707 17.1332 13.9886 17.0611 13.9886 17.007V3.33878C14.0248 3.21272 13.9707 3.10463 13.8808 3.01473ZM13.5385 16.7303L12.6379 15.7496C12.5478 15.6775 12.4038 15.6775 12.3316 15.7676L10.8726 17.1906H10.8005L9.30549 15.8037C9.21539 15.7316 9.08933 15.7316 8.99922 15.8037L7.41413 17.1906H7.30605L5.64884 15.7496C5.55874 15.6775 5.41469 15.6775 5.34257 15.7676L3.91951 17.2086H3.8294L2.24431 15.8035C2.15421 15.7314 2.02815 15.7314 1.93804 15.8035L1.12752 16.7417V0.83508H10.494V3.33878C10.494 3.59091 10.7102 3.7891 10.9623 3.7891H13.484C13.502 3.7891 13.52 3.7891 13.5379 3.7891V16.7303H13.5385Z" fill="white"/>
<path d="M9.67096 6.08057H4.93502C4.78459 6.08057 4.66278 6.20257 4.66278 6.353C4.66278 6.50343 4.78478 6.62543 4.93502 6.62543H9.67077C9.82119 6.62543 9.9432 6.50343 9.9432 6.353C9.9432 6.20257 9.82119 6.08057 9.67096 6.08057Z" fill="white"/>
<path d="M9.67096 8.14844H4.93502C4.78459 8.14844 4.66278 8.27044 4.66278 8.42087C4.66278 8.5713 4.78478 8.69311 4.93502 8.69311H9.67077C9.82119 8.69311 9.9432 8.5713 9.9432 8.42087C9.9432 8.27044 9.82119 8.14844 9.67096 8.14844Z" fill="white"/>
<path d="M9.67096 10.2163H4.93502C4.78459 10.2163 4.66278 10.3383 4.66278 10.4887C4.66278 10.6392 4.78478 10.7612 4.93502 10.7612H9.67077C9.82119 10.7612 9.9432 10.6392 9.9432 10.4887C9.9432 10.3383 9.82119 10.2163 9.67096 10.2163Z" fill="white"/>
<path d="M9.67045 12.2837H7.17371C7.02328 12.2837 6.90128 12.4057 6.90128 12.5559C6.90128 12.7064 7.02328 12.8284 7.17371 12.8284H9.67026C9.82068 12.8284 9.94269 12.7064 9.94269 12.5559C9.94269 12.4055 9.82068 12.2837 9.67045 12.2837Z" fill="white"/>
</svg>
