<svg width="30" height="30" viewBox="0 0 30 30" fill="none" xmlns="http://www.w3.org/2000/svg">
<path fill-rule="evenodd" clip-rule="evenodd" d="M15 30C23.2843 30 30 23.2843 30 15C30 6.71573 23.2843 0 15 0C6.71573 0 0 6.71573 0 15C0 23.2843 6.71573 30 15 30ZM5.6405 13H6.5825C7.48528 9.1868 10.9109 6.34998 15 6.34998C19.7773 6.34998 23.65 10.2227 23.65 15C23.65 19.7772 19.7773 23.65 15 23.65C11.2828 23.65 8.11477 21.3055 6.89082 18.0168C6.76561 17.6804 6.93684 17.3061 7.27328 17.1809C7.60972 17.0557 7.98397 17.2269 8.10918 17.5634C9.14987 20.3597 11.8433 22.35 15 22.35C19.0593 22.35 22.35 19.0593 22.35 15C22.35 10.9407 19.0593 7.64998 15 7.64998C11.6342 7.64998 8.79608 9.91284 7.92523 13H7.94999L7.59916 15.3389C7.56075 15.5949 7.23777 15.6853 7.07201 15.4864L5.41004 13.4921C5.2472 13.2967 5.38615 13 5.6405 13ZM15 20C17.7614 20 20 17.7614 20 15C20 12.2386 17.7614 10 15 10C12.2386 10 9.99999 12.2386 9.99999 15C9.99999 17.7614 12.2386 20 15 20Z" fill="#339999"/>
</svg>
