<svg width="35" height="36" viewBox="0 0 35 36" fill="none" xmlns="http://www.w3.org/2000/svg">
<path d="M17.5 0C7.83649 0 0 8.06039 0 18C0 27.9396 7.83649 36 17.5 36C27.1635 36 35 27.9396 35 18C35 8.06039 27.1635 0 17.5 0ZM25.4903 14.0345C25.498 14.2116 25.5018 14.3896 25.5018 14.5684C25.5018 20.0278 21.4616 26.3232 14.0732 26.3235C11.8048 26.3235 9.69395 25.6396 7.91634 24.4677C8.23063 24.5058 8.55053 24.5248 8.87444 24.5248C10.7565 24.5248 12.4884 23.8645 13.8633 22.7563C12.1049 22.7227 10.6224 21.5283 10.1108 19.8866C10.3556 19.935 10.6075 19.9613 10.8657 19.9613C11.2323 19.9613 11.5874 19.9105 11.925 19.8158C10.087 19.4373 8.70247 17.7665 8.70247 15.7659C8.70247 15.7473 8.70247 15.7305 8.703 15.7132C9.24427 16.0227 9.86324 16.209 10.5223 16.2298C9.44374 15.4896 8.73478 14.2243 8.73478 12.7908C8.73478 12.0339 8.93372 11.3247 9.27872 10.7141C11.2595 13.2141 14.2198 14.8582 17.5582 15.0309C17.4893 14.7283 17.4538 14.413 17.4538 14.0889C17.4538 11.8081 19.2528 9.95773 21.471 9.95773C22.6264 9.95773 23.67 10.4601 24.403 11.2632C25.3181 11.0775 26.1774 10.7336 26.9536 10.2604C26.6532 11.2247 26.0166 12.0339 25.1872 12.5456C25.9998 12.4456 26.7742 12.2239 27.4938 11.8949C26.9563 12.7235 26.2746 13.4514 25.4903 14.0345Z" fill="#339999"/>
</svg>
