<svg width="17" height="17" viewBox="0 0 17 17" fill="none" xmlns="http://www.w3.org/2000/svg">
<path d="M8.4143 16.8286C13.0471 16.8286 16.8286 13.0471 16.8286 8.4143C16.8286 3.78148 13.0471 0 8.4143 0C3.78148 0 0 3.78148 0 8.4143C0 13.0471 3.78148 16.8286 8.4143 16.8286ZM8.4143 0.791934C12.6115 0.791934 16.0367 4.21705 16.0367 8.4143C16.0367 12.6115 12.6115 16.0367 8.4143 16.0367C4.21705 16.0367 0.791934 12.6115 0.791934 8.4143C0.791934 4.21705 4.21705 0.791934 8.4143 0.791934Z" fill="white"/>
<path d="M8.5922 8.86999L8.80998 8.51362V2.87109H8.01805V8.27604L4.37515 10.1371L4.73152 10.8498L8.5922 8.86999Z" fill="white"/>
</svg>
