<svg width="30" height="30" viewBox="0 0 30 30" fill="none" xmlns="http://www.w3.org/2000/svg">
<path fill-rule="evenodd" clip-rule="evenodd" d="M15 30C23.2843 30 30 23.2843 30 15C30 6.71573 23.2843 0 15 0C6.71573 0 0 6.71573 0 15C0 23.2843 6.71573 30 15 30ZM18.3097 8.82031C19.4681 8.82031 20.5336 9.28414 21.31 10.1263C22.0774 10.9586 22.5 12.0957 22.5 13.3281C22.5 14.5968 22.0274 15.7581 21.0124 16.9827C20.1044 18.0783 18.7996 19.1903 17.2887 20.4778L17.2885 20.478L17.2759 20.4887C16.7627 20.9261 16.182 21.421 15.5796 21.9478C15.4194 22.0881 15.2134 22.1655 15 22.1655C14.7865 22.1655 14.5806 22.0881 14.4201 21.9476C13.8132 21.417 13.2287 20.9188 12.7129 20.4792L12.7119 20.4783C11.2007 19.1905 9.89571 18.0784 8.98773 16.9828C7.97276 15.7581 7.5 14.5968 7.5 13.3283C7.5 12.0957 7.92263 10.9586 8.68984 10.1263C9.46632 9.28414 10.5319 8.82031 11.6903 8.82031C12.5561 8.82031 13.3491 9.09406 14.0471 9.63387C14.3994 9.90636 14.7187 10.2398 15 10.6288C15.2814 10.2397 15.6006 9.90636 15.9528 9.63387C16.6509 9.09406 17.4439 8.82031 18.3097 8.82031Z" fill="#D5DDE0"/>
</svg>
