<svg width="30" height="30" viewBox="0 0 30 30" fill="none" xmlns="http://www.w3.org/2000/svg">
<path fill-rule="evenodd" clip-rule="evenodd" d="M15 30C23.2843 30 30 23.2843 30 15C30 6.71573 23.2843 0 15 0C6.71573 0 0 6.71573 0 15C0 23.2843 6.71573 30 15 30ZM15 5C15.5523 5 16 5.44772 16 6V12.126C15.6804 12.0438 15.3453 12 15 12C14.6547 12 14.3196 12.0438 14 12.126V6C14 5.44772 14.4477 5 15 5ZM18.874 17H23C23.5523 17 24 16.5523 24 16C24 15.4477 23.5523 15 23 15H18.874C18.9562 15.3196 19 15.6547 19 16C19 16.3453 18.9562 16.6804 18.874 17ZM13 16C13 14.8954 13.8954 14 15 14C16.1046 14 17 14.8954 17 16C17 17.1046 16.1046 18 15 18C13.8954 18 13 17.1046 13 16Z" fill="#339999"/>
</svg>
