<svg width="33" height="34" viewBox="0 0 33 34" fill="none" xmlns="http://www.w3.org/2000/svg">
<circle cx="16.4286" cy="16.4286" r="16.4286" fill="#3E4958"/>
<g clip-path="url(#clip0)">
<path d="M20.431 5.91969C19.5998 5.58559 18.6648 6.00428 18.3389 6.85394C18.0129 7.70452 18.4214 8.66435 19.2508 8.9984C22.2296 10.1977 24.1539 13.0927 24.1539 16.3737C24.1539 20.7397 20.6883 24.2919 16.4288 24.2919C12.1693 24.2919 8.70364 20.7397 8.70364 16.3732C8.70274 13.1839 10.5551 10.3197 13.4228 9.07688C14.2435 8.72103 14.6275 7.75086 14.2803 6.90922C13.9336 6.06899 12.9881 5.67349 12.1655 6.03027C8.10062 7.7915 5.47458 11.8518 5.47594 16.3737C5.47594 22.5638 10.3892 27.5999 16.4283 27.5999C22.4674 27.5999 27.3806 22.5638 27.3806 16.3737C27.3807 11.7232 24.6527 7.61953 20.431 5.91969Z" fill="white"/>
<path d="M14.8147 12.3332V16.702C14.8147 17.6155 15.5371 18.356 16.4283 18.356C17.3195 18.356 18.0419 17.6155 18.0419 16.702V12.3332C18.0419 11.4197 17.3195 10.6792 16.4283 10.6792C15.5371 10.6792 14.8147 11.4197 14.8147 12.3332Z" fill="white"/>
</g>
<defs>
<clipPath id="clip0">
<rect width="21.9048" height="28.0655" fill="white" transform="translate(5.47595 5.47607)"/>
</clipPath>
</defs>
</svg>
