<svg width="58" height="58" viewBox="0 0 58 58" fill="none" xmlns="http://www.w3.org/2000/svg">
<g filter="url(#filter0_d)">
<path d="M20.1387 12.9816C18.9949 14.0285 17.4612 15.5362 16.9794 16.4998C15.9794 18.4998 17.4794 23.9998 22.9794 29.9998C27.3794 34.7998 32.8128 36.8667 35.9795 37.2C38.1135 37.4246 40.0962 35.2119 41.1623 33.7449C41.6825 33.029 41.5574 32.0638 40.942 31.4279L37.5777 27.9516C36.7332 27.0789 35.3126 27.155 34.5121 28.0683C33.7837 28.8993 32.9591 29.7602 32.4795 30C30.8542 30.8127 23.4795 23 23.9794 21.4998C24.4083 20.8565 25.205 20.1212 25.9752 19.4911C26.9671 18.6798 27.0982 17.1593 26.171 16.2748L22.7735 13.0341C22.0367 12.3313 20.89 12.294 20.1387 12.9816Z" fill="white"/>
<path d="M20.1387 12.9816C18.9949 14.0285 17.4612 15.5362 16.9794 16.4998C15.9794 18.4998 17.4794 23.9998 22.9794 29.9998C27.3794 34.7998 32.8128 36.8667 35.9795 37.2C38.1135 37.4246 40.0962 35.2119 41.1623 33.7449C41.6825 33.029 41.5574 32.0638 40.942 31.4279L37.5777 27.9516C36.7332 27.0789 35.3126 27.155 34.5121 28.0683C33.7837 28.8993 32.9591 29.7602 32.4795 30C30.8542 30.8127 23.4795 23 23.9794 21.4998C24.4083 20.8565 25.205 20.1212 25.9752 19.4911C26.9671 18.6798 27.0982 17.1593 26.171 16.2748L22.7735 13.0341C22.0367 12.3313 20.89 12.294 20.1387 12.9816Z" stroke="#3E4958" stroke-width="2"/>
</g>
<path fill-rule="evenodd" clip-rule="evenodd" d="M31.4795 10C30.9272 10 30.4795 10.4477 30.4795 11C30.4795 11.5523 30.9272 12 31.4795 12C33.6234 12 36.2618 13.3185 38.4074 15.4045C40.5491 17.4867 41.9795 20.1196 41.9795 22.5C41.9795 23.0523 42.4272 23.5 42.9795 23.5C43.5318 23.5 43.9795 23.0523 43.9795 22.5C43.9795 19.3804 42.1599 16.2633 39.8016 13.9705C37.4472 11.6815 34.3356 10 31.4795 10ZM31.4795 15C30.9272 15 30.4795 15.4477 30.4795 16C30.4795 16.5523 30.9272 17 31.4795 17C31.6761 17 32.1043 17.0771 32.6843 17.3105C33.2445 17.536 33.8823 17.8819 34.493 18.3538C35.7134 19.2968 36.773 20.6967 36.9856 22.6104C37.0466 23.1593 37.541 23.5549 38.0899 23.4939C38.6388 23.4329 39.0344 22.9385 38.9734 22.3896C38.686 19.8033 37.2456 17.9532 35.7159 16.7712C34.9517 16.1806 34.152 15.7453 33.431 15.4551C32.7297 15.1729 32.0329 15 31.4795 15Z" fill="#3E4958"/>
<defs>
<filter id="filter0_d" x="0.69043" y="0.48584" width="56.7981" height="56.7302" filterUnits="userSpaceOnUse" color-interpolation-filters="sRGB">
<feFlood flood-opacity="0" result="BackgroundImageFix"/>
<feColorMatrix in="SourceAlpha" type="matrix" values="0 0 0 0 0 0 0 0 0 0 0 0 0 0 0 0 0 0 127 0"/>
<feOffset dy="4"/>
<feGaussianBlur stdDeviation="7.5"/>
<feColorMatrix type="matrix" values="0 0 0 0 0 0 0 0 0 0 0 0 0 0 0 0 0 0 0.15 0"/>
<feBlend mode="normal" in2="BackgroundImageFix" result="effect1_dropShadow"/>
<feBlend mode="normal" in="SourceGraphic" in2="effect1_dropShadow" result="shape"/>
</filter>
</defs>
</svg>
