<svg width="30" height="30" viewBox="0 0 30 30" fill="none" xmlns="http://www.w3.org/2000/svg">
<path fill-rule="evenodd" clip-rule="evenodd" d="M15 30C23.2843 30 30 23.2843 30 15C30 6.71573 23.2843 0 15 0C6.71573 0 0 6.71573 0 15C0 23.2843 6.71573 30 15 30ZM11.0891 22.82C11.8503 22.9401 12.607 23 13.3421 23C14.193 23 15.015 22.9196 15.7805 22.7593C17.341 22.4326 18.6545 21.7935 19.6845 20.8601C20.5169 20.1056 21.1444 19.1704 21.5493 18.0804C21.9775 16.9283 22.1566 15.5993 22.082 14.1303C22.0624 13.7437 22.1676 13.3751 22.3782 13.092C23.2196 11.9616 23.2811 11.8684 23.3305 11.7935L23.3312 11.7924C23.3433 11.774 23.3526 11.7599 23.387 11.7125L24 10.8696L22.9629 10.9169C22.9179 10.9188 22.8749 10.9218 22.8331 10.9253L23.4664 9.1053L22.4952 9.442C22.2346 9.53235 22.0257 9.61147 21.8415 9.68124L21.8353 9.68357L21.8352 9.68362C21.5266 9.80053 21.2982 9.88704 20.9883 9.96807C20.3535 9.39398 19.5543 9.0621 18.6741 9.00768C17.8444 8.95639 17.0073 9.16324 16.317 9.59013C15.6955 9.9746 15.2278 10.514 14.9649 11.1501C14.7391 11.6964 14.6709 12.3058 14.7619 12.9373C12.5328 12.6261 10.6547 11.5629 9.17181 9.77049L8.70294 9.20383L8.35237 9.8514C7.90945 10.6695 7.76237 11.6051 7.93811 12.4858C8.01022 12.8469 8.13292 13.1914 8.30269 13.514L7.90024 13.3572L7.85251 14.0336C7.80413 14.7208 8.03149 15.5228 8.46093 16.1791C8.58168 16.3638 8.73744 16.5668 8.93472 16.7669L8.72668 16.7349L8.98037 17.5099C9.31383 18.5283 10.0065 19.3162 10.9054 19.7542C10.0077 20.1374 9.28257 20.3821 8.09051 20.7764L7 21.1373L8.00724 21.6914C8.39128 21.9027 9.74845 22.6084 11.0891 22.82Z" fill="#D5DDE0"/>
</svg>
