<svg width="30" height="30" viewBox="0 0 30 30" fill="none" xmlns="http://www.w3.org/2000/svg">
<path fill-rule="evenodd" clip-rule="evenodd" d="M15 30C23.2843 30 30 23.2843 30 15C30 6.71573 23.2843 0 15 0C6.71573 0 0 6.71573 0 15C0 23.2843 6.71573 30 15 30ZM8.11768 12.8824C8.11768 9.08757 11.2052 6 15.0001 6C18.7949 6 21.8824 9.08757 21.8824 12.8824V21.353C21.8824 22.2287 21.17 22.9412 20.2942 22.9412H16.4908C16.2715 23.556 15.6893 24 15.0001 24C14.1243 24 13.4118 23.2875 13.4118 22.4118C13.4118 21.536 14.1243 20.8236 15.0001 20.8236C15.6893 20.8236 16.2715 21.2674 16.4908 21.8824H20.2942C20.5858 21.8824 20.8236 21.6451 20.8236 21.353V20.7261C20.6572 20.7854 20.4807 20.8236 20.2942 20.8236C19.4184 20.8236 18.7059 20.1111 18.7059 19.2352V13.9412C18.7059 13.0654 19.4184 12.353 20.2942 12.353C20.4722 12.353 20.6418 12.3847 20.8011 12.4392C20.5732 9.43501 18.061 7.05881 15.0001 7.05881C11.9375 7.05881 9.42464 9.43721 9.19873 12.4435C9.35899 12.3891 9.52763 12.353 9.70589 12.353C10.5818 12.353 11.2942 13.0654 11.2942 13.9412V19.2352C11.2942 20.1111 10.5818 20.8236 9.70589 20.8236C8.83014 20.8236 8.11768 20.1111 8.11768 19.2352V12.8824ZM22.9409 13.5098V19.6676C23.5557 19.4484 23.9997 18.8663 23.9997 18.1769V15.0005C23.9997 14.3112 23.5557 13.7291 22.9409 13.5098ZM6 18.1769V15.0005C6 14.3112 6.44398 13.7291 7.05881 13.5098V19.6676C6.44398 19.4484 6 18.8663 6 18.1769Z" fill="#339999"/>
</svg>
