<svg width="40" height="40" viewBox="0 0 40 40" fill="none" xmlns="http://www.w3.org/2000/svg">
<path fill-rule="evenodd" clip-rule="evenodd" d="M20 3.5C29.1127 3.5 36.5 10.8873 36.5 20C36.5 29.1127 29.1127 36.5 20 36.5C10.8873 36.5 3.5 29.1127 3.5 20C3.5 10.8873 10.8873 3.5 20 3.5ZM15.4977 26.0946C14.8374 26.3807 14.1001 25.8967 14.1001 25.177V22.0758C14.1001 21.828 14.2815 21.6177 14.5266 21.5812L23.8144 20.2002L14.5266 18.8192C14.2815 18.7827 14.1001 18.5723 14.1001 18.3246V15.2234C14.1001 14.5037 14.8374 14.0197 15.4977 14.3058L28.0414 19.7414C28.443 19.9154 28.443 20.4849 28.0414 20.659L15.4977 26.0946Z" fill="#339999"/>
</svg>
