<svg width="30" height="30" viewBox="0 0 30 30" fill="none" xmlns="http://www.w3.org/2000/svg">
<path d="M1.5 8C1.5 6.89543 2.39543 6 3.5 6H26.4999C27.6044 6 28.4999 6.89543 28.4999 8V21.9999C28.4999 23.1045 27.6044 23.9999 26.4999 23.9999H3.5C2.39543 23.9999 1.5 23.1045 1.5 21.9999V8Z" fill="black"/>
<path fill-rule="evenodd" clip-rule="evenodd" d="M8.65489 14.182C8.65489 14.394 8.78211 14.4788 9.20616 14.6484C10.0543 14.9877 10.2663 15.2421 10.3087 15.751V15.8782C10.2663 16.5567 9.71502 17.0655 9.03654 17.0231C8.52767 17.0231 8.01881 16.7687 7.76438 16.3022L8.23084 15.8358C8.35805 16.1326 8.65489 16.3446 8.99413 16.3446H9.03654C9.29097 16.3446 9.5454 16.0902 9.5454 15.7934C9.5454 15.6238 9.46059 15.4965 9.33337 15.4117C9.16375 15.3269 8.99413 15.2421 8.82451 15.1997C8.14603 14.9877 7.934 14.6908 7.934 14.182V14.1396C7.9764 13.5459 8.48527 13.0794 9.07894 13.1218C9.46059 13.1218 9.84224 13.2915 10.1391 13.5459L9.75743 14.0548C9.58781 13.8851 9.37578 13.7579 9.16375 13.7579C8.90932 13.7155 8.69729 13.9275 8.65489 14.182ZM3.39099 13.2065H4.45113H4.66315C5.68088 13.2489 6.48658 14.097 6.44418 15.1147C6.44418 15.666 6.18974 16.1749 5.76569 16.5565C5.38404 16.8534 4.91758 17.023 4.45113 16.9806H3.39099V13.2065ZM4.32613 16.3446C4.66538 16.387 5.04702 16.2598 5.30146 16.0477C5.55589 15.7933 5.68311 15.4541 5.68311 15.0724C5.68311 14.7332 5.55589 14.3939 5.30146 14.1395C5.04702 13.9275 4.66538 13.8003 4.32613 13.8427H4.11411V16.3446H4.32613ZM6.74127 16.9806H7.46216V13.2065H6.74127V16.9806ZM10.5129 15.1148C10.5129 16.175 11.361 17.0655 12.4211 17.0655C12.7603 17.0655 13.0572 16.9807 13.354 16.8535V16.0054C13.142 16.2598 12.8452 16.4294 12.5059 16.4294C11.8274 16.4294 11.2762 15.9206 11.2762 15.2421V15.1573C11.2338 14.4788 11.785 13.8851 12.4635 13.8427C12.8028 13.8427 13.142 14.0123 13.354 14.2667V13.4186C13.0996 13.249 12.7603 13.2066 12.4635 13.2066C11.361 13.1218 10.5129 14.0123 10.5129 15.1148ZM18.1476 13.2065L19.1229 15.7508L20.1406 13.2065H20.9039L19.3349 17.0654H18.9533L17.3843 13.2065H18.1476ZM21.2413 16.9806H23.2768V16.3445H21.9622V15.3268H23.2344V14.6907H21.9622V13.8426H23.2768V13.2065H21.2413V16.9806ZM26.1217 14.3092C26.1217 13.5883 25.6552 13.2066 24.8071 13.2066H23.747V16.9807H24.4679V15.4541H24.5527L25.528 16.9807H26.4185L25.2736 15.4117C25.7824 15.3269 26.1641 14.8604 26.1217 14.3092ZM24.6804 14.9453H24.4684V13.8003H24.6804C25.1469 13.8003 25.3589 14.0123 25.3589 14.3516C25.3589 14.7332 25.1469 14.9453 24.6804 14.9453Z" fill="white"/>
<path fill-rule="evenodd" clip-rule="evenodd" d="M15.6099 13.152C14.5415 13.152 13.644 14.0067 13.644 15.1179C13.644 16.1863 14.4987 17.0838 15.6099 17.1265C16.721 17.1692 17.5758 16.2718 17.6185 15.1606C17.5758 14.0495 16.721 13.152 15.6099 13.152Z" fill="url(#paint0_linear)"/>
<defs>
<linearGradient id="paint0_linear" x1="14.6653" y1="13.7496" x2="16.7078" y2="17.1539" gradientUnits="userSpaceOnUse">
<stop stop-color="#E45C10"/>
<stop offset="1" stop-color="#D9A216"/>
</linearGradient>
</defs>
</svg>
