<svg width="218" height="218" viewBox="0 0 218 218" fill="none" xmlns="http://www.w3.org/2000/svg">
<circle cx="109" cy="109" r="109" fill="white" fill-opacity="0.4"/>
<circle cx="109" cy="109" r="67" fill="white" fill-opacity="0.4"/>
<circle cx="109" cy="109" r="32" fill="white" fill-opacity="0.4"/>
<g filter="url(#filter0_d)">
<path d="M125.388 87.3635L125.222 84.7545C125.07 82.4036 124.321 80.1206 122.977 78.1774C120.51 74.6307 116.907 73.2038 111.599 73H107.4C102.107 73.2038 98.4895 74.6307 96.0366 78.1774C94.6924 80.1206 93.944 82.4036 93.7916 84.7545L93.6253 87.3635C93.5144 89.0486 93.5421 90.7472 93.7223 92.4322L93.7639 92.8127V135.251C93.8747 137.724 94.3321 139.015 95.1358 141.054C96.6187 144.424 99.7091 145.932 108.038 145.973H110.99C119.318 145.932 122.409 144.41 123.892 141.054C124.695 139.015 125.139 137.724 125.264 135.251V92.8263L125.305 92.4458C125.458 90.7608 125.485 89.0622 125.388 87.3635ZM122.27 94.7424L120.427 103.983C120.302 104.608 120.192 105.233 120.095 105.858C111.932 104.146 107.012 103.969 98.7528 105.858C98.6558 105.233 98.545 104.608 98.4202 103.983L96.5771 94.7424C96.1752 92.7448 97.27 90.7472 99.1963 89.9998C101.746 89.0078 104.698 88.573 108.648 88.4643H110.172C114.122 88.573 117.087 89.0214 119.623 90.0134C121.577 90.7472 122.672 92.7448 122.27 94.7424Z" fill="#F2F2F2"/>
<path d="M101.885 75.0112L100.568 89.5514H100.735L102.578 75.0927C102.259 75.0927 102.023 75.1063 101.885 75.0112Z" fill="#E7E7E7"/>
<path d="M117.115 75.0112L118.432 89.5514H118.265L116.436 75.0927C116.741 75.0927 116.976 75.1063 117.115 75.0112Z" fill="#E7E7E7"/>
<path d="M121.356 132.764C121.356 134.395 121.175 135.713 120.76 136.773C120.732 136.664 120.677 136.556 120.607 136.447C120.455 136.827 120.289 137.181 120.122 137.521C119.568 138.594 118.584 139.382 117.42 139.763C115.591 140.347 113.872 140.564 111.502 140.728C110.906 140.768 110.324 140.782 109.729 140.782H109.341C108.758 140.782 108.176 140.768 107.608 140.728C105.225 140.564 103.506 140.347 101.663 139.763C100.499 139.396 99.5289 138.594 98.9607 137.521C98.7805 137.181 98.6281 136.827 98.4618 136.433C98.4064 136.515 98.3648 136.596 98.3232 136.692C97.8936 135.645 97.6996 134.354 97.6996 132.764C97.6996 132.071 97.7412 131.365 97.8105 130.658H121.231C121.328 131.378 121.356 132.071 121.356 132.764Z" fill="#4B545A"/>
<path d="M121.356 132.764C121.356 134.395 121.175 135.713 120.76 136.773C120.732 136.664 120.677 136.556 120.607 136.447C120.455 136.827 120.289 137.181 120.122 137.521C119.568 138.594 118.584 139.382 117.42 139.763C115.591 140.347 113.872 140.564 111.502 140.728C110.906 140.768 110.324 140.782 109.729 140.782H109.341C108.758 140.782 108.176 140.768 107.608 140.728C105.225 140.564 103.506 140.347 101.663 139.763C100.499 139.396 99.5289 138.594 98.9607 137.521C98.7805 137.181 98.6281 136.827 98.4618 136.433C98.4064 136.515 98.3648 136.596 98.3232 136.692C97.8936 135.645 97.6996 134.354 97.6996 132.764C97.6996 132.071 97.7412 131.365 97.8105 130.658H121.231C121.328 131.378 121.356 132.071 121.356 132.764Z" fill="#4388FC" fill-opacity="0.1"/>
<path d="M121.356 132.764C121.356 134.395 121.175 135.713 120.76 136.773C120.732 136.664 120.677 136.556 120.607 136.447C120.455 136.827 120.289 137.181 120.122 137.521C119.568 138.594 118.584 139.382 117.42 139.763C115.591 140.347 113.872 140.564 111.502 140.728C110.906 140.768 110.324 140.782 109.729 140.782H109.341C108.758 140.782 108.176 140.768 107.608 140.728C105.225 140.564 103.506 140.347 101.663 139.763C100.499 139.396 99.5289 138.594 98.9607 137.521C98.7805 137.181 98.6281 136.827 98.4618 136.433C98.4064 136.515 98.3648 136.596 98.3232 136.692C97.8936 135.645 97.6996 134.354 97.6996 132.764C97.6996 132.071 97.7412 131.365 97.8105 130.658H121.231C121.328 131.378 121.356 132.071 121.356 132.764Z" fill="url(#paint0_radial)" fill-opacity="0.77"/>
<path d="M98.2263 127.111C98.1986 128.361 98.1709 129.652 98.1432 131.079C98.1432 131.188 98.1155 131.296 98.06 131.392C97.8245 131.826 97.4919 131.976 96.9652 131.881C96.203 131.65 95.815 130.957 95.7873 129.734L95.0389 95.5846C95.0389 95.5574 95.0389 95.5302 95.0389 95.5031C95.0528 95.5166 95.0667 95.5438 95.0805 95.571L95.4824 96.332C95.5656 96.495 95.6348 96.6717 95.6764 96.8619L96.8128 102.732C97.6166 106.891 98.0462 110.573 98.1016 114.025C98.3926 119.311 98.3233 122.926 98.2263 127.111Z" fill="#4B545A"/>
<path d="M98.2263 127.111C98.1986 128.361 98.1709 129.652 98.1432 131.079C98.1432 131.188 98.1154 131.296 98.06 131.392C97.8244 131.826 97.4918 131.976 96.9652 131.881C96.203 131.65 95.815 130.957 95.7873 129.734L95.0389 95.5846C95.0389 95.5574 95.0389 95.5302 95.0389 95.5031C95.0528 95.5166 95.0666 95.5438 95.0805 95.571L95.4824 96.332C95.5655 96.495 95.6348 96.6717 95.6764 96.862L96.8128 102.732C97.6165 106.891 98.0462 110.573 98.1016 114.025C98.3926 119.311 98.3233 122.926 98.2263 127.111Z" fill="#4388FC" fill-opacity="0.1"/>
<path d="M98.2263 127.111C98.1986 128.361 98.1709 129.652 98.1432 131.079C98.1432 131.188 98.1154 131.296 98.06 131.392C97.8244 131.826 97.4918 131.976 96.9652 131.881C96.203 131.65 95.815 130.957 95.7873 129.734L95.0389 95.5846C95.0389 95.5574 95.0389 95.5302 95.0389 95.5031C95.0528 95.5166 95.0666 95.5438 95.0805 95.571L95.4824 96.332C95.5655 96.495 95.6348 96.6717 95.6764 96.862L96.8128 102.732C97.6165 106.891 98.0462 110.573 98.1016 114.025C98.3926 119.311 98.3233 122.926 98.2263 127.111Z" fill="url(#paint1_radial)" fill-opacity="0.77"/>
<path d="M95.4962 116.24C96.397 116.729 97.0622 116.906 98.2402 117.042L98.157 114.963C97.1038 114.405 96.3277 113.862 95.4131 112.951L95.4962 116.24Z" fill="#4B545A"/>
<path d="M96.2445 99.77L95.1359 99.4846L95.0527 95.5846C95.0527 95.5574 95.0527 95.5302 95.0527 95.5031C95.0666 95.5166 95.0805 95.5438 95.0943 95.571L95.4962 96.332C95.5793 96.495 95.6486 96.6717 95.6902 96.8619L96.2445 99.77Z" fill="#4B545A"/>
<path d="M120.788 127.111C120.815 128.362 120.843 129.653 120.871 131.079C120.871 131.188 120.898 131.297 120.954 131.392C121.189 131.827 121.522 131.976 122.049 131.881C122.811 131.65 123.199 130.957 123.227 129.734L123.975 95.585C123.975 95.5578 123.975 95.5307 123.975 95.5035C123.961 95.5171 123.947 95.5442 123.933 95.5714L123.531 96.3324C123.448 96.4955 123.379 96.6721 123.337 96.8624L122.187 102.76C121.383 106.918 120.954 110.601 120.898 114.052C120.607 119.311 120.691 122.926 120.788 127.111Z" fill="#4B545A"/>
<path d="M120.788 127.111C120.815 128.362 120.843 129.652 120.871 131.079C120.871 131.188 120.898 131.297 120.954 131.392C121.189 131.827 121.522 131.976 122.049 131.881C122.811 131.65 123.199 130.957 123.227 129.734L123.975 95.5849C123.975 95.5577 123.975 95.5305 123.975 95.5034C123.961 95.5169 123.947 95.5441 123.933 95.5713L123.532 96.3323C123.448 96.4954 123.379 96.672 123.338 96.8623L122.187 102.76C121.383 106.918 120.954 110.601 120.898 114.052C120.607 119.311 120.691 122.926 120.788 127.111Z" fill="#4388FC" fill-opacity="0.1"/>
<path d="M120.788 127.111C120.815 128.362 120.843 129.652 120.871 131.079C120.871 131.188 120.898 131.297 120.954 131.392C121.189 131.827 121.522 131.976 122.049 131.881C122.811 131.65 123.199 130.957 123.227 129.734L123.975 95.5849C123.975 95.5577 123.975 95.5305 123.975 95.5034C123.961 95.5169 123.947 95.5441 123.933 95.5713L123.532 96.3323C123.448 96.4954 123.379 96.672 123.338 96.8623L122.187 102.76C121.383 106.918 120.954 110.601 120.898 114.052C120.607 119.311 120.691 122.926 120.788 127.111Z" fill="url(#paint2_radial)" fill-opacity="0.77"/>
<path d="M123.518 116.254C122.617 116.743 121.952 116.92 120.774 117.055L120.857 114.976C121.91 114.419 122.686 113.876 123.601 112.965L123.518 116.254Z" fill="#4B545A"/>
<path d="M122.769 99.784L123.878 99.4987L123.961 95.5986C123.961 95.5714 123.961 95.5443 123.961 95.5171C123.947 95.5307 123.933 95.5579 123.919 95.585L123.518 96.346C123.434 96.5091 123.365 96.6857 123.324 96.876L122.769 99.784Z" fill="#4B545A"/>
<path d="M95.5101 97.4601C95.5932 97.7863 95.5794 97.9765 95.5101 98.2891H94.3599V97.4601H95.5101Z" fill="#594F4F"/>
<path d="M94.5539 97.6911L94.54 98.8326C94.54 98.9549 94.4569 99.0636 94.3321 99.1043L91.3388 100.083C91.2417 100.11 91.1309 100.056 91.1032 99.9604C91.0616 99.811 91.02 99.6479 91.0062 99.4441C90.9923 99.3082 91.0062 99.1723 91.0062 99.0636C91.0339 98.7782 91.1447 98.5064 91.3249 98.289C91.4912 98.0988 91.6991 97.9085 92.0178 97.759C92.4197 97.5688 92.9602 97.4601 93.5006 97.4465C93.7501 97.4329 94.0688 97.4465 94.3183 97.4601C94.4569 97.4601 94.5539 97.5688 94.5539 97.6911Z" fill="#594F4F"/>
<path d="M123.49 97.4609C123.407 97.7871 123.421 97.9773 123.49 98.2899H124.64V97.4609H123.49Z" fill="#594F4F"/>
<path d="M124.446 97.7046L124.46 98.8461C124.46 98.9684 124.543 99.0771 124.668 99.1178L127.661 100.096C127.758 100.123 127.869 100.069 127.897 99.9739C127.938 99.8245 127.98 99.6614 127.994 99.4576C128.008 99.3217 127.994 99.1858 127.994 99.0771C127.966 98.7917 127.855 98.5199 127.675 98.3025C127.509 98.1122 127.301 97.922 126.982 97.7725C126.58 97.5823 126.04 97.4736 125.499 97.46C125.25 97.4464 124.931 97.46 124.682 97.4736C124.543 97.4736 124.446 97.5687 124.446 97.7046Z" fill="#594F4F"/>
<path d="M100.845 75.5002C97.9214 77.2532 96.2722 79.3052 95.4269 82.5665V80.9358C95.4269 79.971 95.7595 79.047 96.397 78.3132C97.6442 76.8999 98.8637 75.9759 100.845 75.5002Z" fill="url(#paint3_linear)"/>
<path d="M100.845 75.5002C97.9214 77.2532 96.2722 79.3052 95.4269 82.5665V80.9358C95.4269 79.971 95.7595 79.047 96.397 78.3132C97.6442 76.8999 98.8637 75.9759 100.845 75.5002Z" fill="url(#paint4_linear)"/>
<path d="M95.4412 82.5529V80.9358C95.4412 79.971 95.7738 79.047 96.4113 78.3132C97.6447 76.8999 98.8642 75.9759 100.846 75.5002C97.9219 77.2532 96.2727 79.2916 95.4412 82.5529Z" fill="#D5E3F0"/>
<path d="M118.03 75.5003C120.954 77.2533 122.603 79.3052 123.448 82.5666V80.9359C123.448 79.9711 123.116 79.047 122.478 78.3132C121.245 76.9 120.011 75.9759 118.03 75.5003Z" fill="url(#paint5_linear)"/>
<path d="M118.03 75.5003C120.954 77.2533 122.603 79.3052 123.448 82.5666V80.9359C123.448 79.9711 123.116 79.047 122.478 78.3132C121.245 76.9 120.011 75.9759 118.03 75.5003Z" fill="url(#paint6_linear)"/>
<path d="M123.448 82.5531V80.936C123.448 79.9712 123.116 79.0471 122.478 78.3133C121.245 76.8865 120.011 75.9624 118.03 75.4868C120.954 77.2534 122.603 79.2917 123.448 82.5531Z" fill="#D5E3F0"/>
<path d="M100.527 145.266C97.5474 144.505 96.0368 143.133 95.1222 141.067C94.8866 140.469 94.6787 139.926 94.4986 139.409L94.7757 139.491C95.7042 139.776 96.4526 140.442 96.8406 141.312C97.4642 142.725 98.1156 143.337 100 144.288C100.374 144.478 100.582 144.872 100.527 145.266Z" fill="#D8394C"/>
<path d="M118.473 145.266C121.453 144.505 122.963 143.133 123.878 141.067C124.113 140.469 124.321 139.926 124.502 139.409L124.224 139.491C123.296 139.776 122.548 140.442 122.159 141.312C121.536 142.725 120.885 143.337 119 144.288C118.626 144.478 118.418 144.872 118.473 145.266Z" fill="#D8394C"/>
<path d="M110.186 91.7798C114.233 91.8885 117.115 92.3642 119.513 93.3018C120.552 93.7095 121.356 94.5248 121.744 95.544L120.067 103.915C119.97 104.418 119.873 104.934 119.79 105.437C115.424 104.54 112.237 104.159 109.202 104.159C106.126 104.159 102.966 104.553 99.044 105.437C98.9608 104.934 98.8777 104.418 98.7668 103.915L97.1038 95.544C97.4918 94.5248 98.2956 93.7095 99.335 93.3018C101.746 92.3642 104.615 91.9021 108.662 91.7798H110.186ZM110.186 91.4265H108.662C104.712 91.5352 101.746 91.9837 99.2103 92.9621C98.0185 93.4241 97.1315 94.3753 96.7435 95.5032L98.4342 103.983C98.5589 104.608 98.6698 105.233 98.7668 105.858C102.8 104.934 106.029 104.513 109.23 104.513C112.597 104.513 115.923 104.988 120.122 105.858C120.219 105.233 120.33 104.608 120.455 103.983L122.146 95.5168C121.744 94.3889 120.871 93.4377 119.679 92.9757C117.101 91.9837 114.136 91.5352 110.186 91.4265Z" fill="black"/>
<path d="M122.118 95.5169L120.427 103.983C120.303 104.608 120.192 105.233 120.095 105.858C111.932 104.146 107.013 103.969 98.753 105.858C98.656 105.233 98.5451 104.608 98.4204 103.983L96.7297 95.5169C97.1316 94.3891 98.0047 93.4378 99.1965 92.9758C101.746 91.9838 104.698 91.549 108.648 91.4402H110.172C114.122 91.549 117.087 91.9974 119.624 92.9894C120.843 93.4378 121.716 94.3891 122.118 95.5169Z" fill="#4B545A"/>
<path d="M122.118 95.5169L120.427 103.983C120.303 104.608 120.192 105.233 120.095 105.858C111.932 104.146 107.013 103.969 98.753 105.858C98.656 105.233 98.5451 104.608 98.4204 103.983L96.7297 95.5169C97.1316 94.3891 98.0046 93.4378 99.1964 92.9758C101.746 91.9838 104.698 91.549 108.648 91.4402H110.172C114.122 91.549 117.087 91.9974 119.624 92.9894C120.843 93.4378 121.716 94.3891 122.118 95.5169Z" fill="#4388FC" fill-opacity="0.1"/>
<path d="M122.118 95.5169L120.427 103.983C120.303 104.608 120.192 105.233 120.095 105.858C111.932 104.146 107.013 103.969 98.753 105.858C98.656 105.233 98.5451 104.608 98.4204 103.983L96.7297 95.5169C97.1316 94.3891 98.0046 93.4378 99.1964 92.9758C101.746 91.9838 104.698 91.549 108.648 91.4402H110.172C114.122 91.549 117.087 91.9974 119.624 92.9894C120.843 93.4378 121.716 94.3891 122.118 95.5169Z" fill="url(#paint7_radial)" fill-opacity="0.77"/>
<path d="M122.27 94.7423C122.672 92.7447 121.578 90.7472 119.651 89.9998C117.101 89.0078 114.15 88.5729 110.2 88.4506H108.676C104.726 88.5593 101.76 89.0078 99.2242 89.9862C97.2979 90.7336 96.2031 92.7311 96.605 94.7287L96.7574 95.5033C97.1593 94.3754 98.0324 93.4242 99.2242 92.9622C101.774 91.9702 104.726 91.5353 108.676 91.4266H110.2C114.15 91.5353 117.115 91.9838 119.651 92.9758C120.843 93.4378 121.73 94.389 122.118 95.5169L122.27 94.7423Z" fill="#4B545A"/>
<path d="M116.99 74.78C116.99 74.7936 116.935 74.8208 116.783 74.8208H102.231C102.079 74.8208 102.024 74.78 102.024 74.78C102.024 74.7664 102.051 74.6849 102.218 74.5762L102.342 74.4946C103.077 73.9918 103.617 73.6249 104.518 73.2716C105.419 73.1357 106.375 73.0542 107.401 73.0134H111.6C112.625 73.0542 113.581 73.1357 114.482 73.2716C114.482 73.2716 114.482 73.2716 114.496 73.2716C115.397 73.6249 115.937 73.9918 116.672 74.4946L116.796 74.5762C116.963 74.6849 116.99 74.7664 116.99 74.78Z" fill="#4B545A"/>
<path d="M98.1431 128.987H120.871C120.871 128.987 121.054 130.585 120.108 132.316C118.03 136.121 100.43 135.917 98.836 132.316C98.0389 130.515 98.1431 128.987 98.1431 128.987Z" fill="#F2F2F2"/>
</g>
<defs>
<filter id="filter0_d" x="71" y="57" width="77" height="113" filterUnits="userSpaceOnUse" color-interpolation-filters="sRGB">
<feFlood flood-opacity="0" result="BackgroundImageFix"/>
<feColorMatrix in="SourceAlpha" type="matrix" values="0 0 0 0 0 0 0 0 0 0 0 0 0 0 0 0 0 0 127 0"/>
<feOffset dy="4"/>
<feGaussianBlur stdDeviation="10"/>
<feColorMatrix type="matrix" values="0 0 0 0 0 0 0 0 0 0 0 0 0 0 0 0 0 0 0.25 0"/>
<feBlend mode="normal" in2="BackgroundImageFix" result="effect1_dropShadow"/>
<feBlend mode="normal" in="SourceGraphic" in2="effect1_dropShadow" result="shape"/>
</filter>
<radialGradient id="paint0_radial" cx="0" cy="0" r="1" gradientUnits="userSpaceOnUse" gradientTransform="translate(110.13 129.938) rotate(90) scale(11.6186 39.1507)">
<stop stop-color="white" stop-opacity="0.8"/>
<stop offset="1" stop-color="white" stop-opacity="0.01"/>
</radialGradient>
<radialGradient id="paint1_radial" cx="0" cy="0" r="1" gradientUnits="userSpaceOnUse" gradientTransform="translate(96.6982 134.756) rotate(90.034) scale(39.7912 5.15743)">
<stop stop-color="white" stop-opacity="0.8"/>
<stop offset="1" stop-color="white" stop-opacity="0.01"/>
</radialGradient>
<radialGradient id="paint2_radial" cx="0" cy="0" r="1" gradientUnits="userSpaceOnUse" gradientTransform="translate(122.36 134.756) rotate(90.0341) scale(39.7912 5.16745)">
<stop stop-color="white" stop-opacity="0.8"/>
<stop offset="1" stop-color="white" stop-opacity="0.01"/>
</radialGradient>
<linearGradient id="paint3_linear" x1="95.4349" y1="79.0261" x2="100.852" y2="79.0261" gradientUnits="userSpaceOnUse">
<stop offset="0.1548" stop-color="#A1A1A1"/>
<stop offset="0.9205" stop-color="white"/>
</linearGradient>
<linearGradient id="paint4_linear" x1="95.4349" y1="79.0261" x2="100.852" y2="79.0261" gradientUnits="userSpaceOnUse">
<stop stop-color="#333333"/>
<stop offset="0.1883"/>
<stop offset="0.3849" stop-color="#333333"/>
<stop offset="0.5983"/>
<stop offset="0.8033" stop-color="#333333"/>
<stop offset="1"/>
</linearGradient>
<linearGradient id="paint5_linear" x1="123.45" y1="79.0262" x2="118.033" y2="79.0262" gradientUnits="userSpaceOnUse">
<stop offset="0.1548" stop-color="#A1A1A1"/>
<stop offset="0.9205" stop-color="white"/>
</linearGradient>
<linearGradient id="paint6_linear" x1="123.45" y1="79.0262" x2="118.033" y2="79.0262" gradientUnits="userSpaceOnUse">
<stop stop-color="#333333"/>
<stop offset="0.1883"/>
<stop offset="0.3849" stop-color="#333333"/>
<stop offset="0.5983"/>
<stop offset="0.8033" stop-color="#333333"/>
<stop offset="1"/>
</linearGradient>
<radialGradient id="paint7_radial" cx="0" cy="0" r="1" gradientUnits="userSpaceOnUse" gradientTransform="translate(109.607 106.986) rotate(90.6669) scale(15.76 40.0237)">
<stop stop-color="white" stop-opacity="0.8"/>
<stop offset="1" stop-color="white" stop-opacity="0.01"/>
</radialGradient>
</defs>
</svg>
