<svg width="30" height="30" viewBox="0 0 30 30" fill="none" xmlns="http://www.w3.org/2000/svg">
<rect width="30" height="30" fill="white" fill-opacity="0.01"/>
<path d="M22.8787 15.3069C21.7203 11.8402 18.6079 9.35241 14.9393 9.35241C13.6261 9.35241 12.3876 9.67654 11.282 10.2463L9.39575 8.36L7.99242 9.76333L20.4829 22.2538L21.8862 20.8505L20.2692 19.2335C21.4467 18.2106 22.36 16.859 22.8786 15.3069L22.8787 15.3069ZM14.9393 11.3373C17.1317 11.3373 18.909 13.1145 18.909 15.3069C18.909 16.043 18.7002 16.7249 18.3483 17.3125L16.8562 15.8205C16.9005 15.6569 16.9242 15.4848 16.9242 15.3069C16.9242 14.2107 16.0355 13.3221 14.9393 13.3221C14.762 13.3221 14.5918 13.3488 14.4286 13.3928L12.9459 11.9101C13.5327 11.5589 14.2044 11.3373 14.9393 11.3373Z" fill="#97ADB6"/>
<path d="M14.9393 19.2766C12.7469 19.2766 10.9697 17.4993 10.9697 15.3069C10.9697 14.9537 11.0306 14.6174 11.1172 14.2914L8.8987 12.073C8.06476 12.9862 7.40873 14.0836 7 15.3069C8.15832 18.7737 11.2708 21.2614 14.9393 21.2614C15.878 21.2614 16.7793 21.0964 17.6217 20.796L15.9548 19.1291C15.6288 19.2157 15.2926 19.2766 14.9393 19.2766Z" fill="#97ADB6"/>
</svg>
