<svg width="66" height="66" viewBox="0 0 66 66" fill="none" xmlns="http://www.w3.org/2000/svg">
<g filter="url(#filter0_d)">
<circle cx="33" cy="29" r="18" fill="white"/>
</g>
<rect x="18" y="14" width="30" height="30" fill="white" fill-opacity="0.01"/>
<path fill-rule="evenodd" clip-rule="evenodd" d="M35.75 36.5L25.25 36.5C24.6977 36.5 24.25 36.0523 24.25 35.5C24.25 34.9477 24.6977 34.5 25.25 34.5L35.75 34.5C36.3023 34.5 36.75 34.9477 36.75 35.5C36.75 36.0523 36.3023 36.5 35.75 36.5ZM24.25 23.5C24.25 22.9477 24.6977 22.5 25.25 22.5L41.75 22.5C42.3023 22.5 42.75 22.9477 42.75 23.5C42.75 24.0523 42.3023 24.5 41.75 24.5L25.25 24.5C24.6977 24.5 24.25 24.0523 24.25 23.5ZM25.25 30.5L38.75 30.5C39.3023 30.5 39.75 30.0523 39.75 29.5C39.75 28.9477 39.3023 28.5 38.75 28.5L25.25 28.5C24.6977 28.5 24.25 28.9477 24.25 29.5C24.25 30.0523 24.6977 30.5 25.25 30.5Z" fill="#3E4958"/>
<defs>
<filter id="filter0_d" x="0" y="0" width="66" height="66" filterUnits="userSpaceOnUse" color-interpolation-filters="sRGB">
<feFlood flood-opacity="0" result="BackgroundImageFix"/>
<feColorMatrix in="SourceAlpha" type="matrix" values="0 0 0 0 0 0 0 0 0 0 0 0 0 0 0 0 0 0 127 0"/>
<feOffset dy="4"/>
<feGaussianBlur stdDeviation="7.5"/>
<feColorMatrix type="matrix" values="0 0 0 0 0 0 0 0 0 0 0 0 0 0 0 0 0 0 0.15 0"/>
<feBlend mode="normal" in2="BackgroundImageFix" result="effect1_dropShadow"/>
<feBlend mode="normal" in="SourceGraphic" in2="effect1_dropShadow" result="shape"/>
</filter>
</defs>
</svg>
