<svg width="56" height="56" viewBox="0 0 56 56" fill="none" xmlns="http://www.w3.org/2000/svg">
<circle cx="28" cy="28" r="27.85" fill="#448AFF" fill-opacity="0.3" stroke="#90B8F9" stroke-width="0.3"/>
<path d="M32 28C32 30.2091 30.2091 32 28 32C25.7909 32 24 30.2091 24 28C24 25.7909 25.7909 24 28 24C30.2091 24 32 25.7909 32 28Z" fill="#2F88FC"/>
<path fill-rule="evenodd" clip-rule="evenodd" d="M34 28C34 31.3137 31.3137 34 28 34C24.6863 34 22 31.3137 22 28C22 24.6863 24.6863 22 28 22C31.3137 22 34 24.6863 34 28ZM28 32C30.2091 32 32 30.2091 32 28C32 25.7909 30.2091 24 28 24C25.7909 24 24 25.7909 24 28C24 30.2091 25.7909 32 28 32Z" fill="#FDFDFD"/>
</svg>
