<svg width="30" height="30" viewBox="0 0 30 30" fill="none" xmlns="http://www.w3.org/2000/svg">
<path d="M27.2872 19.965V19.6539H27.2088L27.118 19.8676L27.0277 19.6539H26.9487V19.965H27.0045V19.7304L27.0893 19.9329H27.1471L27.232 19.7299V19.965H27.2872ZM26.7893 19.965V19.707H26.89V19.6544H26.6334V19.707H26.734V19.965H26.7893Z" fill="#F79410"/>
<path d="M18.3855 21.3009H11.6087V8.7159H18.3855V21.3009Z" fill="#FF5F00"/>
<path d="M12.0422 15.0059C12.0422 12.453 13.1989 10.1789 15.0003 8.71342C13.683 7.64178 12.0205 7.00214 10.2138 7.00214C5.93643 7.00214 2.46918 10.5855 2.46918 15.0059C2.46918 19.4263 5.93643 23.0097 10.2138 23.0097C12.0205 23.0097 13.683 22.3701 15.0003 21.2984C13.1989 19.8329 12.0422 17.5588 12.0422 15.0059Z" fill="#EB001B"/>
<path d="M27.5284 15.0038C27.5284 19.4242 24.0611 23.0076 19.7838 23.0076C17.9771 23.0076 16.3146 22.3679 14.9968 21.2963C16.7987 19.8308 17.9554 17.5567 17.9554 15.0038C17.9554 12.4508 16.7987 10.1768 14.9968 8.71127C16.3146 7.63963 17.9771 7 19.7838 7C24.0611 7 27.5284 10.5834 27.5284 15.0038Z" fill="#F79E1B"/>
</svg>
