<svg width="47" height="14" viewBox="0 0 47 14" fill="none" xmlns="http://www.w3.org/2000/svg">
<path fill-rule="evenodd" clip-rule="evenodd" d="M22 11C24.2091 11 26 9.20914 26 7C26 4.79086 24.2091 3 22 3C19.7909 3 18 4.79086 18 7C18 9.20914 19.7909 11 22 11Z" fill="#339999"/>
<path d="M46 7C46 10.3137 43.3137 13 40 13C36.6863 13 34 10.3137 34 7C34 3.68629 36.6863 1 40 1C43.3137 1 46 3.68629 46 7Z" stroke="#339999" stroke-width="2"/>
<path fill-rule="evenodd" clip-rule="evenodd" d="M4 11C6.20914 11 8 9.20914 8 7C8 4.79086 6.20914 3 4 3C1.79086 3 0 4.79086 0 7C0 9.20914 1.79086 11 4 11Z" fill="#339999"/>
</svg>
