<svg width="35" height="26" viewBox="0 0 35 26" fill="none" xmlns="http://www.w3.org/2000/svg">
<path d="M34.9754 8.59465L34.5651 10.2197C34.5206 10.3957 34.4178 10.5519 34.2732 10.6633C34.1286 10.7748 33.9504 10.8351 33.7672 10.8346H32.4009C32.8724 11.2379 33.2508 11.7368 33.5106 12.2975C33.7703 12.8582 33.9053 13.4677 33.9065 14.0846V17.3346C33.903 18.3818 33.5135 19.3917 32.8112 20.1746V23.8346C32.8112 24.1189 32.7546 24.4005 32.6447 24.6633C32.5348 24.926 32.3738 25.1647 32.1707 25.3658C31.9676 25.5668 31.7266 25.7263 31.4613 25.8352C31.1959 25.944 30.9116 26 30.6244 26H28.4376C27.8577 26 27.3015 25.7719 26.8914 25.3658C26.4813 24.9597 26.2509 24.4089 26.2509 23.8346V21.6654H8.74914V23.8309C8.74914 24.1152 8.69257 24.3968 8.58268 24.6595C8.47278 24.9222 8.31171 25.161 8.10864 25.362C7.90558 25.5631 7.66452 25.7226 7.3992 25.8314C7.13389 25.9403 6.84953 25.9963 6.56236 25.9963H4.37182C3.79185 25.9963 3.23564 25.7681 2.82554 25.362C2.41544 24.9559 2.18505 24.4052 2.18505 23.8309V20.1709C1.48386 19.3888 1.09448 18.3804 1.08978 17.3346V14.0846C1.09065 13.4677 1.22555 12.8581 1.48532 12.2973C1.74509 11.7366 2.12365 11.2377 2.5953 10.8346H1.22904C1.04643 10.8342 0.869174 10.7735 0.725328 10.6622C0.581481 10.5508 0.479269 10.395 0.434874 10.2197L0.0246187 8.59465C-0.00567107 8.47499 -0.0080429 8.35006 0.017683 8.22935C0.0434089 8.10863 0.0965569 7.99531 0.173096 7.89797C0.249635 7.80062 0.347556 7.72182 0.459431 7.66752C0.571305 7.61323 0.694196 7.58488 0.818783 7.58462H4.91005L6.03919 4.76697C6.60388 3.35582 7.58514 2.14607 8.85485 1.29568C10.1246 0.445283 11.6237 -0.00624078 13.1566 6.51607e-05H21.8397C23.3714 -0.00525105 24.8691 0.446769 26.1374 1.29713C27.4057 2.1475 28.3857 3.35671 28.9495 4.76697L30.0787 7.58462H34.1812C34.3058 7.58488 34.4287 7.61323 34.5406 7.66752C34.6524 7.72182 34.7504 7.80062 34.8269 7.89797C34.9034 7.99531 34.9566 8.10863 34.9823 8.22935C35.008 8.35006 35.0057 8.47499 34.9754 8.59465ZM9.84064 16.2388C9.84064 14.9418 7.87217 13 6.5586 13C6.26737 12.9821 5.97562 13.0256 5.70263 13.1277C5.42963 13.2297 5.1816 13.3879 4.97492 13.5918C4.76824 13.7958 4.60761 14.0409 4.50365 14.3108C4.39969 14.5808 4.35476 14.8696 4.37182 15.158C4.35476 15.4464 4.39969 15.7352 4.50365 16.0052C4.60761 16.2751 4.76824 16.5202 4.97492 16.7242C5.1816 16.9281 5.42963 17.0863 5.70263 17.1883C5.97562 17.2904 6.26737 17.3339 6.5586 17.316C7.87217 17.3197 9.84064 17.5359 9.84064 16.2388ZM8.74914 9.75004H26.2509L24.8884 6.37706C24.6448 5.77445 24.2246 5.25786 23.6819 4.89384C23.1392 4.52983 22.4989 4.33506 21.8434 4.33463H13.1566C12.5011 4.33506 11.8608 4.52983 11.3181 4.89384C10.7754 5.25786 10.3552 5.77445 10.1116 6.37706L8.74914 9.75004ZM30.6244 15.158C30.6415 14.8696 30.5965 14.5808 30.4926 14.3108C30.3886 14.0409 30.228 13.7958 30.0213 13.5918C29.8146 13.3879 29.5666 13.2297 29.2936 13.1277C29.0206 13.0256 28.7289 12.9821 28.4376 13C27.1241 13 25.1556 14.9418 25.1556 16.2388C25.1556 17.5359 27.1241 17.316 28.4376 17.316C28.7289 17.3339 29.0206 17.2904 29.2936 17.1883C29.5666 17.0863 29.8146 16.9281 30.0213 16.7242C30.228 16.5202 30.3886 16.2751 30.4926 16.0052C30.5965 15.7352 30.6415 15.4464 30.6244 15.158Z" fill="#3E4958"/>
</svg>
