<svg width="660" height="319" viewBox="0 0 660 319" fill="none" xmlns="http://www.w3.org/2000/svg">
<rect y="49" width="660" height="270" fill="#E2E2E2"/>
<path fill-rule="evenodd" clip-rule="evenodd" d="M275 139C283.284 139 290 132.284 290 124C290 115.716 283.284 109 275 109C266.716 109 260 115.716 260 124C260 132.284 266.716 139 275 139ZM268.118 121.882C268.118 118.088 271.205 115 275 115C278.795 115 281.882 118.088 281.882 121.882V130.353C281.882 131.229 281.17 131.941 280.294 131.941H276.491C276.271 132.556 275.689 133 275 133C274.124 133 273.412 132.288 273.412 131.412C273.412 130.536 274.124 129.824 275 129.824C275.689 129.824 276.271 130.267 276.491 130.882H280.294C280.586 130.882 280.824 130.645 280.824 130.353V129.726C280.657 129.785 280.481 129.824 280.294 129.824C279.418 129.824 278.706 129.111 278.706 128.235V122.941C278.706 122.065 279.418 121.353 280.294 121.353C280.472 121.353 280.642 121.385 280.801 121.439C280.573 118.435 278.061 116.059 275 116.059C271.937 116.059 269.425 118.437 269.199 121.443C269.359 121.389 269.528 121.353 269.706 121.353C270.582 121.353 271.294 122.065 271.294 122.941V128.235C271.294 129.111 270.582 129.824 269.706 129.824C268.83 129.824 268.118 129.111 268.118 128.235V121.882ZM282.941 122.51V128.668C283.556 128.448 284 127.866 284 127.177V124C284 123.311 283.556 122.729 282.941 122.51ZM266 127.177V124C266 123.311 266.444 122.729 267.059 122.51V128.668C266.444 128.448 266 127.866 266 127.177Z" fill="#339999"/>
<path fill-rule="evenodd" clip-rule="evenodd" d="M515 139C523.284 139 530 132.284 530 124C530 115.716 523.284 109 515 109C506.716 109 500 115.716 500 124C500 132.284 506.716 139 515 139ZM519.809 125.7H515V122.3H523.5V124C523.5 128.687 519.687 132.5 515 132.5C510.313 132.5 506.5 128.687 506.5 124C506.5 119.313 510.313 115.5 515 115.5C517.042 115.5 519.007 116.234 520.537 117.567L518.303 120.131C517.392 119.337 516.219 118.9 515 118.9C512.188 118.9 509.9 121.188 509.9 124C509.9 126.812 512.188 129.1 515 129.1C517.217 129.1 519.107 127.679 519.809 125.7Z" fill="#D5DDE0"/>
<path fill-rule="evenodd" clip-rule="evenodd" d="M315 139C323.284 139 330 132.284 330 124C330 115.716 323.284 109 315 109C306.716 109 300 115.716 300 124C300 132.284 306.716 139 315 139ZM321.897 119H308.463C307.405 119 306.5 119.851 306.5 120.907V127H323.789V120.907C323.789 119.851 322.955 119 321.897 119ZM311.195 124.253C310.82 124.253 310.48 124.104 310.23 123.863C309.979 124.104 309.639 124.253 309.265 124.253C308.495 124.253 307.871 123.63 307.871 122.86C307.871 122.092 308.495 121.469 309.265 121.469C309.64 121.469 309.98 121.617 310.23 121.858C310.48 121.617 310.82 121.469 311.195 121.469C311.965 121.469 312.589 122.092 312.589 122.86C312.589 123.63 311.965 124.253 311.195 124.253ZM306.5 128.613C306.5 129.669 307.404 130.531 308.463 130.531H321.897C322.955 130.531 323.79 129.669 323.79 128.613V128.5H306.5V128.613Z" fill="#339999"/>
<path fill-rule="evenodd" clip-rule="evenodd" d="M250 124C250 132.284 243.284 139 235 139C226.716 139 220 132.284 220 124C220 115.716 226.716 109 235 109C243.284 109 250 115.716 250 124ZM240.815 117.636L235.857 117.005C235.662 116.98 235.467 117.047 235.328 117.186L229.121 123.393C227.95 124.564 227.95 126.464 229.121 127.635L231.365 129.879C232.536 131.05 234.436 131.05 235.607 129.879L241.814 123.672C241.953 123.533 242.02 123.338 241.995 123.143L241.365 118.185C241.328 117.898 241.102 117.672 240.815 117.636ZM239.134 121.834C238.646 122.322 237.855 122.322 237.366 121.834C236.878 121.345 236.878 120.554 237.366 120.066C237.855 119.578 238.646 119.578 239.134 120.066C239.622 120.554 239.622 121.345 239.134 121.834Z" fill="#339999"/>
<path fill-rule="evenodd" clip-rule="evenodd" d="M195 139C203.284 139 210 132.284 210 124C210 115.716 203.284 109 195 109C186.716 109 180 115.716 180 124C180 132.284 186.716 139 195 139ZM185.641 122H186.583C187.485 118.187 190.911 115.35 195 115.35C199.777 115.35 203.65 119.223 203.65 124C203.65 128.777 199.777 132.65 195 132.65C191.283 132.65 188.115 130.306 186.891 127.017C186.766 126.68 186.937 126.306 187.273 126.181C187.61 126.056 187.984 126.227 188.109 126.563C189.15 129.36 191.843 131.35 195 131.35C199.059 131.35 202.35 128.059 202.35 124C202.35 119.941 199.059 116.65 195 116.65C191.634 116.65 188.796 118.913 187.925 122H187.95L187.599 124.339C187.561 124.595 187.238 124.685 187.072 124.486L185.41 122.492C185.247 122.297 185.386 122 185.641 122ZM195 129C197.761 129 200 126.761 200 124C200 121.239 197.761 119 195 119C192.239 119 190 121.239 190 124C190 126.761 192.239 129 195 129Z" fill="#339999"/>
<path fill-rule="evenodd" clip-rule="evenodd" d="M115 199C123.284 199 130 192.284 130 184C130 175.716 123.284 169 115 169C106.716 169 100 175.716 100 184C100 192.284 106.716 199 115 199ZM117.178 179.703L116.236 176.805C115.847 175.607 114.153 175.607 113.764 176.805L112.822 179.703C112.648 180.238 112.149 180.601 111.586 180.601H108.539C107.28 180.601 106.756 182.212 107.775 182.953L110.24 184.743C110.696 185.074 110.886 185.661 110.712 186.197L109.771 189.094C109.382 190.292 110.752 191.288 111.771 190.547L114.236 188.757C114.692 188.426 115.308 188.426 115.764 188.757L118.229 190.547C119.248 191.288 120.618 190.292 120.229 189.094L119.288 186.197C119.114 185.661 119.304 185.074 119.76 184.743L122.225 182.953C123.244 182.212 122.72 180.601 121.461 180.601H118.414C117.851 180.601 117.352 180.238 117.178 179.703Z" fill="#D5DDE0"/>
<path fill-rule="evenodd" clip-rule="evenodd" d="M155 199C163.284 199 170 192.284 170 184C170 175.716 163.284 169 155 169C146.716 169 140 175.716 140 184C140 192.284 146.716 199 155 199ZM158.31 177.82C159.468 177.82 160.534 178.284 161.31 179.126C162.077 179.959 162.5 181.096 162.5 182.328C162.5 183.597 162.027 184.758 161.012 185.983C160.104 187.078 158.8 188.19 157.289 189.478L157.288 189.478L157.276 189.489C156.763 189.926 156.182 190.421 155.58 190.948C155.419 191.088 155.213 191.165 155 191.165C154.786 191.165 154.581 191.088 154.42 190.948C153.813 190.417 153.229 189.919 152.713 189.479L152.712 189.478C151.201 188.19 149.896 187.078 148.988 185.983C147.973 184.758 147.5 183.597 147.5 182.328C147.5 181.096 147.923 179.959 148.69 179.126C149.466 178.284 150.532 177.82 151.69 177.82C152.556 177.82 153.349 178.094 154.047 178.634C154.399 178.906 154.719 179.24 155 179.629C155.281 179.24 155.601 178.906 155.953 178.634C156.651 178.094 157.444 177.82 158.31 177.82Z" fill="#D5DDE0"/>
<path fill-rule="evenodd" clip-rule="evenodd" d="M195 199C203.284 199 210 192.284 210 184C210 175.716 203.284 169 195 169C186.716 169 180 175.716 180 184C180 192.284 186.716 199 195 199ZM201.028 179.985V178.17C201.745 178.192 202.334 178.785 202.334 179.514V190.148C202.334 190.889 201.731 191.5 200.989 191.5H189.011C188.268 191.5 187.666 190.89 187.666 190.148V179.514C187.666 178.785 188.255 178.192 188.972 178.17V179.985C188.972 180.805 189.637 181.466 190.457 181.466H191.394C192.214 181.466 192.888 180.805 192.888 179.985V178.164H197.112V179.985C197.112 180.805 197.786 181.466 198.606 181.466H199.543C200.363 181.466 201.028 180.805 201.028 179.985ZM190.454 180.493H191.381C191.662 180.493 191.89 180.265 191.89 179.984V177.009C191.89 176.728 191.662 176.5 191.381 176.5H190.454C190.172 176.5 189.944 176.728 189.944 177.009V179.984C189.944 180.265 190.172 180.493 190.454 180.493ZM199.521 180.493H198.594C198.313 180.493 198.085 180.265 198.085 179.984V177.009C198.085 176.728 198.313 176.5 198.594 176.5H199.521C199.802 176.5 200.03 176.728 200.03 177.009V179.984C200.03 180.265 199.802 180.493 199.521 180.493Z" fill="#D5DDE0"/>
<rect x="260" y="169" width="30" height="30" fill="white" fill-opacity="0.01"/>
<path fill-rule="evenodd" clip-rule="evenodd" d="M277.75 191.5L267.25 191.5C266.698 191.5 266.25 191.052 266.25 190.5C266.25 189.948 266.698 189.5 267.25 189.5L277.75 189.5C278.302 189.5 278.75 189.948 278.75 190.5C278.75 191.052 278.302 191.5 277.75 191.5ZM266.25 178.5C266.25 177.948 266.698 177.5 267.25 177.5L283.75 177.5C284.302 177.5 284.75 177.948 284.75 178.5C284.75 179.052 284.302 179.5 283.75 179.5L267.25 179.5C266.698 179.5 266.25 179.052 266.25 178.5ZM267.25 185.5L280.75 185.5C281.302 185.5 281.75 185.052 281.75 184.5C281.75 183.948 281.302 183.5 280.75 183.5L267.25 183.5C266.698 183.5 266.25 183.948 266.25 184.5C266.25 185.052 266.698 185.5 267.25 185.5Z" fill="#3E4958"/>
<path fill-rule="evenodd" clip-rule="evenodd" d="M317.707 176.793C318.098 177.183 318.098 177.817 317.707 178.207L311.914 184L317.707 189.793C318.098 190.183 318.098 190.817 317.707 191.207C317.317 191.598 316.683 191.598 316.293 191.207L309.793 184.707C309.402 184.317 309.402 183.683 309.793 183.293L316.293 176.793C316.683 176.402 317.317 176.402 317.707 176.793Z" fill="#3E4958"/>
<path fill-rule="evenodd" clip-rule="evenodd" d="M75 199C83.2843 199 90 192.284 90 184C90 175.716 83.2843 169 75 169C66.7157 169 60 175.716 60 184C60 192.284 66.7157 199 75 199ZM80.1693 181.292C80.1693 184.169 77.252 191.084 74.8773 191.084C72.5026 191.084 69.5859 184.169 69.5859 181.292C69.5859 178.416 72.0008 176.084 74.8773 176.084C77.7538 176.084 80.1693 178.416 80.1693 181.292ZM77.5 181.5C77.5 182.881 76.3807 184 75 184C73.6193 184 72.5 182.881 72.5 181.5C72.5 180.119 73.6193 179 75 179C76.3807 179 77.5 180.119 77.5 181.5Z" fill="#D5DDE0"/>
<path fill-rule="evenodd" clip-rule="evenodd" d="M438.707 183.376C439.098 183.766 439.098 184.399 438.707 184.79L433.79 189.707C433.399 190.098 432.766 190.098 432.376 189.707C431.985 189.317 431.985 188.683 432.376 188.293L436.586 184.083L432.21 179.707C431.82 179.317 431.82 178.683 432.21 178.293C432.601 177.902 433.234 177.902 433.624 178.293L438.707 183.376Z" fill="#97ADB6"/>
<path fill-rule="evenodd" clip-rule="evenodd" d="M111.47 240.158L107.57 249.069H105.034L103.119 241.967C103.008 241.531 102.898 241.373 102.554 241.188C101.961 240.885 101.01 240.594 100.169 240.423L100.224 240.158H104.318C104.841 240.158 105.31 240.489 105.42 241.069L106.44 246.218L108.948 240.158H111.47ZM121.436 246.165C121.444 244.756 120.223 244.144 119.247 243.655C118.596 243.329 118.054 243.058 118.059 242.64C118.073 242.323 118.39 241.98 119.079 241.888C119.424 241.848 120.374 241.809 121.449 242.284L121.877 240.396C121.298 240.198 120.554 240 119.63 240C117.26 240 115.578 241.214 115.565 242.944C115.551 244.224 116.764 244.937 117.673 245.373C118.61 245.808 118.927 246.086 118.927 246.482C118.914 247.076 118.183 247.34 117.494 247.353C116.302 247.366 115.603 247.047 115.056 246.798L115.027 246.785L114.586 248.739C115.151 248.99 116.185 249.201 117.26 249.214C119.782 249.214 121.422 248.013 121.436 246.165ZM127.719 249.069H129.937L127.994 240.158H125.941C125.472 240.158 125.086 240.409 124.921 240.805L121.31 249.056H123.832L124.328 247.723H127.415L127.719 249.069ZM125.031 245.914L126.299 242.574L127.029 245.914H125.031ZM112.917 249.069L114.901 240.158H112.503L110.519 249.069H112.917Z" fill="#1A1F71"/>
<path d="M141.5 237C141.5 235.895 142.395 235 143.5 235H166.5C167.604 235 168.5 235.895 168.5 237V251C168.5 252.104 167.604 253 166.5 253H143.5C142.395 253 141.5 252.104 141.5 251V237Z" fill="black"/>
<path fill-rule="evenodd" clip-rule="evenodd" d="M148.655 243.182C148.655 243.394 148.782 243.479 149.206 243.648C150.054 243.988 150.266 244.242 150.309 244.751V244.878C150.266 245.557 149.715 246.066 149.037 246.023C148.528 246.023 148.019 245.769 147.764 245.302L148.231 244.836C148.358 245.133 148.655 245.345 148.994 245.345H149.037C149.291 245.345 149.545 245.09 149.545 244.793C149.545 244.624 149.461 244.497 149.333 244.412C149.164 244.327 148.994 244.242 148.825 244.2C148.146 243.988 147.934 243.691 147.934 243.182V243.14C147.976 242.546 148.485 242.079 149.079 242.122C149.461 242.122 149.842 242.291 150.139 242.546L149.757 243.055C149.588 242.885 149.376 242.758 149.164 242.758C148.909 242.716 148.697 242.928 148.655 243.182ZM143.391 242.207H144.451H144.663C145.681 242.249 146.487 243.097 146.444 244.115C146.444 244.666 146.19 245.175 145.766 245.557C145.384 245.853 144.918 246.023 144.451 245.981H143.391V242.207ZM144.326 245.345C144.665 245.387 145.047 245.26 145.301 245.048C145.556 244.793 145.683 244.454 145.683 244.072C145.683 243.733 145.556 243.394 145.301 243.139C145.047 242.927 144.665 242.8 144.326 242.843H144.114V245.345H144.326ZM146.741 245.981H147.462V242.207H146.741V245.981ZM150.513 244.115C150.513 245.175 151.361 246.065 152.421 246.065C152.76 246.065 153.057 245.981 153.354 245.853V245.005C153.142 245.26 152.845 245.429 152.506 245.429C151.827 245.429 151.276 244.921 151.276 244.242V244.157C151.234 243.479 151.785 242.885 152.464 242.843C152.803 242.843 153.142 243.012 153.354 243.267V242.419C153.1 242.249 152.76 242.207 152.464 242.207C151.361 242.122 150.513 243.012 150.513 244.115ZM158.148 242.207L159.123 244.751L160.141 242.207H160.904L159.335 246.065H158.953L157.384 242.207H158.148ZM161.241 245.981H163.277V245.344H161.962V244.327H163.234V243.691H161.962V242.843H163.277V242.207H161.241V245.981ZM166.122 243.309C166.122 242.588 165.655 242.207 164.807 242.207H163.747V245.981H164.468V244.454H164.553L165.528 245.981H166.419L165.274 244.412C165.782 244.327 166.164 243.86 166.122 243.309ZM164.68 243.945H164.468V242.8H164.68C165.147 242.8 165.359 243.012 165.359 243.352C165.359 243.733 165.147 243.945 164.68 243.945Z" fill="white"/>
<path fill-rule="evenodd" clip-rule="evenodd" d="M155.61 242.152C154.541 242.152 153.644 243.007 153.644 244.118C153.644 245.186 154.499 246.084 155.61 246.127C156.721 246.169 157.576 245.272 157.619 244.161C157.576 243.049 156.721 242.152 155.61 242.152Z" fill="url(#paint0_linear)"/>
<rect x="222.5" y="236" width="24.9993" height="16.67" rx="2" fill="url(#paint1_radial)"/>
<path d="M224.754 241.916L224.273 240.697L223.795 241.916H224.754ZM235.349 241.43C235.252 241.491 235.138 241.493 235.001 241.493H234.148V240.815H235.013C235.135 240.815 235.263 240.82 235.346 240.87C235.437 240.914 235.493 241.009 235.493 241.14C235.493 241.273 235.44 241.381 235.349 241.43ZM241.438 241.916L240.952 240.697L240.468 241.916H241.438ZM230.087 243.234H229.367L229.364 240.841L228.345 243.234H227.728L226.707 240.839V243.234H225.277L225.007 242.553H223.544L223.272 243.234H222.509L223.767 240.178H224.811L226.006 243.072V240.178H227.153L228.072 242.251L228.917 240.178H230.087V243.234H230.087ZM232.958 243.234H230.611V240.178H232.958V240.815H231.313V241.365H232.919V241.992H231.313V242.602H232.958V243.234ZM236.268 241.001C236.268 241.489 235.955 241.74 235.772 241.816C235.926 241.877 236.058 241.984 236.12 242.073C236.219 242.225 236.236 242.361 236.236 242.634V243.234H235.528L235.525 242.849C235.525 242.665 235.542 242.401 235.414 242.254C235.311 242.146 235.155 242.123 234.902 242.123H234.148V243.234H233.445V240.178H235.061C235.42 240.178 235.685 240.188 235.912 240.325C236.134 240.461 236.268 240.66 236.268 241.001ZM237.392 243.234H236.675V240.178H237.392V243.234ZM245.71 243.234H244.714L243.382 240.94V243.234H241.951L241.678 242.553H240.218L239.953 243.234H239.131C238.789 243.234 238.357 243.156 238.112 242.896C237.865 242.637 237.736 242.285 237.736 241.73C237.736 241.276 237.813 240.862 238.115 240.535C238.342 240.291 238.698 240.178 239.182 240.178H239.862V240.833H239.196C238.94 240.833 238.795 240.873 238.656 241.014C238.536 241.143 238.454 241.386 238.454 241.706C238.454 242.034 238.516 242.27 238.647 242.424C238.755 242.545 238.952 242.582 239.137 242.582H239.452L240.443 240.178H241.495L242.685 243.069V240.178H243.755L244.99 242.307V240.178H245.71V243.234ZM222.5 243.835H223.701L223.972 243.156H224.578L224.848 243.835H227.21V243.316L227.421 243.837H228.647L228.858 243.308V243.835H234.728L234.726 242.72H234.839C234.919 242.723 234.942 242.731 234.942 242.867V243.835H237.978V243.575C238.223 243.712 238.604 243.835 239.105 243.835H240.383L240.656 243.156H241.262L241.529 243.835H243.991V243.19L244.364 243.835H246.336V239.572H244.384V240.076L244.111 239.572H242.108V240.076L241.857 239.572H239.151C238.698 239.572 238.3 239.638 237.978 239.821V239.572H236.111V239.821C235.906 239.632 235.628 239.572 235.317 239.572H228.496L228.038 240.673L227.568 239.572H225.42V240.076L225.184 239.572H223.351L222.5 241.599V243.835H222.5Z" fill="white"/>
<path d="M247.499 246.089H246.219C246.091 246.089 246.006 246.094 245.934 246.144C245.86 246.194 245.832 246.267 245.832 246.364C245.832 246.479 245.894 246.558 245.985 246.592C246.059 246.619 246.139 246.626 246.256 246.626L246.637 246.637C247.021 246.647 247.278 246.716 247.434 246.883C247.463 246.906 247.48 246.933 247.499 246.959V246.089ZM247.499 248.104C247.329 248.364 246.996 248.495 246.546 248.495H245.189V247.84H246.54C246.674 247.84 246.768 247.821 246.825 247.764C246.874 247.717 246.908 247.648 246.908 247.565C246.908 247.476 246.874 247.405 246.822 247.363C246.771 247.316 246.697 247.295 246.574 247.295C245.915 247.271 245.091 247.316 245.091 246.349C245.091 245.905 245.362 245.438 246.1 245.438H247.499V244.83H246.199C245.806 244.83 245.521 244.928 245.319 245.08V244.83H243.396C243.088 244.83 242.727 244.909 242.556 245.08V244.83H239.122V245.08C238.848 244.875 238.387 244.83 238.174 244.83H235.909V245.08C235.692 244.862 235.211 244.83 234.918 244.83H232.383L231.802 245.483L231.259 244.83H227.471V249.096H231.188L231.786 248.432L232.349 249.096L234.64 249.098V248.094H234.865C235.169 248.099 235.527 248.087 235.843 247.944V249.096H237.733V247.984H237.824C237.94 247.984 237.952 247.989 237.952 248.11V249.095H243.692C244.056 249.095 244.437 248.998 244.648 248.823V249.095H246.469C246.848 249.095 247.218 249.04 247.499 248.899V248.104ZM244.696 246.883C244.833 247.03 244.907 247.216 244.907 247.531C244.907 248.188 244.511 248.495 243.803 248.495H242.434V247.84H243.797C243.93 247.84 244.025 247.821 244.084 247.764C244.133 247.717 244.167 247.648 244.167 247.565C244.167 247.476 244.13 247.405 244.081 247.363C244.028 247.316 243.954 247.295 243.831 247.295C243.174 247.271 242.351 247.316 242.351 246.349C242.351 245.905 242.619 245.438 243.356 245.438H244.764V246.089H243.476C243.348 246.089 243.265 246.094 243.194 246.144C243.117 246.194 243.089 246.267 243.089 246.364C243.089 246.48 243.154 246.558 243.242 246.592C243.316 246.619 243.396 246.627 243.516 246.627L243.894 246.637C244.275 246.647 244.537 246.715 244.696 246.883ZM238.356 246.694C238.262 246.752 238.146 246.757 238.009 246.757H237.155V246.071H238.021C238.146 246.071 238.271 246.073 238.356 246.126C238.447 246.175 238.501 246.27 238.501 246.401C238.501 246.532 238.447 246.637 238.356 246.694ZM238.78 247.075C238.937 247.135 239.065 247.242 239.125 247.331C239.224 247.481 239.238 247.62 239.241 247.889V248.495H238.536V248.113C238.536 247.929 238.553 247.657 238.422 247.514C238.319 247.405 238.163 247.379 237.906 247.379H237.155V248.495H236.449V245.438H238.072C238.427 245.438 238.687 245.455 238.917 245.583C239.139 245.722 239.278 245.913 239.278 246.261C239.278 246.749 238.965 246.998 238.78 247.075ZM239.668 245.438H242.013V246.071H240.368V246.626H241.973V247.25H240.368V247.858L242.013 247.861V248.495H239.668V245.438ZM234.927 246.849H234.019V246.071H234.935C235.189 246.071 235.365 246.178 235.365 246.445C235.365 246.71 235.197 246.849 234.927 246.849ZM233.319 248.217L232.24 246.972L233.319 245.766V248.217ZM230.533 247.858H228.806V247.25H230.348V246.626H228.806V246.071H230.567L231.336 246.961L230.533 247.858ZM236.119 246.445C236.119 247.295 235.51 247.47 234.896 247.47H234.019V248.495H232.653L231.788 247.483L230.889 248.495H228.106V245.438H230.932L231.796 246.44L232.69 245.438H234.935C235.493 245.438 236.119 245.599 236.119 246.445Z" fill="white"/>
<rect x="182" y="235.333" width="26" height="17.3333" rx="2" fill="#117ACA"/>
<path d="M194.033 237.809C193.9 237.809 193.793 237.917 193.793 238.05V239.735H198.246L196.218 237.81L194.033 237.809Z" fill="white"/>
<path d="M198.405 240.245C198.405 240.112 198.299 240.005 198.165 240.005H196.479V244.457L198.405 242.429L198.405 240.245Z" fill="white"/>
<path d="M195.966 244.619C196.099 244.619 196.207 244.511 196.207 244.378V242.693H191.753L193.781 244.619L195.966 244.619Z" fill="white"/>
<path d="M191.595 242.183C191.595 242.316 191.703 242.425 191.836 242.425H193.521V237.972L191.595 240L191.595 242.183Z" fill="white"/>
<path d="M192.194 246.788V248.097H190.355V246.788L189.685 246.788V250.087H190.355V248.67H192.194V250.087H192.865V246.788H192.194Z" fill="white"/>
<path d="M201.106 246.788V250.086H204.045L203.673 249.506H201.778V248.669H203.613V248.11H201.778V247.355H203.669L204.034 246.788H201.106Z" fill="white"/>
<path d="M187.196 246.788C186.499 246.788 186.148 247.208 186.148 247.819V249.05C186.148 249.757 186.601 250.087 187.193 250.087L189.294 250.087L188.905 249.484H187.323C186.986 249.484 186.84 249.364 186.84 248.991V247.873C186.84 247.513 186.963 247.372 187.332 247.372H188.921L189.295 246.788H187.196Z" fill="white"/>
<path d="M198.166 246.786C197.763 246.786 197.351 247.026 197.351 247.643V247.801C197.351 248.444 197.748 248.69 198.145 248.691H199.538C199.683 248.691 199.8 248.715 199.8 248.958L199.8 249.238C199.797 249.456 199.687 249.505 199.533 249.505H197.7L197.324 250.086H199.576C200.119 250.086 200.488 249.818 200.488 249.2V248.972C200.488 248.374 200.146 248.091 199.614 248.091H198.284C198.136 248.091 198.033 248.052 198.033 247.835V247.607C198.033 247.422 198.104 247.355 198.276 247.355L200.022 247.354L200.387 246.786L198.166 246.786Z" fill="white"/>
<path d="M194.811 246.788L193.233 250.087H193.979L194.286 249.405H196.001L196.307 250.087H197.056L195.475 246.788H194.811ZM195.142 247.473L195.748 248.844H194.539L195.142 247.473Z" fill="white"/>
<path d="M87.2872 248.965V248.654H87.2088L87.118 248.868L87.0277 248.654H86.9487V248.965H87.0045V248.73L87.0893 248.933H87.1471L87.232 248.73V248.965H87.2872ZM86.7893 248.965V248.707H86.89V248.654H86.6334V248.707H86.734V248.965H86.7893Z" fill="#F79410"/>
<path d="M78.3855 250.301H71.6087V237.716H78.3855V250.301Z" fill="#FF5F00"/>
<path d="M72.0422 244.006C72.0422 241.453 73.1989 239.179 75.0003 237.713C73.683 236.642 72.0205 236.002 70.2138 236.002C65.9364 236.002 62.4692 239.586 62.4692 244.006C62.4692 248.426 65.9364 252.01 70.2138 252.01C72.0205 252.01 73.683 251.37 75.0003 250.298C73.1989 248.833 72.0422 246.559 72.0422 244.006Z" fill="#EB001B"/>
<path d="M87.5284 244.004C87.5284 248.424 84.0611 252.008 79.7838 252.008C77.9771 252.008 76.3146 251.368 74.9968 250.296C76.7987 248.831 77.9554 246.557 77.9554 244.004C77.9554 241.451 76.7987 239.177 74.9968 237.711C76.3146 236.64 77.9771 236 79.7838 236C84.0611 236 87.5284 239.583 87.5284 244.004Z" fill="#F79E1B"/>
<path fill-rule="evenodd" clip-rule="evenodd" d="M75 139C83.2843 139 90 132.284 90 124C90 115.716 83.2843 109 75 109C66.7157 109 60 115.716 60 124C60 132.284 66.7157 139 75 139ZM75 114C75.5523 114 76 114.448 76 115V121.126C75.6804 121.044 75.3453 121 75 121C74.6547 121 74.3196 121.044 74 121.126V115C74 114.448 74.4477 114 75 114ZM78.874 126H83C83.5523 126 84 125.552 84 125C84 124.448 83.5523 124 83 124H78.874C78.9562 124.32 79 124.655 79 125C79 125.345 78.9562 125.68 78.874 126ZM73 125C73 123.895 73.8954 123 75 123C76.1046 123 77 123.895 77 125C77 126.105 76.1046 127 75 127C73.8954 127 73 126.105 73 125Z" fill="#339999"/>
<path fill-rule="evenodd" clip-rule="evenodd" d="M115 139C123.284 139 130 132.284 130 124C130 115.716 123.284 109 115 109C106.716 109 99.9999 115.716 99.9999 124C99.9999 132.284 106.716 139 115 139ZM109.293 119.79L113.586 124.082L109.293 128.376C108.902 128.766 108.902 129.399 109.293 129.79C109.683 130.18 110.316 130.18 110.707 129.79L115.082 125.414L119.293 129.624C119.683 130.015 120.316 130.015 120.707 129.624C121.098 129.234 121.098 128.601 120.707 128.21L116.414 123.917L120.707 119.624C121.098 119.234 121.098 118.601 120.707 118.21C120.317 117.82 119.683 117.82 119.293 118.21L114.917 122.586L110.707 118.375C110.317 117.985 109.683 117.985 109.293 118.375C108.902 118.766 108.902 119.399 109.293 119.79Z" fill="#339999"/>
<path d="M353.587 184L347.543 177.957C347.152 177.566 347.152 176.933 347.543 176.543C347.933 176.152 348.567 176.152 348.957 176.543L355.002 182.586L361.043 176.546C361.433 176.156 362.067 176.156 362.457 176.546C362.848 176.937 362.848 177.57 362.457 177.96L356.416 184L362.457 190.04C362.847 190.43 362.847 191.063 362.457 191.454C362.066 191.844 361.433 191.844 361.043 191.454L355.002 185.414L348.957 191.457C348.567 191.848 347.934 191.848 347.543 191.457C347.153 191.067 347.153 190.434 347.543 190.043L353.587 184Z" fill="#3E4958"/>
<rect x="260" y="229" width="30" height="30" fill="white" fill-opacity="0.01"/>
<path fill-rule="evenodd" clip-rule="evenodd" d="M275 252.989C279.971 252.989 284 248.962 284 243.995C284 239.027 279.971 235 275 235C270.029 235 266 239.027 266 243.995C266 248.962 270.029 252.989 275 252.989Z" fill="#339999"/>
<path d="M270.632 244.889L273.8 247.481L279.272 241.433" stroke="white" stroke-width="2" stroke-linecap="round"/>
<rect x="300" y="229" width="30" height="30" fill="white" fill-opacity="0.01"/>
<circle cx="315" cy="244" r="8.5" fill="white" stroke="#D5DDE0"/>
<rect x="498" y="169" width="30" height="30" fill="white" fill-opacity="0.01"/>
<path fill-rule="evenodd" clip-rule="evenodd" d="M512.25 176C508.798 176 506 178.798 506 182.25C506 185.702 508.798 188.5 512.25 188.5C513.615 188.5 514.878 188.062 515.906 187.32L519.855 191.27C520.246 191.66 520.879 191.66 521.27 191.27C521.66 190.879 521.66 190.246 521.27 189.855L517.32 185.906C518.062 184.878 518.5 183.615 518.5 182.25C518.5 178.798 515.702 176 512.25 176ZM508 182.25C508 179.903 509.903 178 512.25 178C514.597 178 516.5 179.903 516.5 182.25C516.5 184.597 514.597 186.5 512.25 186.5C509.903 186.5 508 184.597 508 182.25Z" fill="#339999"/>
<circle cx="552.5" cy="126.5" r="12.5" fill="#339999"/>
<path d="M552.581 139C545.633 139 540 133.367 540 126.419C540 125.414 540.118 124.437 540.34 123.5" stroke="#D5DDE0" stroke-width="0.5"/>
<g filter="url(#filter0_d)">
<path d="M568.119 109.953C566.849 108.682 564.788 108.682 563.518 109.953L550.618 122.853C550.53 122.941 550.466 123.051 550.432 123.171L548.736 129.295C548.666 129.546 548.737 129.815 548.921 130C549.106 130.184 549.375 130.255 549.626 130.185L555.75 128.489C555.87 128.455 555.98 128.391 556.068 128.303L568.968 115.403C570.236 114.131 570.236 112.073 568.968 110.801L568.119 109.953Z" fill="white"/>
<path d="M568.119 109.953C566.849 108.682 564.788 108.682 563.518 109.953L550.618 122.853C550.53 122.941 550.466 123.051 550.432 123.171L548.736 129.295C548.666 129.546 548.737 129.815 548.921 130C549.106 130.184 549.375 130.255 549.626 130.185L555.75 128.489C555.87 128.455 555.98 128.391 556.068 128.303L568.968 115.403C570.236 114.131 570.236 112.073 568.968 110.801L568.119 109.953Z" stroke="#3E4958" stroke-width="2" stroke-linecap="round"/>
</g>
<path d="M551.129 122.548L555.968 127.387" stroke="#3E4958" stroke-width="2"/>
<path d="M562.258 111.903L567.097 116.742" stroke="#3E4958" stroke-width="2"/>
<path fill-rule="evenodd" clip-rule="evenodd" d="M355 139C363.284 139 370 132.284 370 124C370 115.716 363.284 109 355 109C346.716 109 340 115.716 340 124C340 132.284 346.716 139 355 139ZM359.847 126.042L362.164 128.364C362.624 128.827 362.61 129.593 362.133 130.072L361.471 130.721L361.457 130.709C361.178 130.928 360.856 131.111 360.512 131.245C360.191 131.37 359.876 131.449 359.547 131.488C359.395 131.505 355.892 131.834 351.545 127.477C348.4 124.325 347.241 122.002 347.547 119.461C347.583 119.144 347.661 118.827 347.787 118.496C347.923 118.148 348.106 117.825 348.325 117.545L348.307 117.527L348.96 116.869C349.438 116.39 350.202 116.376 350.663 116.837L352.979 119.159C353.44 119.621 353.426 120.387 352.948 120.866L352.563 121.253L351.78 122.036C351.815 122.098 351.85 122.162 351.887 122.229C351.893 122.24 351.899 122.251 351.905 122.262L351.908 122.266C352.317 123.005 352.877 124.016 353.94 125.081C355.001 126.145 356.01 126.706 356.747 127.115C356.827 127.161 356.903 127.203 356.977 127.244L358.144 126.074C358.622 125.596 359.386 125.582 359.847 126.042Z" fill="#D5DDE0"/>
<path fill-rule="evenodd" clip-rule="evenodd" d="M410 124C410 132.284 403.284 139 395 139C386.716 139 380 132.284 380 124C380 115.716 386.716 109 395 109C403.284 109 410 115.716 410 124ZM388.83 121.699C389.023 121.835 389.605 122.24 390.577 122.913C391.548 123.587 392.293 124.105 392.81 124.469C392.867 124.508 392.987 124.595 393.172 124.729C393.357 124.862 393.51 124.97 393.632 125.053C393.754 125.135 393.902 125.227 394.075 125.33C394.249 125.432 394.412 125.508 394.566 125.559C394.719 125.611 394.861 125.636 394.992 125.636H395H395.009C395.139 125.636 395.282 125.611 395.435 125.559C395.588 125.508 395.752 125.432 395.925 125.33C396.098 125.227 396.246 125.135 396.368 125.053C396.49 124.97 396.644 124.862 396.828 124.729C397.013 124.595 397.134 124.508 397.191 124.469C397.713 124.105 399.043 123.182 401.179 121.699C401.594 121.409 401.941 121.06 402.219 120.65C402.497 120.241 402.637 119.812 402.637 119.364C402.637 118.989 402.502 118.668 402.232 118.401C401.962 118.133 401.642 118 401.273 118H388.727C388.29 118 387.953 118.148 387.717 118.443C387.482 118.739 387.364 119.108 387.364 119.551C387.364 119.909 387.52 120.297 387.833 120.714C388.145 121.132 388.477 121.46 388.83 121.699ZM397.54 125.982C398.506 125.283 399.921 124.303 401.784 123.041C402.108 122.82 402.392 122.573 402.637 122.3V129.067C402.637 129.442 402.503 129.763 402.236 130.03C401.969 130.297 401.648 130.431 401.273 130.431H388.727C388.352 130.431 388.031 130.297 387.764 130.03C387.497 129.763 387.364 129.442 387.364 129.067V122.3C387.614 122.578 387.901 122.826 388.225 123.041C390.281 124.439 391.693 125.419 392.461 125.982C392.784 126.22 393.047 126.407 393.249 126.54C393.451 126.674 393.719 126.81 394.054 126.949C394.389 127.088 394.702 127.158 394.992 127.158H395H395.009C395.299 127.158 395.611 127.088 395.946 126.949C396.282 126.81 396.55 126.674 396.752 126.54C396.953 126.407 397.216 126.22 397.54 125.982Z" fill="#D5DDE0"/>
<path fill-rule="evenodd" clip-rule="evenodd" d="M437.318 138.822C444.502 137.707 450 131.496 450 124C450 115.716 443.284 109 435 109C426.716 109 420 115.716 420 124C420 131.421 425.389 137.584 432.468 138.787V129.99H429.469C429.21 129.99 429 129.78 429 129.521V125.739C429 125.48 429.21 125.27 429.469 125.27H432.468V122.66C432.468 119.222 434.633 117 437.984 117L440.967 117.005C441.225 117.005 441.435 117.215 441.435 117.474V120.985C441.435 121.244 441.225 121.454 440.966 121.454L438.957 121.455C437.572 121.455 437.318 121.994 437.318 123.058V125.27H440.826C440.95 125.27 441.07 125.32 441.158 125.408C441.246 125.496 441.295 125.615 441.295 125.739L441.294 129.521C441.294 129.78 441.084 129.99 440.825 129.99H437.318V138.822Z" fill="#D5DDE0"/>
<path fill-rule="evenodd" clip-rule="evenodd" d="M475 139C483.284 139 490 132.284 490 124C490 115.716 483.284 109 475 109C466.716 109 460 115.716 460 124C460 132.284 466.716 139 475 139ZM471.089 131.82C471.85 131.94 472.607 132 473.342 132C474.193 132 475.015 131.92 475.78 131.759C477.341 131.433 478.654 130.793 479.685 129.86C480.517 129.106 481.144 128.17 481.549 127.08C481.977 125.928 482.157 124.599 482.082 123.13C482.062 122.744 482.168 122.375 482.378 122.092C483.22 120.962 483.281 120.868 483.33 120.793L483.331 120.792C483.343 120.774 483.353 120.76 483.387 120.713L484 119.87L482.963 119.917C482.918 119.919 482.875 119.922 482.833 119.925L483.466 118.105L482.495 118.442C482.235 118.532 482.026 118.611 481.841 118.681L481.835 118.684L481.835 118.684C481.527 118.801 481.298 118.887 480.988 118.968C480.354 118.394 479.554 118.062 478.674 118.008C477.844 117.956 477.007 118.163 476.317 118.59C475.696 118.975 475.228 119.514 474.965 120.15C474.739 120.696 474.671 121.306 474.762 121.937C472.533 121.626 470.655 120.563 469.172 118.77L468.703 118.204L468.352 118.851C467.909 119.67 467.762 120.605 467.938 121.486C468.01 121.847 468.133 122.191 468.303 122.514L467.9 122.357L467.853 123.034C467.804 123.721 468.031 124.523 468.461 125.179C468.582 125.364 468.737 125.567 468.935 125.767L468.727 125.735L468.98 126.51C469.314 127.528 470.007 128.316 470.905 128.754C470.008 129.137 469.283 129.382 468.091 129.776L467 130.137L468.007 130.691C468.391 130.903 469.748 131.608 471.089 131.82Z" fill="#D5DDE0"/>
<path fill-rule="evenodd" clip-rule="evenodd" d="M380 169H410V199H380V169Z" fill="white" fill-opacity="0.01"/>
<g filter="url(#filter1_d)">
<path fill-rule="evenodd" clip-rule="evenodd" d="M398.4 173.8H391.6V177H398.4V173.8ZM387 177H403V180.6H387V177ZM389 180.6H401V194.2H389V180.6Z" fill="white"/>
</g>
<path fill-rule="evenodd" clip-rule="evenodd" d="M393.6 172.8C391.943 172.8 390.6 174.143 390.6 175.8V176H388.8C387.254 176 386 177.254 386 178.8C386 180.068 386.843 181.14 388 181.484V192.2C388 193.857 389.343 195.2 391 195.2H399C400.657 195.2 402 193.857 402 192.2V181.484C403.157 181.14 404 180.068 404 178.8C404 177.254 402.746 176 401.2 176H399.4V175.8C399.4 174.143 398.057 172.8 396.4 172.8H393.6ZM390.6 178L388.8 178C388.358 178 388 178.358 388 178.8C388 179.242 388.358 179.6 388.8 179.6H401.2C401.642 179.6 402 179.242 402 178.8C402 178.358 401.642 178 401.2 178L399.4 178H398.4H391.6H390.6ZM397.4 176V175.8C397.4 175.248 396.952 174.8 396.4 174.8H393.6C393.048 174.8 392.6 175.248 392.6 175.8V176H397.4ZM390 181.6V192.2C390 192.752 390.448 193.2 391 193.2H399C399.552 193.2 400 192.752 400 192.2V181.6H390Z" fill="#3E4958"/>
<path d="M393 184V190.5" stroke="#3E4958" stroke-width="2" stroke-linecap="round"/>
<path d="M397 184V190.5" stroke="#3E4958" stroke-width="2" stroke-linecap="round"/>
<path d="M552.975 192.5V182.75" stroke="#3E4958" stroke-width="2" stroke-linecap="round"/>
<g filter="url(#filter2_d)">
<path fill-rule="evenodd" clip-rule="evenodd" d="M552.975 184.917C555.667 184.917 557.85 182.734 557.85 180.042C557.85 177.349 555.667 175.167 552.975 175.167C550.283 175.167 548.1 177.349 548.1 180.042C548.1 182.734 550.283 184.917 552.975 184.917Z" fill="#339999"/>
</g>
<ellipse cx="551.35" cy="178.417" rx="1.08333" ry="1.08333" fill="white"/>
<rect x="459" y="169" width="30" height="30" fill="white" fill-opacity="0.01"/>
<path d="M481.879 184.307C480.72 180.84 477.608 178.352 473.939 178.352C472.626 178.352 471.388 178.677 470.282 179.246L468.396 177.36L466.992 178.763L479.483 191.254L480.886 189.85L479.269 188.233C480.447 187.211 481.36 185.859 481.879 184.307L481.879 184.307ZM473.939 180.337C476.132 180.337 477.909 182.115 477.909 184.307C477.909 185.043 477.7 185.725 477.348 186.313L475.856 184.82C475.9 184.657 475.924 184.485 475.924 184.307C475.924 183.211 475.036 182.322 473.939 182.322C473.762 182.322 473.592 182.349 473.429 182.393L471.946 180.91C472.533 180.559 473.204 180.337 473.939 180.337Z" fill="#97ADB6"/>
<path d="M473.939 188.277C471.747 188.277 469.97 186.499 469.97 184.307C469.97 183.954 470.031 183.617 470.117 183.291L467.899 181.073C467.065 181.986 466.409 183.084 466 184.307C467.158 187.774 470.271 190.261 473.939 190.261C474.878 190.261 475.779 190.096 476.622 189.796L474.955 188.129C474.629 188.216 474.293 188.277 473.939 188.277Z" fill="#97ADB6"/>
<path fill-rule="evenodd" clip-rule="evenodd" d="M155 109C146.716 109 140 115.716 140 124C140 132.284 146.716 139 155 139C163.284 139 170 132.284 170 124C170 115.716 163.284 109 155 109ZM155 117.25C155.552 117.25 156 117.698 156 118.25V123H160.75C161.302 123 161.75 123.448 161.75 124C161.75 124.552 161.302 125 160.75 125H156V129.75C156 130.302 155.552 130.75 155 130.75C154.448 130.75 154 130.302 154 129.75V125H149.25C148.698 125 148.25 124.552 148.25 124C148.25 123.448 148.698 123 149.25 123H154V118.25C154 117.698 154.448 117.25 155 117.25Z" fill="#339999"/>
<path d="M225.349 180.828L234.747 187.248L244.146 180.828" stroke="#D5DDE0" stroke-width="3" stroke-linecap="round" stroke-linejoin="round"/>
<path d="M4.86328 22H1.91016V4.9375H4.86328V22ZM21.5273 16.4453C21.3555 18.2656 20.6836 19.6875 19.5117 20.7109C18.3398 21.7266 16.7812 22.2344 14.8359 22.2344C13.4766 22.2344 12.2773 21.9141 11.2383 21.2734C10.207 20.625 9.41016 19.707 8.84766 18.5195C8.28516 17.332 7.99219 15.9531 7.96875 14.3828V12.7891C7.96875 11.1797 8.25391 9.76172 8.82422 8.53516C9.39453 7.30859 10.2109 6.36328 11.2734 5.69922C12.3438 5.03516 13.5781 4.70312 14.9766 4.70312C16.8594 4.70312 18.375 5.21484 19.5234 6.23828C20.6719 7.26172 21.3398 8.70703 21.5273 10.5742H18.5742C18.4336 9.34766 18.0742 8.46484 17.4961 7.92578C16.9258 7.37891 16.0859 7.10547 14.9766 7.10547C13.6875 7.10547 12.6953 7.57812 12 8.52344C11.3125 9.46094 10.9609 10.8398 10.9453 12.6602V14.1719C10.9453 16.0156 11.2734 17.4219 11.9297 18.3906C12.5938 19.3594 13.5625 19.8438 14.8359 19.8438C16 19.8438 16.875 19.582 17.4609 19.0586C18.0469 18.5352 18.418 17.6641 18.5742 16.4453H21.5273ZM37.8047 13.9141C37.8047 15.5859 37.5156 17.0547 36.9375 18.3203C36.3594 19.5781 35.5312 20.5469 34.4531 21.2266C33.3828 21.8984 32.1484 22.2344 30.75 22.2344C29.3672 22.2344 28.1328 21.8984 27.0469 21.2266C25.9688 20.5469 25.1328 19.582 24.5391 18.332C23.9531 17.082 23.6562 15.6406 23.6484 14.0078V13.0469C23.6484 11.3828 23.9414 9.91406 24.5273 8.64062C25.1211 7.36719 25.9531 6.39453 27.0234 5.72266C28.1016 5.04297 29.3359 4.70312 30.7266 4.70312C32.1172 4.70312 33.3477 5.03906 34.418 5.71094C35.4961 6.375 36.3281 7.33594 36.9141 8.59375C37.5 9.84375 37.7969 11.3008 37.8047 12.9648V13.9141ZM34.8398 13.0234C34.8398 11.1328 34.4805 9.68359 33.7617 8.67578C33.0508 7.66797 32.0391 7.16406 30.7266 7.16406C29.4453 7.16406 28.4414 7.66797 27.7148 8.67578C26.9961 9.67578 26.6289 11.0938 26.6133 12.9297V13.9141C26.6133 15.7891 26.9766 17.2383 27.7031 18.2617C28.4375 19.2852 29.4531 19.7969 30.75 19.7969C32.0625 19.7969 33.0703 19.2969 33.7734 18.2969C34.4844 17.2969 34.8398 15.8359 34.8398 13.9141V13.0234ZM54.293 22H51.3281L43.7227 9.89453V22H40.7578V4.9375H43.7227L51.3516 17.0898V4.9375H54.293V22ZM66.7148 17.6055C66.7148 16.8555 66.4492 16.2773 65.918 15.8711C65.3945 15.4648 64.4453 15.0547 63.0703 14.6406C61.6953 14.2266 60.6016 13.7656 59.7891 13.2578C58.2344 12.2812 57.457 11.0078 57.457 9.4375C57.457 8.0625 58.0156 6.92969 59.1328 6.03906C60.2578 5.14844 61.7148 4.70312 63.5039 4.70312C64.6914 4.70312 65.75 4.92188 66.6797 5.35938C67.6094 5.79687 68.3398 6.42188 68.8711 7.23438C69.4023 8.03906 69.668 8.93359 69.668 9.91797H66.7148C66.7148 9.02734 66.4336 8.33203 65.8711 7.83203C65.3164 7.32422 64.5195 7.07031 63.4805 7.07031C62.5117 7.07031 61.7578 7.27734 61.2188 7.69141C60.6875 8.10547 60.4219 8.68359 60.4219 9.42578C60.4219 10.0508 60.7109 10.5742 61.2891 10.9961C61.8672 11.4102 62.8203 11.8164 64.1484 12.2148C65.4766 12.6055 66.543 13.0547 67.3477 13.5625C68.1523 14.0625 68.7422 14.6406 69.1172 15.2969C69.4922 15.9453 69.6797 16.707 69.6797 17.582C69.6797 19.0039 69.1328 20.1367 68.0391 20.9805C66.9531 21.8164 65.4766 22.2344 63.6094 22.2344C62.375 22.2344 61.2383 22.0078 60.1992 21.5547C59.168 21.0938 58.3633 20.4609 57.7852 19.6562C57.2148 18.8516 56.9297 17.9141 56.9297 16.8438H59.8945C59.8945 17.8125 60.2148 18.5625 60.8555 19.0938C61.4961 19.625 62.4141 19.8906 63.6094 19.8906C64.6406 19.8906 65.4141 19.6836 65.9297 19.2695C66.4531 18.8477 66.7148 18.293 66.7148 17.6055ZM81.0938 12.168H82.8281C83.7031 12.1602 84.3945 11.9336 84.9023 11.4883C85.418 11.043 85.6758 10.3984 85.6758 9.55469C85.6758 8.74219 85.4609 8.11328 85.0312 7.66797C84.6094 7.21484 83.9609 6.98828 83.0859 6.98828C82.3203 6.98828 81.6914 7.21094 81.1992 7.65625C80.707 8.09375 80.4609 8.66797 80.4609 9.37891H77.6133C77.6133 8.50391 77.8438 7.70703 78.3047 6.98828C78.7734 6.26953 79.4219 5.71094 80.25 5.3125C81.0859 4.90625 82.0195 4.70312 83.0508 4.70312C84.7539 4.70312 86.0898 5.13281 87.0586 5.99219C88.0352 6.84375 88.5234 8.03125 88.5234 9.55469C88.5234 10.3203 88.2773 11.043 87.7852 11.7227C87.3008 12.3945 86.6719 12.9023 85.8984 13.2461C86.8359 13.5664 87.5469 14.0703 88.0312 14.7578C88.5234 15.4453 88.7695 16.2656 88.7695 17.2188C88.7695 18.75 88.2422 19.9688 87.1875 20.875C86.1406 21.7812 84.7617 22.2344 83.0508 22.2344C81.4102 22.2344 80.0664 21.7969 79.0195 20.9219C77.9727 20.0469 77.4492 18.8828 77.4492 17.4297H80.2969C80.2969 18.1797 80.5469 18.7891 81.0469 19.2578C81.5547 19.7266 82.2344 19.9609 83.0859 19.9609C83.9688 19.9609 84.6641 19.7266 85.1719 19.2578C85.6797 18.7891 85.9336 18.1094 85.9336 17.2188C85.9336 16.3203 85.668 15.6289 85.1367 15.1445C84.6055 14.6602 83.8164 14.418 82.7695 14.418H81.0938V12.168ZM102.562 14.8164C102.562 17.2695 102.102 19.1211 101.18 20.3711C100.266 21.6133 98.8711 22.2344 96.9961 22.2344C95.1523 22.2344 93.7617 21.6289 92.8242 20.418C91.8945 19.1992 91.418 17.3984 91.3945 15.0156V12.0625C91.3945 9.60938 91.8516 7.76953 92.7656 6.54297C93.6875 5.31641 95.0898 4.70312 96.9727 4.70312C98.8398 4.70312 100.23 5.30078 101.145 6.49609C102.066 7.69141 102.539 9.48047 102.562 11.8633V14.8164ZM99.7148 11.6289C99.7148 10.0273 99.4961 8.85547 99.0586 8.11328C98.6211 7.36328 97.9258 6.98828 96.9727 6.98828C96.043 6.98828 95.3594 7.34375 94.9219 8.05469C94.4844 8.75781 94.2539 9.85938 94.2305 11.3594V15.2266C94.2305 16.8203 94.4531 18.0078 94.8984 18.7891C95.3438 19.5703 96.043 19.9609 96.9961 19.9609C97.9102 19.9609 98.5859 19.6016 99.0234 18.8828C99.4609 18.1562 99.6914 17.0234 99.7148 15.4844V11.6289ZM111.41 11.1016L114.996 4.9375H118.418L113.262 13.3984L118.535 22H115.078L111.41 15.7422L107.73 22H104.285L109.57 13.3984L104.402 4.9375H107.824L111.41 11.1016ZM123.562 12.168H125.297C126.172 12.1602 126.863 11.9336 127.371 11.4883C127.887 11.043 128.145 10.3984 128.145 9.55469C128.145 8.74219 127.93 8.11328 127.5 7.66797C127.078 7.21484 126.43 6.98828 125.555 6.98828C124.789 6.98828 124.16 7.21094 123.668 7.65625C123.176 8.09375 122.93 8.66797 122.93 9.37891H120.082C120.082 8.50391 120.312 7.70703 120.773 6.98828C121.242 6.26953 121.891 5.71094 122.719 5.3125C123.555 4.90625 124.488 4.70312 125.52 4.70312C127.223 4.70312 128.559 5.13281 129.527 5.99219C130.504 6.84375 130.992 8.03125 130.992 9.55469C130.992 10.3203 130.746 11.043 130.254 11.7227C129.77 12.3945 129.141 12.9023 128.367 13.2461C129.305 13.5664 130.016 14.0703 130.5 14.7578C130.992 15.4453 131.238 16.2656 131.238 17.2188C131.238 18.75 130.711 19.9688 129.656 20.875C128.609 21.7812 127.23 22.2344 125.52 22.2344C123.879 22.2344 122.535 21.7969 121.488 20.9219C120.441 20.0469 119.918 18.8828 119.918 17.4297H122.766C122.766 18.1797 123.016 18.7891 123.516 19.2578C124.023 19.7266 124.703 19.9609 125.555 19.9609C126.438 19.9609 127.133 19.7266 127.641 19.2578C128.148 18.7891 128.402 18.1094 128.402 17.2188C128.402 16.3203 128.137 15.6289 127.605 15.1445C127.074 14.6602 126.285 14.418 125.238 14.418H123.562V12.168ZM145.031 14.8164C145.031 17.2695 144.57 19.1211 143.648 20.3711C142.734 21.6133 141.34 22.2344 139.465 22.2344C137.621 22.2344 136.23 21.6289 135.293 20.418C134.363 19.1992 133.887 17.3984 133.863 15.0156V12.0625C133.863 9.60938 134.32 7.76953 135.234 6.54297C136.156 5.31641 137.559 4.70312 139.441 4.70312C141.309 4.70312 142.699 5.30078 143.613 6.49609C144.535 7.69141 145.008 9.48047 145.031 11.8633V14.8164ZM142.184 11.6289C142.184 10.0273 141.965 8.85547 141.527 8.11328C141.09 7.36328 140.395 6.98828 139.441 6.98828C138.512 6.98828 137.828 7.34375 137.391 8.05469C136.953 8.75781 136.723 9.85938 136.699 11.3594V15.2266C136.699 16.8203 136.922 18.0078 137.367 18.7891C137.812 19.5703 138.512 19.9609 139.465 19.9609C140.379 19.9609 141.055 19.6016 141.492 18.8828C141.93 18.1562 142.16 17.0234 142.184 15.4844V11.6289Z" fill="black"/>
<defs>
<filter id="filter0_d" x="532.71" y="97" width="53.2096" height="53.2115" filterUnits="userSpaceOnUse" color-interpolation-filters="sRGB">
<feFlood flood-opacity="0" result="BackgroundImageFix"/>
<feColorMatrix in="SourceAlpha" type="matrix" values="0 0 0 0 0 0 0 0 0 0 0 0 0 0 0 0 0 0 127 0"/>
<feOffset dy="4"/>
<feGaussianBlur stdDeviation="7.5"/>
<feColorMatrix type="matrix" values="0 0 0 0 0 0 0 0 0 0 0 0 0 0 0 0 0 0 0.15 0"/>
<feBlend mode="normal" in2="BackgroundImageFix" result="effect1_dropShadow"/>
<feBlend mode="normal" in="SourceGraphic" in2="effect1_dropShadow" result="shape"/>
</filter>
<filter id="filter1_d" x="372" y="162.8" width="46" height="50.4002" filterUnits="userSpaceOnUse" color-interpolation-filters="sRGB">
<feFlood flood-opacity="0" result="BackgroundImageFix"/>
<feColorMatrix in="SourceAlpha" type="matrix" values="0 0 0 0 0 0 0 0 0 0 0 0 0 0 0 0 0 0 127 0"/>
<feOffset dy="4"/>
<feGaussianBlur stdDeviation="7.5"/>
<feColorMatrix type="matrix" values="0 0 0 0 0 0 0 0 0 0 0 0 0 0 0 0 0 0 0.15 0"/>
<feBlend mode="normal" in2="BackgroundImageFix" result="effect1_dropShadow"/>
<feBlend mode="normal" in="SourceGraphic" in2="effect1_dropShadow" result="shape"/>
</filter>
<filter id="filter2_d" x="533.1" y="164.167" width="39.75" height="39.75" filterUnits="userSpaceOnUse" color-interpolation-filters="sRGB">
<feFlood flood-opacity="0" result="BackgroundImageFix"/>
<feColorMatrix in="SourceAlpha" type="matrix" values="0 0 0 0 0 0 0 0 0 0 0 0 0 0 0 0 0 0 127 0"/>
<feOffset dy="4"/>
<feGaussianBlur stdDeviation="7.5"/>
<feColorMatrix type="matrix" values="0 0 0 0 0 0 0 0 0 0 0 0 0 0 0 0 0 0 0.15 0"/>
<feBlend mode="normal" in2="BackgroundImageFix" result="effect1_dropShadow"/>
<feBlend mode="normal" in="SourceGraphic" in2="effect1_dropShadow" result="shape"/>
</filter>
<linearGradient id="paint0_linear" x1="154.665" y1="242.75" x2="156.708" y2="246.154" gradientUnits="userSpaceOnUse">
<stop stop-color="#E45C10"/>
<stop offset="1" stop-color="#D9A216"/>
</linearGradient>
<radialGradient id="paint1_radial" cx="0" cy="0" r="1" gradientUnits="userSpaceOnUse" gradientTransform="translate(226.885 238.912) scale(23.3212 15.5868)">
<stop stop-color="#9DD5F6"/>
<stop offset="0.0711" stop-color="#98D3F5"/>
<stop offset="0.1575" stop-color="#89CEF3"/>
<stop offset="0.2516" stop-color="#70C6EF"/>
<stop offset="0.3514" stop-color="#4EBBEA"/>
<stop offset="0.4546" stop-color="#23ADE3"/>
<stop offset="0.5" stop-color="#0DA6E0"/>
<stop offset="1" stop-color="#2E77BC"/>
</radialGradient>
</defs>
</svg>
