<svg width="32" height="32" viewBox="0 0 32 32" fill="none" xmlns="http://www.w3.org/2000/svg">
<path d="M7 20.5003C7 20.3251 7.0068 20.1515 7.0132 19.9779C4.28 19.8559 1.9324 19.2283 0.3184 18.2715C0.1092 18.5235 0 18.7715 0 19.0003C0 20.1447 2.73 21.7739 7.0824 21.9783C7.0292 21.4927 7 20.9999 7 20.5003Z" fill="black"/>
<path d="M7.2388 17.9825C7.368 17.3013 7.5472 16.6381 7.7748 15.9969C4.7172 15.9661 2.08 15.3153 0.318 14.2705C0.1092 14.5229 0 14.7709 0 14.9997C0 16.1577 2.7964 17.8097 7.2388 17.9825Z" fill="black"/>
<path d="M8 14.0003C8.2324 14.0003 8.4568 13.9927 8.6812 13.9847C9.0912 13.2443 9.5672 12.5455 10.1036 11.8983C9.4292 11.9651 8.726 12.0003 8 12.0003C4.8464 12.0003 2.1236 11.3415 0.3184 10.2715C0.1092 10.5235 0 10.7715 0 11.0003C0 12.2235 3.1164 14.0003 8 14.0003Z" fill="black"/>
<path d="M8 8.00028C4.8464 8.00028 2.1236 7.34148 0.3184 6.27148C0.1092 6.52348 0 6.77148 0 7.00028C0 8.22348 3.1164 10.0003 8 10.0003C10.0168 10.0003 11.7256 9.69508 13.0448 9.25308C13.7904 8.75748 14.588 8.33468 15.4268 7.99308C15.8012 7.65188 16 7.30868 16 7.00028C16 6.77148 15.8908 6.52348 15.6816 6.27148C13.8764 7.34148 11.1536 8.00028 8 8.00028Z" fill="black"/>
<path d="M8 6C12.8836 6 16 4.2232 16 3C16 1.7768 12.8836 0 8 0C3.1164 0 0 1.7768 0 3C0 4.2232 3.1164 6 8 6Z" fill="black"/>
<path d="M21.4 21.2271V24.9779C22.0732 24.8003 22.504 24.5442 22.764 24.3238C23.1956 23.9574 23.3964 23.509 23.36 22.9906C23.3192 22.405 23.1148 21.7915 21.4 21.2271Z" fill="black"/>
<path d="M20.5 9C14.1588 9 9 14.1588 9 20.5C9 26.8412 14.1588 32 20.5 32C26.8412 32 32 26.8412 32 20.5C32 14.1588 26.8412 9 20.5 9ZM24.0576 25.8488C23.3836 26.42 22.4772 26.8196 21.4 27.0272V28.2C21.4 28.7524 20.9524 29.2 20.4 29.2C19.8476 29.2 19.4 28.7524 19.4 28.2V27.1844C18.1744 27.1552 16.9216 26.9148 16.0276 26.516C15.5232 26.2908 15.2972 25.6992 15.522 25.1948C15.7472 24.69 16.3392 24.4652 16.8432 24.6892C17.38 24.9292 18.346 25.1524 19.4 25.1832V20.6772C17.6388 20.1392 16.0692 19.2304 15.9304 17.25C15.8564 16.1928 16.2936 15.2008 17.1612 14.456C17.7496 13.9508 18.5124 13.5896 19.4 13.3816V12.2C19.4 11.6476 19.8476 11.2 20.4 11.2C20.9524 11.2 21.4 11.6476 21.4 12.2V13.1756C22.7748 13.1844 23.758 13.4676 24.2588 13.6592C24.7744 13.856 25.0332 14.4344 24.8356 14.9504C24.6392 15.466 24.0624 15.7252 23.5444 15.5272C23.2472 15.4136 22.5008 15.182 21.3996 15.1744V19.1384C23.3364 19.6676 25.1952 20.568 25.3552 22.8504C25.4364 24.0056 24.9752 25.0704 24.0576 25.8488Z" fill="black"/>
<path d="M18.4643 15.9731C18.1983 16.2015 17.8891 16.5843 17.9255 17.1103C17.9591 17.5895 18.1919 18.0883 19.3999 18.5611V15.4595C19.0279 15.5899 18.7095 15.7623 18.4643 15.9731Z" fill="black"/>
</svg>
