<svg width="30" height="30" viewBox="0 0 30 30" fill="none" xmlns="http://www.w3.org/2000/svg">
<rect width="30" height="30" fill="white" fill-opacity="0.01"/>
<path fill-rule="evenodd" clip-rule="evenodd" d="M17.75 22.5L7.25 22.5C6.69772 22.5 6.25 22.0523 6.25 21.5C6.25 20.9477 6.69771 20.5 7.25 20.5L17.75 20.5C18.3023 20.5 18.75 20.9477 18.75 21.5C18.75 22.0523 18.3023 22.5 17.75 22.5ZM6.25 9.49998C6.25 8.9477 6.69772 8.49998 7.25 8.49998L23.75 8.49998C24.3023 8.49998 24.75 8.9477 24.75 9.49998C24.75 10.0523 24.3023 10.5 23.75 10.5L7.25 10.5C6.69772 10.5 6.25 10.0523 6.25 9.49998ZM7.25 16.5L20.75 16.5C21.3023 16.5 21.75 16.0523 21.75 15.5C21.75 14.9477 21.3023 14.5 20.75 14.5L7.25 14.5C6.69772 14.5 6.25 14.9477 6.25 15.5C6.25 16.0523 6.69772 16.5 7.25 16.5Z" fill="#3E4958"/>
</svg>
