<svg width="46" height="52" viewBox="0 0 46 52" fill="none" xmlns="http://www.w3.org/2000/svg">
<path fill-rule="evenodd" clip-rule="evenodd" d="M8 7H38V37H8V7Z" fill="white" fill-opacity="0.01"/>
<g filter="url(#filter0_d)">
<path fill-rule="evenodd" clip-rule="evenodd" d="M26.4 11.7998H19.6001V14.9998H26.4V11.7998ZM15 15H31V18.6H15V15ZM17 18.6001H29V32.2H17V18.6001Z" fill="white"/>
</g>
<path fill-rule="evenodd" clip-rule="evenodd" d="M21.5999 10.8C19.9431 10.8 18.5999 12.1432 18.5999 13.8V14H16.8C15.2536 14 14 15.2536 14 16.8C14 18.0684 14.8434 19.1398 16 19.484V30.2001C16 31.857 17.3431 33.2001 19 33.2001H27C28.6569 33.2001 30 31.857 30 30.2001V19.484C31.1566 19.1398 32 18.0684 32 16.8C32 15.2536 30.7464 14 29.2 14H27.3998V13.8C27.3998 12.1431 26.0567 10.8 24.3998 10.8H21.5999ZM18.5999 16L16.8 16C16.3582 16 16 16.3582 16 16.8C16 17.2418 16.3582 17.6 16.8 17.6H29.2C29.6418 17.6 30 17.2418 30 16.8C30 16.3582 29.6418 16 29.2 16L27.3998 16H26.3998H19.5999H18.5999ZM25.3998 14V13.8C25.3998 13.2477 24.9521 12.8 24.3998 12.8H21.5999C21.0476 12.8 20.5999 13.2477 20.5999 13.8V14H25.3998ZM18 19.6002V30.2001C18 30.7524 18.4477 31.2001 19 31.2001H27C27.5523 31.2001 28 30.7524 28 30.2001V19.6002H18Z" fill="#3E4958"/>
<path d="M21 22V28.5" stroke="#3E4958" stroke-width="2" stroke-linecap="round"/>
<path d="M25 22V28.5" stroke="#3E4958" stroke-width="2" stroke-linecap="round"/>
<defs>
<filter id="filter0_d" x="0" y="0.799805" width="46" height="50.4002" filterUnits="userSpaceOnUse" color-interpolation-filters="sRGB">
<feFlood flood-opacity="0" result="BackgroundImageFix"/>
<feColorMatrix in="SourceAlpha" type="matrix" values="0 0 0 0 0 0 0 0 0 0 0 0 0 0 0 0 0 0 127 0"/>
<feOffset dy="4"/>
<feGaussianBlur stdDeviation="7.5"/>
<feColorMatrix type="matrix" values="0 0 0 0 0 0 0 0 0 0 0 0 0 0 0 0 0 0 0.15 0"/>
<feBlend mode="normal" in2="BackgroundImageFix" result="effect1_dropShadow"/>
<feBlend mode="normal" in="SourceGraphic" in2="effect1_dropShadow" result="shape"/>
</filter>
</defs>
</svg>
