<svg width="30" height="30" viewBox="0 0 30 30" fill="none" xmlns="http://www.w3.org/2000/svg">
<path fill-rule="evenodd" clip-rule="evenodd" d="M30 15C30 23.2843 23.2843 30 15 30C6.71573 30 0 23.2843 0 15C0 6.71573 6.71573 0 15 0C23.2843 0 30 6.71573 30 15ZM20.815 8.63551L15.8571 8.00508C15.6623 7.9803 15.467 8.04702 15.3283 8.18579L9.12132 14.3928C7.94975 15.5644 7.94975 17.4639 9.12132 18.6355L11.3645 20.8787C12.5361 22.0502 14.4356 22.0502 15.6072 20.8786L21.8141 14.6717C21.953 14.5329 22.0197 14.3376 21.9949 14.1429L21.3646 9.18499C21.328 8.89792 21.1021 8.67185 20.815 8.63551ZM19.134 12.8339C18.6461 13.322 17.8547 13.322 17.3661 12.8339C16.878 12.3454 16.878 11.5539 17.3661 11.0659C17.8547 10.578 18.6461 10.578 19.134 11.0659C19.622 11.5539 19.622 12.3454 19.134 12.8339Z" fill="#339999"/>
</svg>
