<svg width="30" height="30" viewBox="0 0 30 30" fill="none" xmlns="http://www.w3.org/2000/svg">
<path fill-rule="evenodd" clip-rule="evenodd" d="M17.3184 29.8219C24.5018 28.7074 30 22.4958 30 15C30 6.71573 23.2843 0 15 0C6.71573 0 0 6.71573 0 15C0 22.4212 5.38937 28.5837 12.4678 29.7872V20.9896H9.46898C9.21008 20.9896 9 20.7798 9 20.5206V16.7393C9 16.4802 9.20984 16.2701 9.46898 16.2701H12.4678V13.6603C12.4678 10.2217 14.6332 8 17.984 8L20.9666 8.00479C21.2252 8.00526 21.4348 8.21511 21.4348 8.47377V11.9849C21.4348 12.2438 21.225 12.4539 20.9661 12.4539L18.9569 12.4546C17.5718 12.4546 17.3184 12.9944 17.3184 14.0578V16.2701H20.8259C20.9503 16.2701 21.0699 16.3197 21.1578 16.4077C21.2456 16.4958 21.2951 16.6149 21.2951 16.7393L21.2937 20.5206C21.2937 20.7798 21.0838 20.9896 20.8247 20.9896H17.3184V29.8219Z" fill="#D5DDE0"/>
</svg>
