<svg width="95" height="95" viewBox="0 0 95 95" fill="none" xmlns="http://www.w3.org/2000/svg">
<g filter="url(#filter0_d)">
<path fill-rule="evenodd" clip-rule="evenodd" d="M15 43.5C15 25.5507 29.5507 11 47.5 11C65.4493 11 80 25.5507 80 43.5C80 61.4493 65.4493 76 47.5 76C29.5507 76 15 61.4493 15 43.5Z" fill="white"/>
</g>
<g filter="url(#filter1_d)">
<path d="M47.9917 57C55.1714 57 60.9917 51.1797 60.9917 44C60.9917 36.8203 55.1714 31 47.9917 31C40.812 31 34.9917 36.8203 34.9917 44C34.9917 47.2497 36.1841 50.2209 38.1553 52.5C38.1553 52.5 37.9917 54.5 34.9917 57C38.9917 57.5 41.3396 55.1715 41.3396 55.1715C43.2857 56.3328 45.5608 57 47.9917 57Z" fill="white"/>
</g>
<path fill-rule="evenodd" clip-rule="evenodd" d="M47.9915 32C41.3641 32 35.9915 37.3726 35.9915 44C35.9915 47.0005 37.0915 49.7416 38.9115 51.8458C39.1215 52.0887 39.194 52.4039 39.1357 52.6963C39.0569 54.0233 38.196 55.1472 37.4787 55.9016C37.4377 55.9447 37.3966 55.9872 37.3555 56.0291C37.4226 56.0206 37.4905 56.0109 37.559 56C38.5881 55.8358 39.6726 55.4047 40.4844 54.5929C40.5247 54.5526 40.5676 54.5165 40.6125 54.4845C40.9272 54.1509 41.4418 54.068 41.8519 54.3128C43.6474 55.3842 45.746 56 47.9915 56C54.619 56 59.9915 50.6274 59.9915 44C59.9915 37.3726 54.619 32 47.9915 32ZM41.4752 56.394C43.4223 57.4197 45.6404 58 47.9915 58C55.7235 58 61.9915 51.732 61.9915 44C61.9915 36.268 55.7235 30 47.9915 30C40.2596 30 33.9915 36.268 33.9915 44C33.9915 47.3356 35.1592 50.4007 37.107 52.8056C36.9942 53.3245 36.6097 53.9131 36.0293 54.5234C35.7027 54.867 35.3555 55.1749 35.0479 55.4358C34.9749 55.4977 34.8969 55.5627 34.8186 55.6279C34.6114 55.8006 34.4031 55.9743 34.2844 56.0929C34.0571 56.3202 33.953 56.6429 34.0045 56.9602C34.0559 57.2775 34.2568 57.5507 34.5443 57.6944C34.9541 57.8993 35.4833 58.0101 36.0184 58.0544C36.5727 58.1003 37.2096 58.0811 37.8741 57.975C39.0426 57.7885 40.3634 57.3218 41.4752 56.394ZM40.9915 40C40.9915 39.4477 41.4393 39 41.9915 39H53.9915C54.5438 39 54.9915 39.4477 54.9915 40C54.9915 40.5523 54.5438 41 53.9915 41H41.9915C41.4393 41 40.9915 40.5523 40.9915 40ZM40.9915 44C40.9915 43.4477 41.4393 43 41.9915 43H51.4915C52.0438 43 52.4915 43.4477 52.4915 44C52.4915 44.5523 52.0438 45 51.4915 45H41.9915C41.4393 45 40.9915 44.5523 40.9915 44ZM41.9915 47C41.4393 47 40.9915 47.4477 40.9915 48C40.9915 48.5523 41.4393 49 41.9915 49H49.4915C50.0438 49 50.4915 48.5523 50.4915 48C50.4915 47.4477 50.0438 47 49.4915 47H41.9915Z" fill="#3E4958"/>
<defs>
<filter id="filter0_d" x="0" y="0" width="95" height="95" filterUnits="userSpaceOnUse" color-interpolation-filters="sRGB">
<feFlood flood-opacity="0" result="BackgroundImageFix"/>
<feColorMatrix in="SourceAlpha" type="matrix" values="0 0 0 0 0 0 0 0 0 0 0 0 0 0 0 0 0 0 127 0"/>
<feOffset dy="4"/>
<feGaussianBlur stdDeviation="7.5"/>
<feColorMatrix type="matrix" values="0 0 0 0 0 0 0 0 0 0 0 0 0 0 0 0 0 0 0.15 0"/>
<feBlend mode="normal" in2="BackgroundImageFix" result="effect1_dropShadow"/>
<feBlend mode="normal" in="SourceGraphic" in2="effect1_dropShadow" result="shape"/>
</filter>
<filter id="filter1_d" x="19.9917" y="20" width="56" height="56.0704" filterUnits="userSpaceOnUse" color-interpolation-filters="sRGB">
<feFlood flood-opacity="0" result="BackgroundImageFix"/>
<feColorMatrix in="SourceAlpha" type="matrix" values="0 0 0 0 0 0 0 0 0 0 0 0 0 0 0 0 0 0 127 0"/>
<feOffset dy="4"/>
<feGaussianBlur stdDeviation="7.5"/>
<feColorMatrix type="matrix" values="0 0 0 0 0 0 0 0 0 0 0 0 0 0 0 0 0 0 0.15 0"/>
<feBlend mode="normal" in2="BackgroundImageFix" result="effect1_dropShadow"/>
<feBlend mode="normal" in="SourceGraphic" in2="effect1_dropShadow" result="shape"/>
</filter>
</defs>
</svg>
